G04 EAGLE Gerber RS-274X export*
G75*
%MOMM*%
%FSLAX34Y34*%
%LPD*%
%INBottom Copper*%
%IPPOS*%
%AMOC8*
5,1,8,0,0,1.08239X$1,22.5*%
G01*
%ADD10C,1.524000*%
%ADD11R,2.032000X2.032000*%
%ADD12C,2.032000*%
%ADD13R,0.800000X1.200000*%
%ADD14P,1.924489X8X112.500000*%
%ADD15C,1.778000*%
%ADD16C,1.270000*%
%ADD17C,0.152400*%
%ADD18C,1.016000*%

G36*
X-446100Y10164D02*
X-446100Y10164D01*
X-446120Y10162D01*
X-446222Y10184D01*
X-446324Y10200D01*
X-446341Y10210D01*
X-446361Y10214D01*
X-446450Y10267D01*
X-446541Y10316D01*
X-446555Y10330D01*
X-446572Y10340D01*
X-446639Y10419D01*
X-446710Y10494D01*
X-446719Y10512D01*
X-446732Y10527D01*
X-446770Y10623D01*
X-446814Y10717D01*
X-446816Y10737D01*
X-446824Y10755D01*
X-446842Y10922D01*
X-447036Y751078D01*
X-447033Y751098D01*
X-447035Y751117D01*
X-447013Y751219D01*
X-446997Y751321D01*
X-446987Y751338D01*
X-446983Y751358D01*
X-446930Y751447D01*
X-446882Y751538D01*
X-446867Y751552D01*
X-446857Y751569D01*
X-446778Y751636D01*
X-446703Y751707D01*
X-446685Y751716D01*
X-446670Y751729D01*
X-446574Y751768D01*
X-446480Y751811D01*
X-446461Y751813D01*
X-446442Y751821D01*
X-446275Y751839D01*
X-10922Y751839D01*
X-10902Y751836D01*
X-10883Y751838D01*
X-10781Y751816D01*
X-10679Y751800D01*
X-10662Y751790D01*
X-10642Y751786D01*
X-10553Y751733D01*
X-10462Y751684D01*
X-10448Y751670D01*
X-10431Y751660D01*
X-10364Y751581D01*
X-10292Y751506D01*
X-10284Y751488D01*
X-10271Y751473D01*
X-10232Y751377D01*
X-10189Y751283D01*
X-10187Y751263D01*
X-10179Y751245D01*
X-10161Y751078D01*
X-10161Y10922D01*
X-10164Y10902D01*
X-10162Y10883D01*
X-10184Y10781D01*
X-10200Y10679D01*
X-10210Y10662D01*
X-10214Y10642D01*
X-10267Y10553D01*
X-10316Y10462D01*
X-10330Y10448D01*
X-10340Y10431D01*
X-10419Y10364D01*
X-10494Y10292D01*
X-10512Y10284D01*
X-10527Y10271D01*
X-10623Y10232D01*
X-10717Y10189D01*
X-10737Y10187D01*
X-10755Y10179D01*
X-10922Y10161D01*
X-446081Y10161D01*
X-446100Y10164D01*
G37*
%LPC*%
G36*
X-39643Y185419D02*
X-39643Y185419D01*
X-33108Y188126D01*
X-28106Y193128D01*
X-25399Y199663D01*
X-25399Y206737D01*
X-28106Y213272D01*
X-31466Y216632D01*
X-31478Y216648D01*
X-31493Y216660D01*
X-31549Y216748D01*
X-31609Y216831D01*
X-31615Y216850D01*
X-31626Y216867D01*
X-31651Y216968D01*
X-31682Y217067D01*
X-31681Y217086D01*
X-31686Y217106D01*
X-31678Y217209D01*
X-31675Y217312D01*
X-31669Y217331D01*
X-31667Y217351D01*
X-31627Y217446D01*
X-31591Y217543D01*
X-31579Y217559D01*
X-31571Y217577D01*
X-31466Y217708D01*
X-30646Y218528D01*
X-27939Y225063D01*
X-27939Y232137D01*
X-30646Y238672D01*
X-31466Y239492D01*
X-31478Y239508D01*
X-31493Y239520D01*
X-31549Y239608D01*
X-31609Y239691D01*
X-31615Y239710D01*
X-31626Y239727D01*
X-31651Y239828D01*
X-31682Y239927D01*
X-31681Y239946D01*
X-31686Y239966D01*
X-31678Y240069D01*
X-31675Y240172D01*
X-31669Y240191D01*
X-31667Y240211D01*
X-31627Y240306D01*
X-31591Y240403D01*
X-31579Y240419D01*
X-31571Y240437D01*
X-31466Y240568D01*
X-28106Y243928D01*
X-25399Y250463D01*
X-25399Y257537D01*
X-28106Y264072D01*
X-33108Y269074D01*
X-38114Y271148D01*
X-38154Y271172D01*
X-38197Y271187D01*
X-38257Y271236D01*
X-38324Y271277D01*
X-38353Y271312D01*
X-38389Y271341D01*
X-38431Y271407D01*
X-38480Y271467D01*
X-38497Y271509D01*
X-38522Y271548D01*
X-38541Y271624D01*
X-38569Y271696D01*
X-38570Y271742D01*
X-38582Y271787D01*
X-38576Y271864D01*
X-38579Y271942D01*
X-38566Y271986D01*
X-38563Y272032D01*
X-38532Y272103D01*
X-38510Y272178D01*
X-38484Y272216D01*
X-38466Y272258D01*
X-38381Y272365D01*
X-38370Y272380D01*
X-38366Y272383D01*
X-38361Y272389D01*
X-37970Y272781D01*
X-37030Y274075D01*
X-36304Y275500D01*
X-35809Y277021D01*
X-35674Y277877D01*
X-52578Y277877D01*
X-52598Y277880D01*
X-52617Y277878D01*
X-52719Y277900D01*
X-52821Y277917D01*
X-52838Y277926D01*
X-52858Y277930D01*
X-52947Y277983D01*
X-53038Y278032D01*
X-53052Y278046D01*
X-53069Y278056D01*
X-53136Y278135D01*
X-53207Y278210D01*
X-53216Y278228D01*
X-53229Y278243D01*
X-53267Y278339D01*
X-53311Y278433D01*
X-53313Y278453D01*
X-53321Y278471D01*
X-53339Y278638D01*
X-53339Y279401D01*
X-53341Y279401D01*
X-53341Y278638D01*
X-53344Y278618D01*
X-53342Y278599D01*
X-53364Y278497D01*
X-53381Y278395D01*
X-53390Y278378D01*
X-53394Y278358D01*
X-53447Y278269D01*
X-53496Y278178D01*
X-53510Y278164D01*
X-53520Y278147D01*
X-53599Y278080D01*
X-53674Y278009D01*
X-53692Y278000D01*
X-53707Y277987D01*
X-53803Y277948D01*
X-53897Y277905D01*
X-53917Y277903D01*
X-53935Y277895D01*
X-54102Y277877D01*
X-71006Y277877D01*
X-70871Y277021D01*
X-70376Y275500D01*
X-69650Y274075D01*
X-68710Y272781D01*
X-67740Y271810D01*
X-67698Y271752D01*
X-67648Y271700D01*
X-67627Y271653D01*
X-67596Y271611D01*
X-67575Y271542D01*
X-67545Y271477D01*
X-67539Y271425D01*
X-67524Y271375D01*
X-67526Y271304D01*
X-67518Y271233D01*
X-67529Y271182D01*
X-67530Y271130D01*
X-67555Y271062D01*
X-67570Y270992D01*
X-67597Y270947D01*
X-67615Y270899D01*
X-67659Y270843D01*
X-67696Y270781D01*
X-67736Y270747D01*
X-67768Y270707D01*
X-67829Y270668D01*
X-67883Y270621D01*
X-67931Y270602D01*
X-67975Y270574D01*
X-68045Y270556D01*
X-68111Y270529D01*
X-68183Y270521D01*
X-68214Y270513D01*
X-68237Y270515D01*
X-68278Y270511D01*
X-84846Y270511D01*
X-84936Y270525D01*
X-85027Y270533D01*
X-85056Y270545D01*
X-85088Y270550D01*
X-85169Y270593D01*
X-85253Y270629D01*
X-85285Y270655D01*
X-85306Y270666D01*
X-85328Y270689D01*
X-85384Y270734D01*
X-102266Y287616D01*
X-102319Y287690D01*
X-102379Y287759D01*
X-102391Y287790D01*
X-102410Y287816D01*
X-102437Y287903D01*
X-102471Y287988D01*
X-102475Y288029D01*
X-102482Y288051D01*
X-102481Y288083D01*
X-102489Y288154D01*
X-102489Y533846D01*
X-102475Y533936D01*
X-102467Y534027D01*
X-102455Y534056D01*
X-102450Y534088D01*
X-102407Y534169D01*
X-102371Y534253D01*
X-102345Y534285D01*
X-102334Y534306D01*
X-102311Y534328D01*
X-102266Y534384D01*
X-94584Y542066D01*
X-94510Y542119D01*
X-94441Y542179D01*
X-94410Y542191D01*
X-94384Y542210D01*
X-94297Y542237D01*
X-94212Y542271D01*
X-94171Y542275D01*
X-94149Y542282D01*
X-94117Y542281D01*
X-94046Y542289D01*
X-66444Y542289D01*
X-66380Y542279D01*
X-66314Y542278D01*
X-66234Y542255D01*
X-66202Y542250D01*
X-66184Y542240D01*
X-66153Y542231D01*
X-64756Y541652D01*
X-64716Y541628D01*
X-64673Y541613D01*
X-64613Y541564D01*
X-64546Y541523D01*
X-64517Y541487D01*
X-64481Y541459D01*
X-64439Y541393D01*
X-64390Y541333D01*
X-64373Y541291D01*
X-64348Y541252D01*
X-64329Y541176D01*
X-64301Y541104D01*
X-64300Y541058D01*
X-64288Y541013D01*
X-64294Y540936D01*
X-64291Y540858D01*
X-64304Y540814D01*
X-64307Y540768D01*
X-64338Y540697D01*
X-64360Y540622D01*
X-64386Y540584D01*
X-64404Y540542D01*
X-64489Y540435D01*
X-64500Y540420D01*
X-64504Y540417D01*
X-64509Y540411D01*
X-64900Y540019D01*
X-65840Y538725D01*
X-66566Y537300D01*
X-67061Y535779D01*
X-67196Y534923D01*
X-50292Y534923D01*
X-50272Y534920D01*
X-50253Y534922D01*
X-50151Y534900D01*
X-50049Y534883D01*
X-50032Y534874D01*
X-50012Y534870D01*
X-49923Y534817D01*
X-49832Y534768D01*
X-49818Y534754D01*
X-49801Y534744D01*
X-49734Y534665D01*
X-49663Y534590D01*
X-49654Y534572D01*
X-49641Y534557D01*
X-49603Y534461D01*
X-49559Y534367D01*
X-49557Y534347D01*
X-49549Y534329D01*
X-49531Y534162D01*
X-49531Y533399D01*
X-49529Y533399D01*
X-49529Y534162D01*
X-49526Y534182D01*
X-49528Y534201D01*
X-49506Y534303D01*
X-49489Y534405D01*
X-49480Y534422D01*
X-49476Y534442D01*
X-49423Y534531D01*
X-49374Y534622D01*
X-49360Y534636D01*
X-49350Y534653D01*
X-49271Y534720D01*
X-49196Y534791D01*
X-49178Y534800D01*
X-49163Y534813D01*
X-49067Y534852D01*
X-48973Y534895D01*
X-48953Y534897D01*
X-48935Y534905D01*
X-48768Y534923D01*
X-31864Y534923D01*
X-31999Y535779D01*
X-32494Y537300D01*
X-33220Y538725D01*
X-34160Y540019D01*
X-35291Y541150D01*
X-36118Y541751D01*
X-36192Y541826D01*
X-36269Y541897D01*
X-36278Y541913D01*
X-36291Y541926D01*
X-36337Y542020D01*
X-36388Y542112D01*
X-36391Y542130D01*
X-36399Y542147D01*
X-36413Y542251D01*
X-36432Y542355D01*
X-36429Y542373D01*
X-36431Y542391D01*
X-36411Y542494D01*
X-36396Y542598D01*
X-36388Y542614D01*
X-36384Y542632D01*
X-36332Y542723D01*
X-36284Y542817D01*
X-36271Y542830D01*
X-36262Y542846D01*
X-36184Y542915D01*
X-36109Y542989D01*
X-36089Y543000D01*
X-36079Y543009D01*
X-36050Y543022D01*
X-35962Y543070D01*
X-34378Y543726D01*
X-29376Y548728D01*
X-26669Y555263D01*
X-26669Y562337D01*
X-29376Y568872D01*
X-30196Y569692D01*
X-30208Y569708D01*
X-30223Y569720D01*
X-30279Y569808D01*
X-30339Y569891D01*
X-30345Y569910D01*
X-30356Y569927D01*
X-30381Y570028D01*
X-30412Y570127D01*
X-30411Y570146D01*
X-30416Y570166D01*
X-30408Y570269D01*
X-30405Y570372D01*
X-30399Y570391D01*
X-30397Y570411D01*
X-30357Y570506D01*
X-30321Y570603D01*
X-30309Y570619D01*
X-30301Y570637D01*
X-30196Y570768D01*
X-26836Y574128D01*
X-24129Y580663D01*
X-24129Y587737D01*
X-26836Y594272D01*
X-30196Y597632D01*
X-30208Y597648D01*
X-30223Y597660D01*
X-30279Y597748D01*
X-30339Y597831D01*
X-30345Y597850D01*
X-30356Y597867D01*
X-30381Y597968D01*
X-30412Y598067D01*
X-30411Y598086D01*
X-30416Y598106D01*
X-30408Y598209D01*
X-30405Y598312D01*
X-30399Y598331D01*
X-30397Y598351D01*
X-30357Y598446D01*
X-30321Y598543D01*
X-30309Y598559D01*
X-30301Y598577D01*
X-30196Y598708D01*
X-29376Y599528D01*
X-26669Y606063D01*
X-26669Y613137D01*
X-29376Y619672D01*
X-30196Y620492D01*
X-30208Y620508D01*
X-30223Y620520D01*
X-30279Y620608D01*
X-30339Y620691D01*
X-30345Y620710D01*
X-30356Y620727D01*
X-30381Y620828D01*
X-30412Y620927D01*
X-30411Y620946D01*
X-30416Y620966D01*
X-30408Y621069D01*
X-30405Y621172D01*
X-30399Y621191D01*
X-30397Y621211D01*
X-30357Y621306D01*
X-30321Y621403D01*
X-30309Y621419D01*
X-30301Y621437D01*
X-30196Y621568D01*
X-26836Y624928D01*
X-24129Y631463D01*
X-24129Y638537D01*
X-26836Y645072D01*
X-30196Y648432D01*
X-30208Y648448D01*
X-30223Y648460D01*
X-30279Y648548D01*
X-30339Y648631D01*
X-30345Y648650D01*
X-30356Y648667D01*
X-30381Y648768D01*
X-30412Y648867D01*
X-30411Y648886D01*
X-30416Y648906D01*
X-30408Y649009D01*
X-30405Y649112D01*
X-30399Y649131D01*
X-30397Y649151D01*
X-30357Y649246D01*
X-30321Y649343D01*
X-30309Y649359D01*
X-30301Y649377D01*
X-30196Y649508D01*
X-29376Y650328D01*
X-26669Y656863D01*
X-26669Y663937D01*
X-29376Y670472D01*
X-30196Y671292D01*
X-30208Y671308D01*
X-30223Y671320D01*
X-30279Y671408D01*
X-30339Y671491D01*
X-30345Y671510D01*
X-30356Y671527D01*
X-30381Y671628D01*
X-30412Y671727D01*
X-30411Y671746D01*
X-30416Y671766D01*
X-30408Y671869D01*
X-30405Y671972D01*
X-30399Y671991D01*
X-30397Y672011D01*
X-30357Y672106D01*
X-30321Y672203D01*
X-30309Y672219D01*
X-30301Y672237D01*
X-30196Y672368D01*
X-26836Y675728D01*
X-24129Y682263D01*
X-24129Y689337D01*
X-26836Y695872D01*
X-30196Y699232D01*
X-30208Y699248D01*
X-30223Y699260D01*
X-30279Y699348D01*
X-30339Y699431D01*
X-30345Y699450D01*
X-30356Y699467D01*
X-30381Y699568D01*
X-30412Y699667D01*
X-30411Y699686D01*
X-30416Y699706D01*
X-30408Y699809D01*
X-30405Y699912D01*
X-30399Y699931D01*
X-30397Y699951D01*
X-30357Y700046D01*
X-30321Y700143D01*
X-30309Y700159D01*
X-30301Y700177D01*
X-30196Y700308D01*
X-29376Y701128D01*
X-26669Y707663D01*
X-26669Y714737D01*
X-29376Y721272D01*
X-34378Y726274D01*
X-40913Y728981D01*
X-63227Y728981D01*
X-69762Y726274D01*
X-74764Y721272D01*
X-77471Y714737D01*
X-77471Y707663D01*
X-74764Y701128D01*
X-71404Y697768D01*
X-71392Y697752D01*
X-71377Y697740D01*
X-71321Y697652D01*
X-71261Y697569D01*
X-71255Y697550D01*
X-71244Y697533D01*
X-71219Y697432D01*
X-71188Y697333D01*
X-71189Y697314D01*
X-71184Y697294D01*
X-71192Y697191D01*
X-71195Y697088D01*
X-71201Y697069D01*
X-71203Y697049D01*
X-71243Y696954D01*
X-71279Y696857D01*
X-71291Y696841D01*
X-71299Y696823D01*
X-71404Y696692D01*
X-72224Y695872D01*
X-74931Y689337D01*
X-74931Y682263D01*
X-72224Y675728D01*
X-71404Y674908D01*
X-71392Y674892D01*
X-71377Y674880D01*
X-71321Y674792D01*
X-71261Y674709D01*
X-71255Y674690D01*
X-71244Y674673D01*
X-71219Y674572D01*
X-71188Y674473D01*
X-71189Y674454D01*
X-71184Y674434D01*
X-71192Y674331D01*
X-71195Y674228D01*
X-71201Y674209D01*
X-71203Y674189D01*
X-71243Y674094D01*
X-71279Y673997D01*
X-71291Y673981D01*
X-71299Y673963D01*
X-71404Y673832D01*
X-74764Y670472D01*
X-77471Y663937D01*
X-77471Y656863D01*
X-74764Y650328D01*
X-71404Y646968D01*
X-71392Y646952D01*
X-71377Y646940D01*
X-71321Y646852D01*
X-71261Y646769D01*
X-71255Y646750D01*
X-71244Y646733D01*
X-71219Y646632D01*
X-71188Y646533D01*
X-71189Y646514D01*
X-71184Y646494D01*
X-71192Y646391D01*
X-71195Y646288D01*
X-71201Y646269D01*
X-71203Y646249D01*
X-71243Y646154D01*
X-71279Y646057D01*
X-71291Y646041D01*
X-71299Y646023D01*
X-71404Y645892D01*
X-72224Y645072D01*
X-74931Y638537D01*
X-74931Y631463D01*
X-73150Y627163D01*
X-73139Y627119D01*
X-73120Y627077D01*
X-73111Y627000D01*
X-73093Y626924D01*
X-73098Y626878D01*
X-73093Y626833D01*
X-73109Y626756D01*
X-73117Y626679D01*
X-73135Y626637D01*
X-73145Y626592D01*
X-73185Y626525D01*
X-73217Y626454D01*
X-73248Y626420D01*
X-73271Y626381D01*
X-73330Y626330D01*
X-73383Y626273D01*
X-73423Y626251D01*
X-73458Y626221D01*
X-73530Y626192D01*
X-73598Y626155D01*
X-73644Y626146D01*
X-73686Y626129D01*
X-73822Y626114D01*
X-73841Y626111D01*
X-73846Y626112D01*
X-73853Y626111D01*
X-154684Y626111D01*
X-160753Y623597D01*
X-188997Y595353D01*
X-191511Y589284D01*
X-191511Y233716D01*
X-188997Y227647D01*
X-150353Y189003D01*
X-144284Y186489D01*
X-64691Y186489D01*
X-64627Y186479D01*
X-64561Y186478D01*
X-64481Y186455D01*
X-64449Y186450D01*
X-64432Y186440D01*
X-64400Y186431D01*
X-61957Y185419D01*
X-39643Y185419D01*
G37*
%LPD*%
%LPC*%
G36*
X-266973Y33019D02*
X-266973Y33019D01*
X-260438Y35726D01*
X-255436Y40728D01*
X-252729Y47263D01*
X-252729Y54337D01*
X-255436Y60872D01*
X-258796Y64232D01*
X-258808Y64248D01*
X-258823Y64260D01*
X-258879Y64348D01*
X-258939Y64431D01*
X-258945Y64450D01*
X-258956Y64467D01*
X-258981Y64568D01*
X-259012Y64667D01*
X-259011Y64686D01*
X-259016Y64706D01*
X-259008Y64809D01*
X-259005Y64912D01*
X-258999Y64931D01*
X-258997Y64951D01*
X-258957Y65046D01*
X-258921Y65143D01*
X-258909Y65159D01*
X-258901Y65177D01*
X-258796Y65308D01*
X-257976Y66128D01*
X-255269Y72663D01*
X-255269Y79737D01*
X-257976Y86272D01*
X-258796Y87092D01*
X-258808Y87108D01*
X-258823Y87120D01*
X-258879Y87208D01*
X-258939Y87291D01*
X-258945Y87310D01*
X-258956Y87327D01*
X-258981Y87428D01*
X-259012Y87527D01*
X-259011Y87546D01*
X-259016Y87566D01*
X-259008Y87669D01*
X-259005Y87772D01*
X-258999Y87791D01*
X-258997Y87811D01*
X-258957Y87906D01*
X-258921Y88003D01*
X-258909Y88019D01*
X-258901Y88037D01*
X-258796Y88168D01*
X-255436Y91528D01*
X-252729Y98063D01*
X-252729Y105137D01*
X-255436Y111672D01*
X-258796Y115032D01*
X-258808Y115048D01*
X-258823Y115060D01*
X-258879Y115148D01*
X-258939Y115231D01*
X-258945Y115250D01*
X-258956Y115267D01*
X-258981Y115368D01*
X-259012Y115467D01*
X-259011Y115486D01*
X-259016Y115506D01*
X-259008Y115609D01*
X-259005Y115712D01*
X-258999Y115731D01*
X-258997Y115751D01*
X-258957Y115846D01*
X-258921Y115943D01*
X-258909Y115959D01*
X-258901Y115977D01*
X-258796Y116108D01*
X-257976Y116928D01*
X-255269Y123463D01*
X-255269Y130537D01*
X-257976Y137072D01*
X-258796Y137892D01*
X-258808Y137908D01*
X-258823Y137920D01*
X-258879Y138008D01*
X-258939Y138091D01*
X-258945Y138110D01*
X-258956Y138127D01*
X-258981Y138228D01*
X-259012Y138327D01*
X-259011Y138346D01*
X-259016Y138366D01*
X-259008Y138469D01*
X-259005Y138572D01*
X-258999Y138591D01*
X-258997Y138611D01*
X-258957Y138706D01*
X-258921Y138803D01*
X-258909Y138819D01*
X-258901Y138837D01*
X-258796Y138968D01*
X-255436Y142328D01*
X-252729Y148863D01*
X-252729Y155937D01*
X-255436Y162472D01*
X-258796Y165832D01*
X-258808Y165848D01*
X-258823Y165860D01*
X-258879Y165948D01*
X-258939Y166031D01*
X-258945Y166050D01*
X-258956Y166067D01*
X-258981Y166168D01*
X-259012Y166267D01*
X-259011Y166286D01*
X-259016Y166306D01*
X-259008Y166409D01*
X-259005Y166512D01*
X-258999Y166531D01*
X-258997Y166551D01*
X-258957Y166646D01*
X-258921Y166743D01*
X-258909Y166759D01*
X-258901Y166777D01*
X-258796Y166908D01*
X-257976Y167728D01*
X-255269Y174263D01*
X-255269Y181337D01*
X-257976Y187872D01*
X-258796Y188692D01*
X-258808Y188708D01*
X-258823Y188720D01*
X-258879Y188808D01*
X-258939Y188891D01*
X-258945Y188910D01*
X-258956Y188927D01*
X-258981Y189028D01*
X-259012Y189127D01*
X-259011Y189146D01*
X-259016Y189166D01*
X-259008Y189269D01*
X-259005Y189372D01*
X-258999Y189391D01*
X-258997Y189411D01*
X-258957Y189506D01*
X-258921Y189603D01*
X-258909Y189619D01*
X-258901Y189637D01*
X-258796Y189768D01*
X-255436Y193128D01*
X-252729Y199663D01*
X-252729Y206737D01*
X-255436Y213272D01*
X-258796Y216632D01*
X-258808Y216648D01*
X-258823Y216660D01*
X-258879Y216748D01*
X-258939Y216831D01*
X-258945Y216850D01*
X-258956Y216867D01*
X-258981Y216968D01*
X-259012Y217067D01*
X-259011Y217086D01*
X-259016Y217106D01*
X-259008Y217209D01*
X-259005Y217312D01*
X-258999Y217331D01*
X-258997Y217351D01*
X-258957Y217446D01*
X-258921Y217543D01*
X-258909Y217559D01*
X-258901Y217577D01*
X-258796Y217708D01*
X-257976Y218528D01*
X-255269Y225063D01*
X-255269Y232137D01*
X-257976Y238672D01*
X-258796Y239492D01*
X-258808Y239508D01*
X-258823Y239520D01*
X-258879Y239608D01*
X-258939Y239691D01*
X-258945Y239710D01*
X-258956Y239727D01*
X-258981Y239828D01*
X-259012Y239927D01*
X-259011Y239946D01*
X-259016Y239966D01*
X-259008Y240069D01*
X-259005Y240172D01*
X-258999Y240191D01*
X-258997Y240211D01*
X-258957Y240306D01*
X-258921Y240403D01*
X-258909Y240419D01*
X-258901Y240437D01*
X-258796Y240568D01*
X-255436Y243928D01*
X-252729Y250463D01*
X-252729Y257537D01*
X-255436Y264072D01*
X-260438Y269074D01*
X-265444Y271148D01*
X-265484Y271172D01*
X-265527Y271187D01*
X-265587Y271236D01*
X-265654Y271277D01*
X-265683Y271312D01*
X-265719Y271341D01*
X-265761Y271407D01*
X-265810Y271467D01*
X-265827Y271509D01*
X-265852Y271548D01*
X-265871Y271624D01*
X-265899Y271696D01*
X-265900Y271742D01*
X-265912Y271787D01*
X-265906Y271864D01*
X-265909Y271942D01*
X-265896Y271986D01*
X-265893Y272032D01*
X-265862Y272103D01*
X-265840Y272178D01*
X-265814Y272216D01*
X-265796Y272258D01*
X-265711Y272365D01*
X-265700Y272380D01*
X-265696Y272383D01*
X-265691Y272389D01*
X-265300Y272781D01*
X-264360Y274075D01*
X-263634Y275500D01*
X-263139Y277021D01*
X-263004Y277877D01*
X-279908Y277877D01*
X-279928Y277880D01*
X-279947Y277878D01*
X-280049Y277900D01*
X-280151Y277917D01*
X-280168Y277926D01*
X-280188Y277930D01*
X-280277Y277983D01*
X-280368Y278032D01*
X-280382Y278046D01*
X-280399Y278056D01*
X-280466Y278135D01*
X-280537Y278210D01*
X-280546Y278228D01*
X-280559Y278243D01*
X-280597Y278339D01*
X-280641Y278433D01*
X-280643Y278453D01*
X-280651Y278471D01*
X-280669Y278638D01*
X-280669Y279401D01*
X-280671Y279401D01*
X-280671Y278638D01*
X-280674Y278618D01*
X-280672Y278599D01*
X-280694Y278497D01*
X-280711Y278395D01*
X-280720Y278378D01*
X-280724Y278358D01*
X-280777Y278269D01*
X-280826Y278178D01*
X-280840Y278164D01*
X-280850Y278147D01*
X-280929Y278080D01*
X-281004Y278009D01*
X-281022Y278000D01*
X-281037Y277987D01*
X-281133Y277948D01*
X-281227Y277905D01*
X-281247Y277903D01*
X-281265Y277895D01*
X-281432Y277877D01*
X-298336Y277877D01*
X-298201Y277021D01*
X-297706Y275500D01*
X-296980Y274075D01*
X-296040Y272781D01*
X-295070Y271810D01*
X-295028Y271752D01*
X-294978Y271700D01*
X-294957Y271653D01*
X-294926Y271611D01*
X-294905Y271542D01*
X-294875Y271477D01*
X-294869Y271425D01*
X-294854Y271375D01*
X-294856Y271304D01*
X-294848Y271233D01*
X-294859Y271182D01*
X-294860Y271130D01*
X-294885Y271062D01*
X-294900Y270992D01*
X-294927Y270947D01*
X-294945Y270899D01*
X-294989Y270843D01*
X-295026Y270781D01*
X-295066Y270747D01*
X-295098Y270707D01*
X-295159Y270668D01*
X-295213Y270621D01*
X-295261Y270602D01*
X-295305Y270574D01*
X-295375Y270556D01*
X-295441Y270529D01*
X-295513Y270521D01*
X-295544Y270513D01*
X-295567Y270515D01*
X-295608Y270511D01*
X-321846Y270511D01*
X-321936Y270525D01*
X-322027Y270533D01*
X-322056Y270545D01*
X-322088Y270550D01*
X-322169Y270593D01*
X-322253Y270629D01*
X-322285Y270655D01*
X-322306Y270666D01*
X-322328Y270689D01*
X-322384Y270734D01*
X-329166Y277516D01*
X-329219Y277590D01*
X-329279Y277659D01*
X-329291Y277690D01*
X-329310Y277716D01*
X-329337Y277803D01*
X-329371Y277888D01*
X-329375Y277929D01*
X-329382Y277951D01*
X-329381Y277983D01*
X-329389Y278054D01*
X-329389Y335527D01*
X-329379Y335592D01*
X-329378Y335657D01*
X-329355Y335737D01*
X-329350Y335770D01*
X-329340Y335787D01*
X-329331Y335818D01*
X-326849Y341811D01*
X-326849Y349389D01*
X-329750Y356391D01*
X-335109Y361750D01*
X-336796Y362450D01*
X-336835Y362474D01*
X-336879Y362490D01*
X-336939Y362538D01*
X-337005Y362579D01*
X-337035Y362615D01*
X-337071Y362643D01*
X-337113Y362709D01*
X-337162Y362769D01*
X-337179Y362811D01*
X-337204Y362850D01*
X-337223Y362926D01*
X-337250Y362998D01*
X-337252Y363044D01*
X-337264Y363089D01*
X-337258Y363166D01*
X-337261Y363244D01*
X-337248Y363288D01*
X-337245Y363334D01*
X-337214Y363405D01*
X-337192Y363480D01*
X-337166Y363518D01*
X-337148Y363560D01*
X-337063Y363667D01*
X-337052Y363682D01*
X-337048Y363685D01*
X-337043Y363691D01*
X-334469Y366265D01*
X-334469Y369477D01*
X-345138Y369477D01*
X-345158Y369480D01*
X-345177Y369478D01*
X-345279Y369500D01*
X-345381Y369517D01*
X-345398Y369526D01*
X-345418Y369530D01*
X-345507Y369583D01*
X-345598Y369632D01*
X-345612Y369646D01*
X-345629Y369656D01*
X-345696Y369735D01*
X-345767Y369810D01*
X-345776Y369828D01*
X-345789Y369843D01*
X-345827Y369939D01*
X-345871Y370033D01*
X-345873Y370053D01*
X-345881Y370071D01*
X-345899Y370238D01*
X-345899Y371001D01*
X-345901Y371001D01*
X-345901Y370238D01*
X-345904Y370218D01*
X-345902Y370199D01*
X-345924Y370097D01*
X-345941Y369995D01*
X-345950Y369978D01*
X-345954Y369958D01*
X-346007Y369869D01*
X-346056Y369778D01*
X-346070Y369764D01*
X-346080Y369747D01*
X-346159Y369680D01*
X-346234Y369609D01*
X-346252Y369600D01*
X-346267Y369587D01*
X-346363Y369548D01*
X-346457Y369505D01*
X-346477Y369503D01*
X-346495Y369495D01*
X-346662Y369477D01*
X-357331Y369477D01*
X-357331Y366265D01*
X-354757Y363691D01*
X-354730Y363654D01*
X-354696Y363623D01*
X-354658Y363555D01*
X-354613Y363491D01*
X-354600Y363448D01*
X-354577Y363407D01*
X-354564Y363331D01*
X-354541Y363256D01*
X-354542Y363210D01*
X-354534Y363165D01*
X-354545Y363088D01*
X-354547Y363010D01*
X-354563Y362967D01*
X-354570Y362922D01*
X-354605Y362853D01*
X-354632Y362779D01*
X-354660Y362744D01*
X-354681Y362703D01*
X-354737Y362648D01*
X-354785Y362587D01*
X-354824Y362563D01*
X-354857Y362530D01*
X-354976Y362464D01*
X-354992Y362454D01*
X-354997Y362453D01*
X-355004Y362450D01*
X-356691Y361750D01*
X-358808Y359634D01*
X-358882Y359581D01*
X-358952Y359521D01*
X-358982Y359509D01*
X-359008Y359490D01*
X-359095Y359463D01*
X-359180Y359429D01*
X-359221Y359425D01*
X-359243Y359418D01*
X-359275Y359419D01*
X-359346Y359411D01*
X-400606Y359411D01*
X-400696Y359425D01*
X-400787Y359433D01*
X-400817Y359445D01*
X-400849Y359450D01*
X-400929Y359493D01*
X-401013Y359529D01*
X-401045Y359555D01*
X-401066Y359566D01*
X-401088Y359589D01*
X-401144Y359634D01*
X-403184Y361674D01*
X-406919Y363221D01*
X-431281Y363221D01*
X-435016Y361674D01*
X-437874Y358816D01*
X-439421Y355081D01*
X-439421Y330719D01*
X-437874Y326984D01*
X-435016Y324126D01*
X-431281Y322579D01*
X-406919Y322579D01*
X-403184Y324126D01*
X-401144Y326166D01*
X-401070Y326219D01*
X-401001Y326279D01*
X-400971Y326291D01*
X-400944Y326310D01*
X-400858Y326337D01*
X-400773Y326371D01*
X-400732Y326375D01*
X-400709Y326382D01*
X-400677Y326381D01*
X-400606Y326389D01*
X-363172Y326389D01*
X-363152Y326386D01*
X-363133Y326388D01*
X-363031Y326366D01*
X-362929Y326350D01*
X-362912Y326340D01*
X-362892Y326336D01*
X-362803Y326283D01*
X-362712Y326234D01*
X-362698Y326220D01*
X-362681Y326210D01*
X-362614Y326131D01*
X-362542Y326056D01*
X-362534Y326038D01*
X-362521Y326023D01*
X-362482Y325927D01*
X-362439Y325833D01*
X-362437Y325813D01*
X-362429Y325795D01*
X-362411Y325628D01*
X-362411Y267616D01*
X-359897Y261547D01*
X-338353Y240003D01*
X-332284Y237489D01*
X-321098Y237489D01*
X-321028Y237478D01*
X-320956Y237476D01*
X-320907Y237458D01*
X-320855Y237450D01*
X-320792Y237416D01*
X-320725Y237391D01*
X-320684Y237359D01*
X-320638Y237334D01*
X-320589Y237283D01*
X-320533Y237238D01*
X-320505Y237194D01*
X-320469Y237156D01*
X-320439Y237091D01*
X-320400Y237031D01*
X-320387Y236980D01*
X-320365Y236933D01*
X-320357Y236862D01*
X-320340Y236792D01*
X-320344Y236740D01*
X-320338Y236689D01*
X-320353Y236618D01*
X-320359Y236547D01*
X-320379Y236499D01*
X-320390Y236448D01*
X-320427Y236387D01*
X-320455Y236321D01*
X-320500Y236265D01*
X-320516Y236237D01*
X-320534Y236222D01*
X-320560Y236190D01*
X-341245Y215504D01*
X-341246Y215504D01*
X-345997Y210753D01*
X-348511Y204684D01*
X-348511Y169322D01*
X-348514Y169302D01*
X-348512Y169283D01*
X-348534Y169181D01*
X-348550Y169079D01*
X-348560Y169062D01*
X-348564Y169042D01*
X-348617Y168953D01*
X-348666Y168862D01*
X-348680Y168848D01*
X-348690Y168831D01*
X-348769Y168764D01*
X-348844Y168692D01*
X-348862Y168684D01*
X-348877Y168671D01*
X-348973Y168632D01*
X-349067Y168589D01*
X-349087Y168587D01*
X-349105Y168579D01*
X-349272Y168561D01*
X-357921Y168561D01*
X-360002Y167699D01*
X-360066Y167684D01*
X-360127Y167659D01*
X-360210Y167650D01*
X-360242Y167643D01*
X-360261Y167644D01*
X-360294Y167641D01*
X-399538Y167641D01*
X-399653Y167660D01*
X-399769Y167677D01*
X-399775Y167679D01*
X-399781Y167680D01*
X-399883Y167735D01*
X-399988Y167788D01*
X-399993Y167793D01*
X-399998Y167796D01*
X-400078Y167880D01*
X-400160Y167964D01*
X-400164Y167970D01*
X-400167Y167974D01*
X-400175Y167991D01*
X-400241Y168111D01*
X-400326Y168316D01*
X-403184Y171174D01*
X-406919Y172721D01*
X-431281Y172721D01*
X-435016Y171174D01*
X-437874Y168316D01*
X-439421Y164581D01*
X-439421Y140219D01*
X-437874Y136484D01*
X-435016Y133626D01*
X-431281Y132079D01*
X-406919Y132079D01*
X-403184Y133626D01*
X-400326Y136484D01*
X-400241Y136689D01*
X-400180Y136789D01*
X-400120Y136889D01*
X-400115Y136893D01*
X-400112Y136898D01*
X-400022Y136973D01*
X-399933Y137049D01*
X-399927Y137051D01*
X-399922Y137055D01*
X-399814Y137097D01*
X-399705Y137141D01*
X-399697Y137142D01*
X-399693Y137143D01*
X-399674Y137144D01*
X-399538Y137159D01*
X-361149Y137159D01*
X-361084Y137149D01*
X-361018Y137148D01*
X-360938Y137125D01*
X-360906Y137120D01*
X-360889Y137110D01*
X-360857Y137101D01*
X-360032Y136759D01*
X-359328Y136759D01*
X-359263Y136749D01*
X-359198Y136748D01*
X-359118Y136725D01*
X-359085Y136720D01*
X-359068Y136710D01*
X-359037Y136701D01*
X-357921Y136239D01*
X-345879Y136239D01*
X-343191Y137353D01*
X-343103Y137373D01*
X-343016Y137402D01*
X-342983Y137401D01*
X-342952Y137409D01*
X-342861Y137400D01*
X-342770Y137399D01*
X-342730Y137388D01*
X-342707Y137386D01*
X-342678Y137372D01*
X-342609Y137353D01*
X-339921Y136239D01*
X-327879Y136239D01*
X-324144Y137786D01*
X-321286Y140644D01*
X-319739Y144379D01*
X-319739Y149596D01*
X-319725Y149686D01*
X-319717Y149777D01*
X-319705Y149807D01*
X-319700Y149838D01*
X-319657Y149919D01*
X-319621Y150003D01*
X-319595Y150035D01*
X-319584Y150056D01*
X-319561Y150078D01*
X-319516Y150134D01*
X-318003Y151647D01*
X-315489Y157716D01*
X-315489Y194246D01*
X-315475Y194336D01*
X-315467Y194427D01*
X-315455Y194456D01*
X-315450Y194488D01*
X-315407Y194569D01*
X-315371Y194653D01*
X-315345Y194685D01*
X-315334Y194706D01*
X-315311Y194728D01*
X-315266Y194784D01*
X-304830Y205220D01*
X-304772Y205262D01*
X-304720Y205311D01*
X-304673Y205333D01*
X-304631Y205364D01*
X-304562Y205385D01*
X-304497Y205415D01*
X-304445Y205421D01*
X-304395Y205436D01*
X-304324Y205434D01*
X-304253Y205442D01*
X-304202Y205431D01*
X-304150Y205430D01*
X-304082Y205405D01*
X-304012Y205390D01*
X-303967Y205363D01*
X-303919Y205345D01*
X-303863Y205300D01*
X-303801Y205264D01*
X-303767Y205224D01*
X-303727Y205191D01*
X-303688Y205131D01*
X-303641Y205077D01*
X-303622Y205028D01*
X-303594Y204985D01*
X-303576Y204915D01*
X-303549Y204848D01*
X-303541Y204777D01*
X-303533Y204746D01*
X-303535Y204723D01*
X-303531Y204682D01*
X-303531Y199663D01*
X-300824Y193128D01*
X-300004Y192308D01*
X-299992Y192292D01*
X-299977Y192280D01*
X-299921Y192192D01*
X-299861Y192109D01*
X-299855Y192090D01*
X-299844Y192073D01*
X-299819Y191972D01*
X-299788Y191873D01*
X-299789Y191854D01*
X-299784Y191834D01*
X-299792Y191731D01*
X-299795Y191628D01*
X-299801Y191609D01*
X-299803Y191589D01*
X-299843Y191494D01*
X-299879Y191397D01*
X-299891Y191381D01*
X-299899Y191363D01*
X-300004Y191232D01*
X-303364Y187872D01*
X-306071Y181337D01*
X-306071Y174263D01*
X-303364Y167728D01*
X-300004Y164368D01*
X-299992Y164352D01*
X-299977Y164340D01*
X-299921Y164252D01*
X-299861Y164169D01*
X-299855Y164150D01*
X-299844Y164133D01*
X-299819Y164032D01*
X-299788Y163933D01*
X-299789Y163914D01*
X-299784Y163894D01*
X-299792Y163791D01*
X-299795Y163688D01*
X-299801Y163669D01*
X-299803Y163649D01*
X-299843Y163554D01*
X-299879Y163457D01*
X-299891Y163441D01*
X-299899Y163423D01*
X-300004Y163292D01*
X-300824Y162472D01*
X-303531Y155937D01*
X-303531Y148863D01*
X-300824Y142328D01*
X-300004Y141508D01*
X-299992Y141492D01*
X-299977Y141480D01*
X-299921Y141392D01*
X-299861Y141309D01*
X-299855Y141290D01*
X-299844Y141273D01*
X-299819Y141172D01*
X-299788Y141073D01*
X-299789Y141054D01*
X-299784Y141034D01*
X-299792Y140931D01*
X-299795Y140828D01*
X-299801Y140809D01*
X-299803Y140789D01*
X-299843Y140694D01*
X-299879Y140597D01*
X-299891Y140581D01*
X-299899Y140563D01*
X-300004Y140432D01*
X-303364Y137072D01*
X-306071Y130537D01*
X-306071Y123463D01*
X-303364Y116928D01*
X-300004Y113568D01*
X-299992Y113552D01*
X-299977Y113540D01*
X-299921Y113452D01*
X-299861Y113369D01*
X-299855Y113350D01*
X-299844Y113333D01*
X-299819Y113232D01*
X-299788Y113133D01*
X-299789Y113114D01*
X-299784Y113094D01*
X-299792Y112991D01*
X-299795Y112888D01*
X-299801Y112869D01*
X-299803Y112849D01*
X-299843Y112754D01*
X-299879Y112657D01*
X-299891Y112641D01*
X-299899Y112623D01*
X-300004Y112492D01*
X-300824Y111672D01*
X-303531Y105137D01*
X-303531Y98063D01*
X-300824Y91528D01*
X-300004Y90708D01*
X-299992Y90692D01*
X-299977Y90680D01*
X-299921Y90592D01*
X-299861Y90509D01*
X-299855Y90490D01*
X-299844Y90473D01*
X-299818Y90372D01*
X-299788Y90273D01*
X-299789Y90254D01*
X-299784Y90234D01*
X-299792Y90131D01*
X-299795Y90028D01*
X-299801Y90009D01*
X-299803Y89989D01*
X-299843Y89894D01*
X-299879Y89797D01*
X-299891Y89781D01*
X-299899Y89763D01*
X-300004Y89632D01*
X-303364Y86272D01*
X-306071Y79737D01*
X-306071Y72663D01*
X-303364Y66128D01*
X-300004Y62768D01*
X-299992Y62752D01*
X-299977Y62740D01*
X-299921Y62652D01*
X-299861Y62569D01*
X-299855Y62550D01*
X-299844Y62533D01*
X-299819Y62432D01*
X-299788Y62333D01*
X-299789Y62314D01*
X-299784Y62294D01*
X-299792Y62191D01*
X-299795Y62088D01*
X-299801Y62069D01*
X-299803Y62049D01*
X-299843Y61954D01*
X-299879Y61857D01*
X-299891Y61841D01*
X-299899Y61823D01*
X-300004Y61692D01*
X-300824Y60872D01*
X-303531Y54337D01*
X-303531Y47263D01*
X-300824Y40728D01*
X-295822Y35726D01*
X-289287Y33019D01*
X-266973Y33019D01*
G37*
%LPD*%
%LPC*%
G36*
X-402956Y685039D02*
X-402956Y685039D01*
X-396302Y686822D01*
X-390337Y690266D01*
X-385466Y695137D01*
X-382022Y701102D01*
X-380239Y707756D01*
X-380239Y714644D01*
X-382022Y721298D01*
X-385466Y727263D01*
X-390337Y732134D01*
X-396302Y735578D01*
X-402956Y737361D01*
X-409844Y737361D01*
X-416498Y735578D01*
X-422463Y732134D01*
X-427334Y727263D01*
X-430778Y721298D01*
X-432561Y714644D01*
X-432561Y707756D01*
X-430778Y701102D01*
X-427334Y695137D01*
X-422463Y690266D01*
X-416498Y686822D01*
X-409844Y685039D01*
X-402956Y685039D01*
G37*
%LPD*%
%LPC*%
G36*
X-123556Y685039D02*
X-123556Y685039D01*
X-116902Y686822D01*
X-110937Y690266D01*
X-106066Y695137D01*
X-102622Y701102D01*
X-100839Y707756D01*
X-100839Y714644D01*
X-102622Y721298D01*
X-106066Y727263D01*
X-110937Y732134D01*
X-116902Y735578D01*
X-123556Y737361D01*
X-130444Y737361D01*
X-137098Y735578D01*
X-143063Y732134D01*
X-147934Y727263D01*
X-151378Y721298D01*
X-153161Y714644D01*
X-153161Y707756D01*
X-151378Y701102D01*
X-147934Y695137D01*
X-143063Y690266D01*
X-137098Y686822D01*
X-130444Y685039D01*
X-123556Y685039D01*
G37*
%LPD*%
%LPC*%
G36*
X-402956Y24639D02*
X-402956Y24639D01*
X-396302Y26422D01*
X-390337Y29866D01*
X-385466Y34737D01*
X-382022Y40702D01*
X-380239Y47356D01*
X-380239Y54244D01*
X-382022Y60898D01*
X-385466Y66863D01*
X-390337Y71734D01*
X-396302Y75178D01*
X-402956Y76961D01*
X-409844Y76961D01*
X-416498Y75178D01*
X-422463Y71734D01*
X-427334Y66863D01*
X-430778Y60898D01*
X-432561Y54244D01*
X-432561Y47356D01*
X-430778Y40702D01*
X-427334Y34737D01*
X-422463Y29866D01*
X-416498Y26422D01*
X-409844Y24639D01*
X-402956Y24639D01*
G37*
%LPD*%
%LPC*%
G36*
X-47356Y24639D02*
X-47356Y24639D01*
X-40702Y26422D01*
X-34737Y29866D01*
X-29866Y34737D01*
X-26422Y40702D01*
X-24639Y47356D01*
X-24639Y54244D01*
X-26422Y60898D01*
X-29866Y66863D01*
X-34737Y71734D01*
X-40702Y75178D01*
X-47356Y76961D01*
X-54244Y76961D01*
X-60898Y75178D01*
X-66863Y71734D01*
X-71734Y66863D01*
X-75178Y60898D01*
X-76961Y54244D01*
X-76961Y47356D01*
X-75178Y40702D01*
X-71734Y34737D01*
X-66863Y29866D01*
X-60898Y26422D01*
X-54244Y24639D01*
X-47356Y24639D01*
G37*
%LPD*%
%LPC*%
G36*
X-54863Y280923D02*
X-54863Y280923D01*
X-54863Y289561D01*
X-61760Y289561D01*
X-63339Y289311D01*
X-64860Y288816D01*
X-66285Y288090D01*
X-67579Y287150D01*
X-68710Y286019D01*
X-69650Y284725D01*
X-70376Y283300D01*
X-70871Y281779D01*
X-71006Y280923D01*
X-54863Y280923D01*
G37*
%LPD*%
%LPC*%
G36*
X-282193Y280923D02*
X-282193Y280923D01*
X-282193Y289561D01*
X-289090Y289561D01*
X-290669Y289311D01*
X-292190Y288816D01*
X-293615Y288090D01*
X-294909Y287150D01*
X-296040Y286019D01*
X-296980Y284725D01*
X-297706Y283300D01*
X-298201Y281779D01*
X-298336Y280923D01*
X-282193Y280923D01*
G37*
%LPD*%
%LPC*%
G36*
X-263004Y280923D02*
X-263004Y280923D01*
X-263139Y281779D01*
X-263634Y283300D01*
X-264360Y284725D01*
X-265300Y286019D01*
X-266431Y287150D01*
X-267725Y288090D01*
X-269150Y288816D01*
X-270671Y289311D01*
X-272250Y289561D01*
X-279147Y289561D01*
X-279147Y280923D01*
X-263004Y280923D01*
G37*
%LPD*%
%LPC*%
G36*
X-35674Y280923D02*
X-35674Y280923D01*
X-35809Y281779D01*
X-36304Y283300D01*
X-37030Y284725D01*
X-37970Y286019D01*
X-39101Y287150D01*
X-40395Y288090D01*
X-41820Y288816D01*
X-43341Y289311D01*
X-44920Y289561D01*
X-51817Y289561D01*
X-51817Y280923D01*
X-35674Y280923D01*
G37*
%LPD*%
%LPC*%
G36*
X-51053Y523239D02*
X-51053Y523239D01*
X-51053Y531877D01*
X-67196Y531877D01*
X-67061Y531021D01*
X-66566Y529500D01*
X-65840Y528075D01*
X-64900Y526781D01*
X-63769Y525650D01*
X-62475Y524710D01*
X-61050Y523984D01*
X-59529Y523489D01*
X-57950Y523239D01*
X-51053Y523239D01*
G37*
%LPD*%
%LPC*%
G36*
X-41110Y523239D02*
X-41110Y523239D01*
X-39531Y523489D01*
X-38010Y523984D01*
X-36585Y524710D01*
X-35291Y525650D01*
X-34160Y526781D01*
X-33220Y528075D01*
X-32494Y529500D01*
X-31999Y531021D01*
X-31864Y531877D01*
X-48007Y531877D01*
X-48007Y523239D01*
X-41110Y523239D01*
G37*
%LPD*%
%LPC*%
G36*
X-420623Y379423D02*
X-420623Y379423D01*
X-420623Y390518D01*
X-422074Y390288D01*
X-423975Y389670D01*
X-425757Y388763D01*
X-427374Y387587D01*
X-428787Y386174D01*
X-429963Y384557D01*
X-430870Y382775D01*
X-431488Y380874D01*
X-431718Y379423D01*
X-420623Y379423D01*
G37*
%LPD*%
%LPC*%
G36*
X-420623Y188923D02*
X-420623Y188923D01*
X-420623Y200018D01*
X-422074Y199788D01*
X-423975Y199170D01*
X-425757Y198263D01*
X-427374Y197087D01*
X-428787Y195674D01*
X-429963Y194057D01*
X-430870Y192275D01*
X-431488Y190374D01*
X-431718Y188923D01*
X-420623Y188923D01*
G37*
%LPD*%
%LPC*%
G36*
X-406482Y379423D02*
X-406482Y379423D01*
X-406712Y380874D01*
X-407330Y382775D01*
X-408237Y384557D01*
X-409413Y386174D01*
X-410826Y387587D01*
X-412443Y388763D01*
X-414225Y389670D01*
X-416126Y390288D01*
X-417577Y390518D01*
X-417577Y379423D01*
X-406482Y379423D01*
G37*
%LPD*%
%LPC*%
G36*
X-420623Y376377D02*
X-420623Y376377D01*
X-431718Y376377D01*
X-431488Y374926D01*
X-430870Y373025D01*
X-429963Y371243D01*
X-428787Y369626D01*
X-427374Y368213D01*
X-425757Y367037D01*
X-423975Y366130D01*
X-422074Y365512D01*
X-420623Y365282D01*
X-420623Y376377D01*
G37*
%LPD*%
%LPC*%
G36*
X-406482Y188923D02*
X-406482Y188923D01*
X-406712Y190374D01*
X-407330Y192275D01*
X-408237Y194057D01*
X-409413Y195674D01*
X-410826Y197087D01*
X-412443Y198263D01*
X-414225Y199170D01*
X-416126Y199788D01*
X-417577Y200018D01*
X-417577Y188923D01*
X-406482Y188923D01*
G37*
%LPD*%
%LPC*%
G36*
X-420623Y185877D02*
X-420623Y185877D01*
X-431718Y185877D01*
X-431488Y184426D01*
X-430870Y182525D01*
X-429963Y180743D01*
X-428787Y179126D01*
X-427374Y177713D01*
X-425757Y176537D01*
X-423975Y175630D01*
X-422074Y175012D01*
X-420623Y174782D01*
X-420623Y185877D01*
G37*
%LPD*%
%LPC*%
G36*
X-416126Y365512D02*
X-416126Y365512D01*
X-414225Y366130D01*
X-412443Y367037D01*
X-410826Y368213D01*
X-409413Y369626D01*
X-408237Y371243D01*
X-407330Y373025D01*
X-406712Y374926D01*
X-406482Y376377D01*
X-417577Y376377D01*
X-417577Y365282D01*
X-416126Y365512D01*
G37*
%LPD*%
%LPC*%
G36*
X-416126Y175012D02*
X-416126Y175012D01*
X-414225Y175630D01*
X-412443Y176537D01*
X-410826Y177713D01*
X-409413Y179126D01*
X-408237Y180743D01*
X-407330Y182525D01*
X-406712Y184426D01*
X-406482Y185877D01*
X-417577Y185877D01*
X-417577Y174782D01*
X-416126Y175012D01*
G37*
%LPD*%
%LPC*%
G36*
X-347423Y372523D02*
X-347423Y372523D01*
X-347423Y382431D01*
X-350635Y382431D01*
X-357331Y375735D01*
X-357331Y372523D01*
X-347423Y372523D01*
G37*
%LPD*%
%LPC*%
G36*
X-334469Y372523D02*
X-334469Y372523D01*
X-334469Y375735D01*
X-341165Y382431D01*
X-344377Y382431D01*
X-344377Y372523D01*
X-334469Y372523D01*
G37*
%LPD*%
%LPC*%
G36*
X-419099Y377899D02*
X-419099Y377899D01*
X-419099Y377901D01*
X-419101Y377901D01*
X-419101Y377899D01*
X-419099Y377899D01*
G37*
%LPD*%
%LPC*%
G36*
X-419099Y187399D02*
X-419099Y187399D01*
X-419099Y187401D01*
X-419101Y187401D01*
X-419101Y187399D01*
X-419099Y187399D01*
G37*
%LPD*%
D10*
X-58420Y203200D02*
X-43180Y203200D01*
X-45720Y228600D02*
X-60960Y228600D01*
X-58420Y254000D02*
X-43180Y254000D01*
X-45720Y279400D02*
X-60960Y279400D01*
X-273050Y279400D02*
X-288290Y279400D01*
X-285750Y254000D02*
X-270510Y254000D01*
X-273050Y228600D02*
X-288290Y228600D01*
X-285750Y203200D02*
X-270510Y203200D01*
X-273050Y177800D02*
X-288290Y177800D01*
X-285750Y152400D02*
X-270510Y152400D01*
X-273050Y127000D02*
X-288290Y127000D01*
X-285750Y101600D02*
X-270510Y101600D01*
X-273050Y76200D02*
X-288290Y76200D01*
X-285750Y50800D02*
X-270510Y50800D01*
D11*
X-419100Y342900D03*
D12*
X-419100Y377900D03*
D11*
X-419100Y152400D03*
D12*
X-419100Y187400D03*
D10*
X-57150Y533400D02*
X-41910Y533400D01*
X-44450Y558800D02*
X-59690Y558800D01*
X-57150Y584200D02*
X-41910Y584200D01*
X-44450Y609600D02*
X-59690Y609600D01*
X-57150Y635000D02*
X-41910Y635000D01*
X-44450Y660400D02*
X-59690Y660400D01*
X-57150Y685800D02*
X-41910Y685800D01*
X-44450Y711200D02*
X-59690Y711200D01*
D13*
X-333900Y152400D03*
X-351900Y152400D03*
D14*
X-345900Y371000D03*
D15*
X-345900Y345600D03*
D16*
X-101200Y558800D02*
X-52070Y558800D01*
X-101200Y558800D02*
X-119000Y541000D01*
X-119000Y281000D01*
X-92000Y254000D01*
X-50800Y254000D01*
X-278130Y254000D02*
X-329000Y254000D01*
X-345900Y270900D02*
X-345900Y345600D01*
X-345900Y270900D02*
X-329000Y254000D01*
X-348600Y342900D02*
X-419100Y342900D01*
X-348600Y342900D02*
X-345900Y345600D01*
X-304800Y228600D02*
X-280670Y228600D01*
D17*
X-332000Y161000D02*
X-332000Y154300D01*
X-333900Y152400D01*
D16*
X-332000Y201400D02*
X-304800Y228600D01*
X-332000Y201400D02*
X-332000Y161000D01*
D18*
X-357400Y152400D02*
X-419100Y152400D01*
X-357400Y152400D02*
X-357000Y152000D01*
D17*
X-352300Y152000D01*
X-351900Y152400D01*
D16*
X-129800Y584200D02*
X-49530Y584200D01*
X-129800Y584200D02*
X-147000Y567000D01*
X-147000Y255000D01*
X-120000Y228000D01*
X-53940Y228000D01*
X-53340Y228600D01*
X-52070Y609600D02*
X-151400Y609600D01*
X-175000Y586000D01*
X-175000Y237000D01*
X-141000Y203000D01*
X-51000Y203000D01*
X-50800Y203200D01*
M02*
