G04 EAGLE Gerber RS-274X export*
G75*
%MOMM*%
%FSLAX34Y34*%
%LPD*%
%IN*%
%IPPOS*%
%AMOC8*
5,1,8,0,0,1.08239X$1,22.5*%
G01*
%ADD10C,0.254000*%


D10*
X0Y0D02*
X-457000Y0D01*
X-457200Y762000D01*
X0Y762000D01*
X0Y0D01*
X-422400Y710676D02*
X-422332Y709631D01*
X-422195Y708592D01*
X-421990Y707565D01*
X-421719Y706553D01*
X-421383Y705561D01*
X-420982Y704593D01*
X-420518Y703654D01*
X-419995Y702746D01*
X-419413Y701875D01*
X-418775Y701044D01*
X-418084Y700257D01*
X-417343Y699516D01*
X-416556Y698825D01*
X-415725Y698188D01*
X-414854Y697606D01*
X-413946Y697082D01*
X-413007Y696618D01*
X-412039Y696217D01*
X-411047Y695881D01*
X-410035Y695610D01*
X-409008Y695405D01*
X-407969Y695269D01*
X-406924Y695200D01*
X-405876Y695200D01*
X-404831Y695269D01*
X-403792Y695405D01*
X-402765Y695610D01*
X-401753Y695881D01*
X-400761Y696217D01*
X-399793Y696618D01*
X-398854Y697082D01*
X-397946Y697606D01*
X-397075Y698188D01*
X-396244Y698825D01*
X-395457Y699516D01*
X-394716Y700257D01*
X-394025Y701044D01*
X-393388Y701875D01*
X-392806Y702746D01*
X-392282Y703654D01*
X-391818Y704593D01*
X-391417Y705561D01*
X-391081Y706553D01*
X-390810Y707565D01*
X-390605Y708592D01*
X-390469Y709631D01*
X-390400Y710676D01*
X-390400Y711724D01*
X-390469Y712769D01*
X-390605Y713808D01*
X-390810Y714835D01*
X-391081Y715847D01*
X-391417Y716839D01*
X-391818Y717807D01*
X-392282Y718746D01*
X-392806Y719654D01*
X-393388Y720525D01*
X-394025Y721356D01*
X-394716Y722143D01*
X-395457Y722884D01*
X-396244Y723575D01*
X-397075Y724213D01*
X-397946Y724795D01*
X-398854Y725318D01*
X-399793Y725782D01*
X-400761Y726183D01*
X-401753Y726519D01*
X-402765Y726790D01*
X-403792Y726995D01*
X-404831Y727132D01*
X-405876Y727200D01*
X-406924Y727200D01*
X-407969Y727132D01*
X-409008Y726995D01*
X-410035Y726790D01*
X-411047Y726519D01*
X-412039Y726183D01*
X-413007Y725782D01*
X-413946Y725318D01*
X-414854Y724795D01*
X-415725Y724213D01*
X-416556Y723575D01*
X-417343Y722884D01*
X-418084Y722143D01*
X-418775Y721356D01*
X-419413Y720525D01*
X-419995Y719654D01*
X-420518Y718746D01*
X-420982Y717807D01*
X-421383Y716839D01*
X-421719Y715847D01*
X-421990Y714835D01*
X-422195Y713808D01*
X-422332Y712769D01*
X-422400Y711724D01*
X-422400Y710676D01*
X-66800Y710676D02*
X-66732Y709631D01*
X-66595Y708592D01*
X-66390Y707565D01*
X-66119Y706553D01*
X-65783Y705561D01*
X-65382Y704593D01*
X-64918Y703654D01*
X-64395Y702746D01*
X-63813Y701875D01*
X-63175Y701044D01*
X-62484Y700257D01*
X-61743Y699516D01*
X-60956Y698825D01*
X-60125Y698188D01*
X-59254Y697606D01*
X-58346Y697082D01*
X-57407Y696618D01*
X-56439Y696217D01*
X-55447Y695881D01*
X-54435Y695610D01*
X-53408Y695405D01*
X-52369Y695269D01*
X-51324Y695200D01*
X-50276Y695200D01*
X-49231Y695269D01*
X-48192Y695405D01*
X-47165Y695610D01*
X-46153Y695881D01*
X-45161Y696217D01*
X-44193Y696618D01*
X-43254Y697082D01*
X-42346Y697606D01*
X-41475Y698188D01*
X-40644Y698825D01*
X-39857Y699516D01*
X-39116Y700257D01*
X-38425Y701044D01*
X-37788Y701875D01*
X-37206Y702746D01*
X-36682Y703654D01*
X-36218Y704593D01*
X-35817Y705561D01*
X-35481Y706553D01*
X-35210Y707565D01*
X-35005Y708592D01*
X-34869Y709631D01*
X-34800Y710676D01*
X-34800Y711724D01*
X-34869Y712769D01*
X-35005Y713808D01*
X-35210Y714835D01*
X-35481Y715847D01*
X-35817Y716839D01*
X-36218Y717807D01*
X-36682Y718746D01*
X-37206Y719654D01*
X-37788Y720525D01*
X-38425Y721356D01*
X-39116Y722143D01*
X-39857Y722884D01*
X-40644Y723575D01*
X-41475Y724213D01*
X-42346Y724795D01*
X-43254Y725318D01*
X-44193Y725782D01*
X-45161Y726183D01*
X-46153Y726519D01*
X-47165Y726790D01*
X-48192Y726995D01*
X-49231Y727132D01*
X-50276Y727200D01*
X-51324Y727200D01*
X-52369Y727132D01*
X-53408Y726995D01*
X-54435Y726790D01*
X-55447Y726519D01*
X-56439Y726183D01*
X-57407Y725782D01*
X-58346Y725318D01*
X-59254Y724795D01*
X-60125Y724213D01*
X-60956Y723575D01*
X-61743Y722884D01*
X-62484Y722143D01*
X-63175Y721356D01*
X-63813Y720525D01*
X-64395Y719654D01*
X-64918Y718746D01*
X-65382Y717807D01*
X-65783Y716839D01*
X-66119Y715847D01*
X-66390Y714835D01*
X-66595Y713808D01*
X-66732Y712769D01*
X-66800Y711724D01*
X-66800Y710676D01*
X-66800Y50276D02*
X-66732Y49231D01*
X-66595Y48192D01*
X-66390Y47165D01*
X-66119Y46153D01*
X-65783Y45161D01*
X-65382Y44193D01*
X-64918Y43254D01*
X-64395Y42346D01*
X-63813Y41475D01*
X-63175Y40644D01*
X-62484Y39857D01*
X-61743Y39116D01*
X-60956Y38425D01*
X-60125Y37788D01*
X-59254Y37206D01*
X-58346Y36682D01*
X-57407Y36218D01*
X-56439Y35817D01*
X-55447Y35481D01*
X-54435Y35210D01*
X-53408Y35005D01*
X-52369Y34869D01*
X-51324Y34800D01*
X-50276Y34800D01*
X-49231Y34869D01*
X-48192Y35005D01*
X-47165Y35210D01*
X-46153Y35481D01*
X-45161Y35817D01*
X-44193Y36218D01*
X-43254Y36682D01*
X-42346Y37206D01*
X-41475Y37788D01*
X-40644Y38425D01*
X-39857Y39116D01*
X-39116Y39857D01*
X-38425Y40644D01*
X-37788Y41475D01*
X-37206Y42346D01*
X-36682Y43254D01*
X-36218Y44193D01*
X-35817Y45161D01*
X-35481Y46153D01*
X-35210Y47165D01*
X-35005Y48192D01*
X-34869Y49231D01*
X-34800Y50276D01*
X-34800Y51324D01*
X-34869Y52369D01*
X-35005Y53408D01*
X-35210Y54435D01*
X-35481Y55447D01*
X-35817Y56439D01*
X-36218Y57407D01*
X-36682Y58346D01*
X-37206Y59254D01*
X-37788Y60125D01*
X-38425Y60956D01*
X-39116Y61743D01*
X-39857Y62484D01*
X-40644Y63175D01*
X-41475Y63813D01*
X-42346Y64395D01*
X-43254Y64918D01*
X-44193Y65382D01*
X-45161Y65783D01*
X-46153Y66119D01*
X-47165Y66390D01*
X-48192Y66595D01*
X-49231Y66732D01*
X-50276Y66800D01*
X-51324Y66800D01*
X-52369Y66732D01*
X-53408Y66595D01*
X-54435Y66390D01*
X-55447Y66119D01*
X-56439Y65783D01*
X-57407Y65382D01*
X-58346Y64918D01*
X-59254Y64395D01*
X-60125Y63813D01*
X-60956Y63175D01*
X-61743Y62484D01*
X-62484Y61743D01*
X-63175Y60956D01*
X-63813Y60125D01*
X-64395Y59254D01*
X-64918Y58346D01*
X-65382Y57407D01*
X-65783Y56439D01*
X-66119Y55447D01*
X-66390Y54435D01*
X-66595Y53408D01*
X-66732Y52369D01*
X-66800Y51324D01*
X-66800Y50276D01*
X-422400Y50276D02*
X-422332Y49231D01*
X-422195Y48192D01*
X-421990Y47165D01*
X-421719Y46153D01*
X-421383Y45161D01*
X-420982Y44193D01*
X-420518Y43254D01*
X-419995Y42346D01*
X-419413Y41475D01*
X-418775Y40644D01*
X-418084Y39857D01*
X-417343Y39116D01*
X-416556Y38425D01*
X-415725Y37788D01*
X-414854Y37206D01*
X-413946Y36682D01*
X-413007Y36218D01*
X-412039Y35817D01*
X-411047Y35481D01*
X-410035Y35210D01*
X-409008Y35005D01*
X-407969Y34869D01*
X-406924Y34800D01*
X-405876Y34800D01*
X-404831Y34869D01*
X-403792Y35005D01*
X-402765Y35210D01*
X-401753Y35481D01*
X-400761Y35817D01*
X-399793Y36218D01*
X-398854Y36682D01*
X-397946Y37206D01*
X-397075Y37788D01*
X-396244Y38425D01*
X-395457Y39116D01*
X-394716Y39857D01*
X-394025Y40644D01*
X-393388Y41475D01*
X-392806Y42346D01*
X-392282Y43254D01*
X-391818Y44193D01*
X-391417Y45161D01*
X-391081Y46153D01*
X-390810Y47165D01*
X-390605Y48192D01*
X-390469Y49231D01*
X-390400Y50276D01*
X-390400Y51324D01*
X-390469Y52369D01*
X-390605Y53408D01*
X-390810Y54435D01*
X-391081Y55447D01*
X-391417Y56439D01*
X-391818Y57407D01*
X-392282Y58346D01*
X-392806Y59254D01*
X-393388Y60125D01*
X-394025Y60956D01*
X-394716Y61743D01*
X-395457Y62484D01*
X-396244Y63175D01*
X-397075Y63813D01*
X-397946Y64395D01*
X-398854Y64918D01*
X-399793Y65382D01*
X-400761Y65783D01*
X-401753Y66119D01*
X-402765Y66390D01*
X-403792Y66595D01*
X-404831Y66732D01*
X-405876Y66800D01*
X-406924Y66800D01*
X-407969Y66732D01*
X-409008Y66595D01*
X-410035Y66390D01*
X-411047Y66119D01*
X-412039Y65783D01*
X-413007Y65382D01*
X-413946Y64918D01*
X-414854Y64395D01*
X-415725Y63813D01*
X-416556Y63175D01*
X-417343Y62484D01*
X-418084Y61743D01*
X-418775Y60956D01*
X-419413Y60125D01*
X-419995Y59254D01*
X-420518Y58346D01*
X-420982Y57407D01*
X-421383Y56439D01*
X-421719Y55447D01*
X-421990Y54435D01*
X-422195Y53408D01*
X-422332Y52369D01*
X-422400Y51324D01*
X-422400Y50276D01*
X-280670Y662441D02*
X-280599Y661446D01*
X-280457Y660458D01*
X-280245Y659483D01*
X-279964Y658525D01*
X-279615Y657591D01*
X-279200Y656683D01*
X-278722Y655807D01*
X-278183Y654968D01*
X-277585Y654169D01*
X-276931Y653415D01*
X-276225Y652709D01*
X-275471Y652055D01*
X-274673Y651457D01*
X-273833Y650918D01*
X-272957Y650440D01*
X-272050Y650025D01*
X-271115Y649676D01*
X-270157Y649395D01*
X-269182Y649183D01*
X-268194Y649041D01*
X-267199Y648970D01*
X-266201Y648970D01*
X-265206Y649041D01*
X-264218Y649183D01*
X-263243Y649395D01*
X-262285Y649676D01*
X-261351Y650025D01*
X-260443Y650440D01*
X-259567Y650918D01*
X-258728Y651457D01*
X-257929Y652055D01*
X-257175Y652709D01*
X-256469Y653415D01*
X-255815Y654169D01*
X-255217Y654968D01*
X-254678Y655807D01*
X-254200Y656683D01*
X-253785Y657591D01*
X-253436Y658525D01*
X-253155Y659483D01*
X-252943Y660458D01*
X-252801Y661446D01*
X-252730Y662441D01*
X-252730Y663439D01*
X-252801Y664434D01*
X-252943Y665422D01*
X-253155Y666397D01*
X-253436Y667355D01*
X-253785Y668290D01*
X-254200Y669197D01*
X-254678Y670073D01*
X-255217Y670913D01*
X-255815Y671711D01*
X-256469Y672465D01*
X-257175Y673171D01*
X-257929Y673825D01*
X-258728Y674423D01*
X-259567Y674962D01*
X-260443Y675440D01*
X-261351Y675855D01*
X-262285Y676204D01*
X-263243Y676485D01*
X-264218Y676697D01*
X-265206Y676839D01*
X-266201Y676910D01*
X-267199Y676910D01*
X-268194Y676839D01*
X-269182Y676697D01*
X-270157Y676485D01*
X-271115Y676204D01*
X-272050Y675855D01*
X-272957Y675440D01*
X-273833Y674962D01*
X-274673Y674423D01*
X-275471Y673825D01*
X-276225Y673171D01*
X-276931Y672465D01*
X-277585Y671711D01*
X-278183Y670913D01*
X-278722Y670073D01*
X-279200Y669197D01*
X-279615Y668290D01*
X-279964Y667355D01*
X-280245Y666397D01*
X-280457Y665422D01*
X-280599Y664434D01*
X-280670Y663439D01*
X-280670Y662441D01*
X-280670Y459241D02*
X-280599Y458246D01*
X-280457Y457258D01*
X-280245Y456283D01*
X-279964Y455325D01*
X-279615Y454391D01*
X-279200Y453483D01*
X-278722Y452607D01*
X-278183Y451768D01*
X-277585Y450969D01*
X-276931Y450215D01*
X-276225Y449509D01*
X-275471Y448855D01*
X-274673Y448257D01*
X-273833Y447718D01*
X-272957Y447240D01*
X-272050Y446825D01*
X-271115Y446476D01*
X-270157Y446195D01*
X-269182Y445983D01*
X-268194Y445841D01*
X-267199Y445770D01*
X-266201Y445770D01*
X-265206Y445841D01*
X-264218Y445983D01*
X-263243Y446195D01*
X-262285Y446476D01*
X-261351Y446825D01*
X-260443Y447240D01*
X-259567Y447718D01*
X-258728Y448257D01*
X-257929Y448855D01*
X-257175Y449509D01*
X-256469Y450215D01*
X-255815Y450969D01*
X-255217Y451768D01*
X-254678Y452607D01*
X-254200Y453483D01*
X-253785Y454391D01*
X-253436Y455325D01*
X-253155Y456283D01*
X-252943Y457258D01*
X-252801Y458246D01*
X-252730Y459241D01*
X-252730Y460239D01*
X-252801Y461234D01*
X-252943Y462222D01*
X-253155Y463197D01*
X-253436Y464155D01*
X-253785Y465090D01*
X-254200Y465997D01*
X-254678Y466873D01*
X-255217Y467713D01*
X-255815Y468511D01*
X-256469Y469265D01*
X-257175Y469971D01*
X-257929Y470625D01*
X-258728Y471223D01*
X-259567Y471762D01*
X-260443Y472240D01*
X-261351Y472655D01*
X-262285Y473004D01*
X-263243Y473285D01*
X-264218Y473497D01*
X-265206Y473639D01*
X-266201Y473710D01*
X-267199Y473710D01*
X-268194Y473639D01*
X-269182Y473497D01*
X-270157Y473285D01*
X-271115Y473004D01*
X-272050Y472655D01*
X-272957Y472240D01*
X-273833Y471762D01*
X-274673Y471223D01*
X-275471Y470625D01*
X-276225Y469971D01*
X-276931Y469265D01*
X-277585Y468511D01*
X-278183Y467713D01*
X-278722Y466873D01*
X-279200Y465997D01*
X-279615Y465090D01*
X-279964Y464155D01*
X-280245Y463197D01*
X-280457Y462222D01*
X-280599Y461234D01*
X-280670Y460239D01*
X-280670Y459241D01*
M02*
