G04 EAGLE Gerber RS-274X export*
G75*
%MOMM*%
%FSLAX34Y34*%
%LPD*%
%INSilkscreen Bottom*%
%IPPOS*%
%AMOC8*
5,1,8,0,0,1.08239X$1,22.5*%
G01*
%ADD10C,0.152400*%
%ADD11C,0.025400*%


D10*
X339900Y146400D02*
X345900Y146400D01*
X345900Y158400D02*
X339900Y158400D01*
D11*
X341160Y144018D02*
X341160Y140208D01*
X341160Y144018D02*
X340102Y144018D01*
X340038Y144016D01*
X339974Y144010D01*
X339911Y144001D01*
X339849Y143987D01*
X339787Y143970D01*
X339727Y143949D01*
X339668Y143925D01*
X339610Y143897D01*
X339555Y143865D01*
X339501Y143831D01*
X339450Y143793D01*
X339400Y143752D01*
X339354Y143708D01*
X339310Y143662D01*
X339269Y143612D01*
X339231Y143561D01*
X339197Y143507D01*
X339165Y143452D01*
X339137Y143394D01*
X339113Y143335D01*
X339092Y143275D01*
X339075Y143213D01*
X339061Y143151D01*
X339052Y143088D01*
X339046Y143024D01*
X339044Y142960D01*
X339046Y142896D01*
X339052Y142832D01*
X339061Y142769D01*
X339075Y142707D01*
X339092Y142645D01*
X339113Y142585D01*
X339137Y142526D01*
X339165Y142468D01*
X339197Y142413D01*
X339231Y142359D01*
X339269Y142308D01*
X339310Y142258D01*
X339354Y142212D01*
X339400Y142168D01*
X339450Y142127D01*
X339501Y142089D01*
X339555Y142055D01*
X339610Y142023D01*
X339668Y141995D01*
X339727Y141971D01*
X339787Y141950D01*
X339849Y141933D01*
X339911Y141919D01*
X339974Y141910D01*
X340038Y141904D01*
X340102Y141902D01*
X340102Y141901D02*
X341160Y141901D01*
X339890Y141901D02*
X339044Y140208D01*
X337524Y143171D02*
X336465Y144018D01*
X336465Y140208D01*
X335407Y140208D02*
X337524Y140208D01*
M02*
