G04 EAGLE Gerber RS-274X export*
G75*
%MOMM*%
%FSLAX34Y34*%
%LPD*%
%INBottom Copper*%
%IPPOS*%
%AMOC8*
5,1,8,0,0,1.08239X$1,22.5*%
G01*
%ADD10R,0.800000X1.200000*%
%ADD11P,1.924489X8X292.500000*%
%ADD12C,1.778000*%
%ADD13R,0.900000X0.800000*%
%ADD14R,0.800000X0.900000*%
%ADD15R,1.200000X1.200000*%
%ADD16R,1.200000X0.800000*%
%ADD17C,1.676400*%
%ADD18C,1.524000*%
%ADD19R,1.600000X3.000000*%
%ADD20R,5.800000X6.200000*%
%ADD21C,3.000000*%
%ADD22R,2.032000X2.032000*%
%ADD23C,2.032000*%
%ADD24R,1.600000X2.700000*%
%ADD25C,2.184400*%
%ADD26R,1.270000X1.470000*%
%ADD27P,1.649562X8X292.500000*%
%ADD28P,1.649562X8X22.500000*%
%ADD29P,1.924489X8X22.500000*%
%ADD30C,2.286000*%
%ADD31C,1.930400*%
%ADD32R,1.930400X1.930400*%
%ADD33R,2.413000X2.413000*%
%ADD34C,2.413000*%
%ADD35C,2.540000*%
%ADD36C,1.778000*%
%ADD37C,0.812800*%
%ADD38C,1.016000*%
%ADD39C,1.270000*%
%ADD40C,1.500000*%
%ADD41C,0.406400*%
%ADD42C,1.905000*%
%ADD43C,1.905000*%
%ADD44C,0.609600*%
%ADD45C,0.254000*%

G36*
X-16658Y215142D02*
X-16658Y215142D01*
X-16677Y215140D01*
X-16779Y215162D01*
X-16881Y215179D01*
X-16898Y215188D01*
X-16918Y215192D01*
X-17007Y215245D01*
X-17098Y215294D01*
X-17112Y215308D01*
X-17129Y215318D01*
X-17196Y215397D01*
X-17268Y215472D01*
X-17276Y215490D01*
X-17289Y215505D01*
X-17328Y215601D01*
X-17371Y215695D01*
X-17373Y215715D01*
X-17381Y215733D01*
X-17399Y215900D01*
X-17399Y275579D01*
X-20551Y283187D01*
X-26481Y289117D01*
X-33938Y296574D01*
X-33938Y296575D01*
X-39868Y302505D01*
X-47477Y305656D01*
X-67209Y305656D01*
X-67274Y305667D01*
X-67339Y305667D01*
X-67419Y305691D01*
X-67452Y305696D01*
X-67469Y305705D01*
X-67501Y305714D01*
X-69882Y306701D01*
X-131318Y306701D01*
X-138926Y303549D01*
X-165049Y277426D01*
X-168201Y269818D01*
X-168201Y261582D01*
X-165049Y253974D01*
X-159226Y248151D01*
X-151618Y244999D01*
X-143382Y244999D01*
X-135774Y248151D01*
X-118848Y265076D01*
X-118774Y265129D01*
X-118705Y265189D01*
X-118675Y265201D01*
X-118649Y265220D01*
X-118562Y265247D01*
X-118477Y265281D01*
X-118436Y265285D01*
X-118414Y265292D01*
X-118381Y265291D01*
X-118310Y265299D01*
X-95215Y265299D01*
X-95151Y265289D01*
X-95085Y265288D01*
X-95005Y265265D01*
X-94973Y265260D01*
X-94955Y265250D01*
X-94924Y265241D01*
X-92542Y264255D01*
X-60484Y264255D01*
X-60394Y264240D01*
X-60303Y264233D01*
X-60274Y264220D01*
X-60242Y264215D01*
X-60161Y264172D01*
X-60077Y264137D01*
X-60045Y264111D01*
X-60024Y264100D01*
X-60002Y264077D01*
X-59946Y264032D01*
X-59024Y263109D01*
X-58971Y263035D01*
X-58911Y262966D01*
X-58899Y262936D01*
X-58880Y262910D01*
X-58853Y262823D01*
X-58819Y262738D01*
X-58815Y262697D01*
X-58808Y262675D01*
X-58809Y262642D01*
X-58801Y262571D01*
X-58801Y215900D01*
X-58804Y215880D01*
X-58802Y215861D01*
X-58824Y215759D01*
X-58840Y215657D01*
X-58850Y215640D01*
X-58854Y215620D01*
X-58907Y215531D01*
X-58956Y215440D01*
X-58970Y215426D01*
X-58980Y215409D01*
X-59059Y215342D01*
X-59134Y215271D01*
X-59152Y215262D01*
X-59167Y215249D01*
X-59263Y215210D01*
X-59357Y215167D01*
X-59377Y215165D01*
X-59395Y215157D01*
X-59562Y215139D01*
X-560578Y215139D01*
X-560598Y215142D01*
X-560617Y215140D01*
X-560719Y215162D01*
X-560821Y215179D01*
X-560838Y215188D01*
X-560858Y215192D01*
X-560947Y215245D01*
X-561038Y215294D01*
X-561052Y215308D01*
X-561069Y215318D01*
X-561136Y215397D01*
X-561208Y215472D01*
X-561216Y215490D01*
X-561229Y215505D01*
X-561268Y215601D01*
X-561311Y215695D01*
X-561313Y215715D01*
X-561321Y215733D01*
X-561339Y215900D01*
X-561339Y751078D01*
X-561337Y751090D01*
X-561338Y751098D01*
X-561337Y751105D01*
X-561338Y751117D01*
X-561316Y751219D01*
X-561300Y751321D01*
X-561290Y751338D01*
X-561286Y751358D01*
X-561233Y751447D01*
X-561184Y751538D01*
X-561170Y751552D01*
X-561160Y751569D01*
X-561081Y751636D01*
X-561006Y751708D01*
X-560988Y751716D01*
X-560973Y751729D01*
X-560877Y751768D01*
X-560783Y751811D01*
X-560763Y751813D01*
X-560745Y751821D01*
X-560578Y751839D01*
X-10922Y751839D01*
X-10902Y751836D01*
X-10883Y751838D01*
X-10781Y751816D01*
X-10679Y751800D01*
X-10662Y751790D01*
X-10642Y751786D01*
X-10553Y751733D01*
X-10462Y751684D01*
X-10448Y751670D01*
X-10431Y751660D01*
X-10364Y751581D01*
X-10292Y751506D01*
X-10284Y751488D01*
X-10271Y751473D01*
X-10232Y751377D01*
X-10189Y751283D01*
X-10187Y751263D01*
X-10179Y751245D01*
X-10161Y751078D01*
X-10161Y733928D01*
X-10176Y733834D01*
X-10185Y733739D01*
X-10196Y733713D01*
X-10200Y733685D01*
X-10245Y733601D01*
X-10283Y733514D01*
X-10302Y733493D01*
X-10316Y733468D01*
X-10385Y733402D01*
X-10449Y733332D01*
X-10473Y733318D01*
X-10494Y733298D01*
X-10580Y733258D01*
X-10664Y733212D01*
X-10691Y733207D01*
X-10717Y733195D01*
X-10812Y733184D01*
X-10905Y733167D01*
X-10933Y733171D01*
X-10961Y733168D01*
X-11055Y733188D01*
X-11149Y733201D01*
X-11181Y733216D01*
X-11202Y733220D01*
X-11230Y733237D01*
X-11303Y733269D01*
X-15302Y735578D01*
X-21956Y737361D01*
X-28844Y737361D01*
X-35498Y735578D01*
X-41463Y732134D01*
X-46334Y727263D01*
X-49778Y721298D01*
X-51561Y714644D01*
X-51561Y707756D01*
X-49778Y701102D01*
X-46334Y695137D01*
X-41463Y690266D01*
X-35498Y686822D01*
X-28844Y685039D01*
X-21956Y685039D01*
X-15302Y686822D01*
X-11303Y689131D01*
X-11214Y689165D01*
X-11127Y689205D01*
X-11099Y689208D01*
X-11073Y689218D01*
X-10977Y689222D01*
X-10883Y689232D01*
X-10855Y689226D01*
X-10827Y689227D01*
X-10735Y689200D01*
X-10642Y689180D01*
X-10618Y689166D01*
X-10591Y689158D01*
X-10513Y689103D01*
X-10431Y689054D01*
X-10413Y689032D01*
X-10390Y689016D01*
X-10333Y688940D01*
X-10271Y688867D01*
X-10261Y688841D01*
X-10244Y688818D01*
X-10215Y688727D01*
X-10179Y688639D01*
X-10175Y688604D01*
X-10169Y688584D01*
X-10169Y688551D01*
X-10161Y688472D01*
X-10161Y523677D01*
X-10176Y523581D01*
X-10186Y523484D01*
X-10196Y523460D01*
X-10200Y523434D01*
X-10246Y523349D01*
X-10286Y523259D01*
X-10303Y523240D01*
X-10316Y523217D01*
X-10386Y523150D01*
X-10452Y523078D01*
X-10475Y523066D01*
X-10494Y523048D01*
X-10582Y523007D01*
X-10668Y522960D01*
X-10693Y522955D01*
X-10717Y522944D01*
X-10814Y522933D01*
X-10910Y522916D01*
X-10936Y522920D01*
X-10961Y522917D01*
X-11056Y522938D01*
X-11153Y522952D01*
X-11176Y522964D01*
X-11202Y522969D01*
X-11285Y523019D01*
X-11372Y523063D01*
X-11391Y523082D01*
X-11413Y523095D01*
X-11476Y523169D01*
X-11544Y523239D01*
X-11560Y523267D01*
X-11573Y523282D01*
X-11585Y523313D01*
X-11625Y523386D01*
X-11815Y523843D01*
X-14637Y526665D01*
X-15600Y527064D01*
X-15617Y527075D01*
X-15636Y527080D01*
X-15721Y527139D01*
X-15809Y527194D01*
X-15822Y527209D01*
X-15838Y527221D01*
X-15900Y527304D01*
X-15966Y527383D01*
X-15973Y527402D01*
X-15985Y527418D01*
X-16017Y527516D01*
X-16054Y527613D01*
X-16055Y527633D01*
X-16061Y527652D01*
X-16060Y527755D01*
X-16064Y527859D01*
X-16059Y527878D01*
X-16059Y527898D01*
X-16012Y528059D01*
X-14097Y532681D01*
X-14097Y539199D01*
X-16591Y545220D01*
X-19473Y548102D01*
X-19485Y548118D01*
X-19500Y548130D01*
X-19556Y548218D01*
X-19617Y548301D01*
X-19622Y548320D01*
X-19633Y548337D01*
X-19659Y548438D01*
X-19689Y548537D01*
X-19688Y548556D01*
X-19693Y548576D01*
X-19685Y548679D01*
X-19683Y548782D01*
X-19676Y548801D01*
X-19674Y548821D01*
X-19634Y548916D01*
X-19598Y549013D01*
X-19586Y549029D01*
X-19578Y549047D01*
X-19473Y549178D01*
X-16591Y552060D01*
X-14097Y558081D01*
X-14097Y564599D01*
X-16591Y570620D01*
X-19473Y573502D01*
X-19485Y573518D01*
X-19500Y573530D01*
X-19556Y573618D01*
X-19617Y573701D01*
X-19622Y573720D01*
X-19633Y573737D01*
X-19659Y573838D01*
X-19689Y573937D01*
X-19688Y573956D01*
X-19693Y573976D01*
X-19685Y574079D01*
X-19683Y574182D01*
X-19676Y574201D01*
X-19674Y574221D01*
X-19634Y574316D01*
X-19598Y574413D01*
X-19586Y574429D01*
X-19578Y574447D01*
X-19473Y574578D01*
X-16591Y577460D01*
X-14097Y583481D01*
X-14097Y589999D01*
X-16591Y596020D01*
X-19473Y598902D01*
X-19485Y598918D01*
X-19500Y598930D01*
X-19556Y599018D01*
X-19617Y599101D01*
X-19622Y599120D01*
X-19633Y599137D01*
X-19659Y599238D01*
X-19689Y599337D01*
X-19688Y599356D01*
X-19693Y599376D01*
X-19685Y599479D01*
X-19683Y599582D01*
X-19676Y599601D01*
X-19674Y599621D01*
X-19634Y599716D01*
X-19598Y599813D01*
X-19586Y599829D01*
X-19578Y599847D01*
X-19473Y599978D01*
X-16591Y602860D01*
X-14097Y608881D01*
X-14097Y615399D01*
X-16591Y621420D01*
X-19473Y624302D01*
X-19485Y624318D01*
X-19500Y624330D01*
X-19556Y624418D01*
X-19617Y624501D01*
X-19622Y624520D01*
X-19633Y624537D01*
X-19659Y624638D01*
X-19689Y624737D01*
X-19688Y624756D01*
X-19693Y624776D01*
X-19685Y624879D01*
X-19683Y624982D01*
X-19676Y625001D01*
X-19674Y625021D01*
X-19634Y625116D01*
X-19598Y625213D01*
X-19586Y625229D01*
X-19578Y625247D01*
X-19473Y625378D01*
X-16591Y628260D01*
X-14097Y634281D01*
X-14097Y640799D01*
X-16591Y646820D01*
X-19473Y649702D01*
X-19485Y649718D01*
X-19500Y649730D01*
X-19556Y649818D01*
X-19617Y649901D01*
X-19622Y649920D01*
X-19633Y649937D01*
X-19659Y650038D01*
X-19689Y650137D01*
X-19688Y650156D01*
X-19693Y650176D01*
X-19685Y650279D01*
X-19683Y650382D01*
X-19676Y650401D01*
X-19674Y650421D01*
X-19634Y650516D01*
X-19598Y650613D01*
X-19586Y650629D01*
X-19578Y650647D01*
X-19473Y650778D01*
X-16591Y653660D01*
X-14097Y659681D01*
X-14097Y666199D01*
X-16591Y672220D01*
X-21200Y676829D01*
X-27221Y679323D01*
X-33739Y679323D01*
X-39760Y676829D01*
X-44369Y672220D01*
X-46863Y666199D01*
X-46863Y659681D01*
X-44369Y653660D01*
X-41487Y650778D01*
X-41475Y650762D01*
X-41460Y650750D01*
X-41404Y650662D01*
X-41343Y650579D01*
X-41338Y650560D01*
X-41327Y650543D01*
X-41302Y650442D01*
X-41271Y650343D01*
X-41272Y650324D01*
X-41267Y650304D01*
X-41275Y650201D01*
X-41277Y650098D01*
X-41284Y650079D01*
X-41286Y650059D01*
X-41326Y649964D01*
X-41362Y649867D01*
X-41374Y649851D01*
X-41382Y649833D01*
X-41487Y649702D01*
X-44369Y646820D01*
X-46863Y640799D01*
X-46863Y634281D01*
X-44369Y628260D01*
X-41487Y625378D01*
X-41475Y625362D01*
X-41460Y625350D01*
X-41404Y625262D01*
X-41343Y625179D01*
X-41338Y625160D01*
X-41327Y625143D01*
X-41302Y625042D01*
X-41271Y624943D01*
X-41272Y624924D01*
X-41267Y624904D01*
X-41275Y624801D01*
X-41277Y624698D01*
X-41284Y624679D01*
X-41286Y624659D01*
X-41326Y624564D01*
X-41362Y624467D01*
X-41374Y624451D01*
X-41382Y624433D01*
X-41487Y624302D01*
X-44369Y621420D01*
X-46863Y615399D01*
X-46863Y608881D01*
X-44369Y602860D01*
X-41487Y599978D01*
X-41475Y599962D01*
X-41460Y599950D01*
X-41404Y599862D01*
X-41343Y599779D01*
X-41338Y599760D01*
X-41327Y599743D01*
X-41302Y599642D01*
X-41271Y599543D01*
X-41272Y599524D01*
X-41267Y599504D01*
X-41275Y599401D01*
X-41277Y599298D01*
X-41284Y599279D01*
X-41286Y599259D01*
X-41326Y599164D01*
X-41362Y599067D01*
X-41374Y599051D01*
X-41382Y599033D01*
X-41487Y598902D01*
X-44369Y596020D01*
X-46863Y589999D01*
X-46863Y583481D01*
X-44369Y577460D01*
X-42629Y575720D01*
X-42587Y575662D01*
X-42538Y575610D01*
X-42516Y575563D01*
X-42485Y575521D01*
X-42464Y575452D01*
X-42434Y575387D01*
X-42428Y575335D01*
X-42413Y575285D01*
X-42415Y575214D01*
X-42407Y575143D01*
X-42418Y575092D01*
X-42419Y575040D01*
X-42444Y574972D01*
X-42459Y574902D01*
X-42486Y574857D01*
X-42504Y574809D01*
X-42549Y574753D01*
X-42585Y574691D01*
X-42625Y574657D01*
X-42658Y574617D01*
X-42718Y574578D01*
X-42772Y574531D01*
X-42821Y574512D01*
X-42864Y574484D01*
X-42934Y574466D01*
X-43001Y574439D01*
X-43072Y574431D01*
X-43103Y574423D01*
X-43126Y574425D01*
X-43167Y574421D01*
X-65386Y574421D01*
X-65477Y574435D01*
X-65567Y574443D01*
X-65597Y574455D01*
X-65629Y574460D01*
X-65710Y574503D01*
X-65794Y574539D01*
X-65826Y574565D01*
X-65847Y574576D01*
X-65869Y574599D01*
X-65925Y574644D01*
X-68446Y577165D01*
X-68499Y577239D01*
X-68559Y577309D01*
X-68571Y577339D01*
X-68590Y577365D01*
X-68617Y577452D01*
X-68651Y577537D01*
X-68655Y577578D01*
X-68662Y577600D01*
X-68661Y577632D01*
X-68669Y577704D01*
X-68669Y584886D01*
X-68659Y584951D01*
X-68658Y585016D01*
X-68635Y585096D01*
X-68630Y585129D01*
X-68620Y585146D01*
X-68611Y585177D01*
X-67749Y587259D01*
X-67749Y598441D01*
X-68993Y601445D01*
X-68994Y601447D01*
X-69040Y601511D01*
X-69046Y601530D01*
X-69057Y601547D01*
X-69076Y601624D01*
X-69088Y601649D01*
X-69091Y601675D01*
X-69113Y601746D01*
X-69112Y601766D01*
X-69117Y601786D01*
X-69111Y601860D01*
X-69115Y601893D01*
X-69108Y601925D01*
X-69107Y601992D01*
X-69100Y602011D01*
X-69098Y602031D01*
X-69072Y602093D01*
X-69063Y602134D01*
X-69042Y602168D01*
X-69022Y602223D01*
X-69010Y602239D01*
X-69002Y602257D01*
X-68982Y602282D01*
X-67749Y605259D01*
X-67749Y616441D01*
X-68967Y619381D01*
X-68988Y619470D01*
X-69016Y619557D01*
X-69016Y619589D01*
X-69023Y619621D01*
X-69015Y619712D01*
X-69014Y619803D01*
X-69002Y619843D01*
X-69000Y619866D01*
X-68987Y619895D01*
X-68967Y619964D01*
X-68849Y620249D01*
X-68849Y631431D01*
X-70067Y634372D01*
X-72318Y636623D01*
X-75259Y637841D01*
X-77320Y637841D01*
X-77384Y637851D01*
X-77450Y637852D01*
X-77530Y637875D01*
X-77562Y637880D01*
X-77580Y637890D01*
X-77611Y637899D01*
X-80368Y639041D01*
X-103372Y639041D01*
X-105839Y638019D01*
X-105903Y638004D01*
X-105964Y637979D01*
X-106047Y637970D01*
X-106079Y637963D01*
X-106098Y637964D01*
X-106131Y637961D01*
X-106861Y637961D01*
X-107637Y637640D01*
X-107681Y637629D01*
X-107723Y637610D01*
X-107800Y637601D01*
X-107876Y637583D01*
X-107922Y637588D01*
X-107967Y637583D01*
X-108044Y637599D01*
X-108121Y637607D01*
X-108163Y637625D01*
X-108208Y637635D01*
X-108275Y637675D01*
X-108346Y637706D01*
X-108380Y637738D01*
X-108419Y637761D01*
X-108470Y637820D01*
X-108527Y637873D01*
X-108549Y637913D01*
X-108579Y637948D01*
X-108608Y638020D01*
X-108645Y638088D01*
X-108654Y638133D01*
X-108671Y638176D01*
X-108686Y638312D01*
X-108689Y638330D01*
X-108688Y638335D01*
X-108689Y638343D01*
X-108689Y684090D01*
X-108687Y684101D01*
X-108688Y684108D01*
X-108680Y684144D01*
X-108675Y684180D01*
X-108667Y684271D01*
X-108655Y684301D01*
X-108650Y684333D01*
X-108607Y684414D01*
X-108571Y684498D01*
X-108545Y684530D01*
X-108534Y684550D01*
X-108511Y684573D01*
X-108466Y684629D01*
X-107062Y686032D01*
X-104394Y692474D01*
X-104394Y699446D01*
X-107062Y705888D01*
X-111992Y710818D01*
X-118434Y713486D01*
X-125406Y713486D01*
X-131848Y710818D01*
X-136778Y705888D01*
X-139446Y699446D01*
X-139446Y692474D01*
X-136778Y686032D01*
X-135074Y684329D01*
X-135021Y684255D01*
X-134961Y684185D01*
X-134949Y684155D01*
X-134930Y684129D01*
X-134903Y684042D01*
X-134869Y683957D01*
X-134865Y683916D01*
X-134858Y683894D01*
X-134859Y683862D01*
X-134851Y683790D01*
X-134851Y632858D01*
X-134329Y631598D01*
X-134314Y631534D01*
X-134289Y631473D01*
X-134280Y631390D01*
X-134273Y631358D01*
X-134274Y631339D01*
X-134271Y631306D01*
X-134271Y629869D01*
X-133053Y626928D01*
X-130802Y624677D01*
X-127861Y623459D01*
X-127131Y623459D01*
X-127066Y623449D01*
X-127000Y623448D01*
X-126920Y623425D01*
X-126888Y623420D01*
X-126871Y623410D01*
X-126839Y623401D01*
X-124372Y622379D01*
X-119168Y622379D01*
X-116701Y623401D01*
X-116637Y623416D01*
X-116576Y623441D01*
X-116493Y623450D01*
X-116461Y623457D01*
X-116442Y623456D01*
X-116409Y623459D01*
X-115679Y623459D01*
X-114858Y623799D01*
X-114838Y623804D01*
X-114821Y623814D01*
X-114718Y623832D01*
X-114618Y623856D01*
X-114598Y623854D01*
X-114579Y623857D01*
X-114476Y623842D01*
X-114373Y623832D01*
X-114355Y623824D01*
X-114335Y623821D01*
X-114243Y623775D01*
X-114148Y623732D01*
X-114134Y623719D01*
X-114116Y623710D01*
X-114043Y623636D01*
X-113967Y623566D01*
X-113958Y623549D01*
X-113944Y623534D01*
X-113863Y623387D01*
X-113329Y622098D01*
X-113314Y622034D01*
X-113289Y621973D01*
X-113280Y621890D01*
X-113273Y621858D01*
X-113274Y621839D01*
X-113271Y621806D01*
X-113271Y620369D01*
X-112053Y617428D01*
X-109802Y615177D01*
X-106861Y613959D01*
X-106131Y613959D01*
X-106066Y613949D01*
X-106000Y613948D01*
X-105920Y613925D01*
X-105888Y613920D01*
X-105871Y613910D01*
X-105839Y613901D01*
X-103372Y612879D01*
X-96692Y612879D01*
X-96672Y612876D01*
X-96653Y612878D01*
X-96551Y612856D01*
X-96449Y612840D01*
X-96432Y612830D01*
X-96412Y612826D01*
X-96323Y612773D01*
X-96232Y612724D01*
X-96218Y612710D01*
X-96201Y612700D01*
X-96134Y612621D01*
X-96062Y612546D01*
X-96054Y612528D01*
X-96041Y612513D01*
X-96002Y612417D01*
X-95959Y612323D01*
X-95957Y612303D01*
X-95949Y612285D01*
X-95931Y612118D01*
X-95931Y609348D01*
X-95809Y609053D01*
X-95794Y608990D01*
X-95769Y608929D01*
X-95760Y608846D01*
X-95753Y608814D01*
X-95754Y608795D01*
X-95751Y608762D01*
X-95751Y605259D01*
X-94519Y602286D01*
X-94516Y602282D01*
X-94496Y602239D01*
X-94459Y602189D01*
X-94454Y602169D01*
X-94443Y602152D01*
X-94428Y602093D01*
X-94412Y602059D01*
X-94408Y602020D01*
X-94387Y601953D01*
X-94388Y601933D01*
X-94383Y601914D01*
X-94388Y601844D01*
X-94385Y601814D01*
X-94392Y601784D01*
X-94393Y601708D01*
X-94400Y601689D01*
X-94402Y601669D01*
X-94432Y601599D01*
X-94437Y601574D01*
X-94451Y601552D01*
X-94478Y601477D01*
X-94491Y601461D01*
X-94498Y601442D01*
X-94518Y601418D01*
X-95751Y598441D01*
X-95751Y587259D01*
X-94889Y585177D01*
X-94874Y585114D01*
X-94849Y585053D01*
X-94840Y584970D01*
X-94833Y584938D01*
X-94834Y584919D01*
X-94831Y584886D01*
X-94831Y569368D01*
X-92839Y564560D01*
X-78530Y550251D01*
X-73722Y548259D01*
X-43167Y548259D01*
X-43097Y548248D01*
X-43025Y548246D01*
X-42976Y548228D01*
X-42924Y548220D01*
X-42861Y548186D01*
X-42794Y548161D01*
X-42753Y548129D01*
X-42707Y548104D01*
X-42658Y548052D01*
X-42602Y548008D01*
X-42574Y547964D01*
X-42538Y547926D01*
X-42508Y547861D01*
X-42469Y547801D01*
X-42456Y547750D01*
X-42434Y547703D01*
X-42426Y547632D01*
X-42409Y547562D01*
X-42413Y547510D01*
X-42407Y547459D01*
X-42422Y547388D01*
X-42428Y547317D01*
X-42448Y547269D01*
X-42459Y547218D01*
X-42496Y547157D01*
X-42524Y547091D01*
X-42569Y547035D01*
X-42585Y547007D01*
X-42603Y546992D01*
X-42629Y546960D01*
X-44369Y545220D01*
X-46863Y539199D01*
X-46863Y532789D01*
X-46874Y532718D01*
X-46876Y532647D01*
X-46894Y532598D01*
X-46902Y532546D01*
X-46936Y532483D01*
X-46961Y532416D01*
X-46993Y532375D01*
X-47018Y532329D01*
X-47070Y532279D01*
X-47114Y532223D01*
X-47158Y532195D01*
X-47196Y532159D01*
X-47261Y532129D01*
X-47321Y532090D01*
X-47372Y532078D01*
X-47419Y532056D01*
X-47490Y532048D01*
X-47560Y532030D01*
X-47612Y532034D01*
X-47663Y532029D01*
X-47734Y532044D01*
X-47805Y532050D01*
X-47853Y532070D01*
X-47904Y532081D01*
X-47965Y532118D01*
X-48031Y532146D01*
X-48087Y532191D01*
X-48115Y532207D01*
X-48130Y532225D01*
X-48162Y532251D01*
X-50197Y534285D01*
X-53884Y535813D01*
X-73116Y535813D01*
X-76803Y534285D01*
X-87245Y523843D01*
X-88773Y520156D01*
X-88773Y498384D01*
X-87245Y494697D01*
X-79343Y486795D01*
X-75656Y485267D01*
X-53884Y485267D01*
X-50197Y486795D01*
X-48162Y488829D01*
X-48104Y488871D01*
X-48052Y488921D01*
X-48005Y488942D01*
X-47963Y488973D01*
X-47894Y488994D01*
X-47829Y489024D01*
X-47777Y489030D01*
X-47727Y489045D01*
X-47656Y489043D01*
X-47585Y489051D01*
X-47534Y489040D01*
X-47482Y489039D01*
X-47414Y489014D01*
X-47344Y488999D01*
X-47299Y488972D01*
X-47251Y488954D01*
X-47195Y488910D01*
X-47133Y488873D01*
X-47099Y488833D01*
X-47059Y488801D01*
X-47020Y488740D01*
X-46973Y488686D01*
X-46954Y488638D01*
X-46926Y488594D01*
X-46908Y488524D01*
X-46881Y488458D01*
X-46873Y488386D01*
X-46865Y488355D01*
X-46867Y488332D01*
X-46863Y488291D01*
X-46863Y481881D01*
X-44369Y475860D01*
X-41487Y472978D01*
X-41475Y472962D01*
X-41460Y472950D01*
X-41431Y472906D01*
X-41397Y472869D01*
X-41376Y472823D01*
X-41343Y472779D01*
X-41338Y472760D01*
X-41327Y472743D01*
X-41313Y472689D01*
X-41293Y472646D01*
X-41288Y472599D01*
X-41271Y472543D01*
X-41272Y472524D01*
X-41267Y472504D01*
X-41271Y472446D01*
X-41266Y472402D01*
X-41276Y472358D01*
X-41277Y472298D01*
X-41284Y472279D01*
X-41286Y472259D01*
X-41309Y472204D01*
X-41319Y472161D01*
X-41341Y472124D01*
X-41362Y472067D01*
X-41374Y472051D01*
X-41382Y472033D01*
X-41435Y471967D01*
X-41445Y471950D01*
X-41455Y471941D01*
X-41487Y471902D01*
X-42377Y471012D01*
X-42451Y470959D01*
X-42520Y470899D01*
X-42550Y470887D01*
X-42577Y470868D01*
X-42664Y470841D01*
X-42749Y470807D01*
X-42789Y470803D01*
X-42812Y470796D01*
X-42844Y470797D01*
X-42915Y470789D01*
X-75858Y470789D01*
X-79919Y469107D01*
X-98267Y450759D01*
X-99949Y446698D01*
X-99949Y425209D01*
X-99956Y425163D01*
X-99954Y425118D01*
X-99976Y425043D01*
X-99988Y424966D01*
X-100010Y424925D01*
X-100023Y424881D01*
X-100067Y424817D01*
X-100104Y424749D01*
X-100137Y424717D01*
X-100163Y424679D01*
X-100226Y424633D01*
X-100282Y424579D01*
X-100324Y424560D01*
X-100360Y424532D01*
X-100434Y424508D01*
X-100505Y424476D01*
X-100551Y424471D01*
X-100594Y424456D01*
X-100672Y424457D01*
X-100749Y424448D01*
X-100794Y424458D01*
X-100840Y424459D01*
X-100972Y424497D01*
X-100990Y424501D01*
X-100994Y424503D01*
X-101001Y424505D01*
X-105734Y426466D01*
X-112706Y426466D01*
X-119148Y423798D01*
X-124078Y418868D01*
X-126746Y412426D01*
X-126746Y407355D01*
X-126760Y407265D01*
X-126768Y407174D01*
X-126780Y407144D01*
X-126785Y407112D01*
X-126828Y407031D01*
X-126864Y406948D01*
X-126890Y406915D01*
X-126901Y406895D01*
X-126924Y406873D01*
X-126969Y406817D01*
X-159674Y374112D01*
X-159748Y374059D01*
X-159817Y373999D01*
X-159847Y373987D01*
X-159873Y373968D01*
X-159960Y373941D01*
X-160045Y373907D01*
X-160086Y373903D01*
X-160108Y373896D01*
X-160141Y373897D01*
X-160212Y373889D01*
X-222837Y373889D01*
X-222933Y373904D01*
X-223030Y373914D01*
X-223054Y373924D01*
X-223080Y373928D01*
X-223166Y373974D01*
X-223255Y374014D01*
X-223274Y374031D01*
X-223297Y374044D01*
X-223364Y374114D01*
X-223436Y374180D01*
X-223449Y374203D01*
X-223467Y374222D01*
X-223508Y374310D01*
X-223555Y374396D01*
X-223559Y374421D01*
X-223570Y374445D01*
X-223581Y374542D01*
X-223598Y374638D01*
X-223594Y374664D01*
X-223597Y374689D01*
X-223577Y374785D01*
X-223562Y374881D01*
X-223551Y374904D01*
X-223545Y374930D01*
X-223495Y375013D01*
X-223451Y375100D01*
X-223432Y375119D01*
X-223419Y375141D01*
X-223345Y375204D01*
X-223275Y375272D01*
X-223247Y375288D01*
X-223232Y375301D01*
X-223201Y375313D01*
X-223128Y375353D01*
X-220471Y376454D01*
X-216327Y380598D01*
X-204013Y392912D01*
X-203960Y392950D01*
X-203913Y392996D01*
X-203840Y393037D01*
X-203813Y393056D01*
X-203794Y393062D01*
X-203766Y393077D01*
X-200255Y394531D01*
X-200192Y394546D01*
X-200131Y394571D01*
X-200048Y394580D01*
X-200016Y394587D01*
X-199997Y394586D01*
X-199964Y394589D01*
X-181505Y394589D01*
X-176231Y396774D01*
X-172087Y400918D01*
X-167721Y405284D01*
X-167668Y405322D01*
X-167621Y405368D01*
X-167548Y405408D01*
X-167522Y405427D01*
X-167503Y405433D01*
X-167474Y405449D01*
X-161482Y407931D01*
X-156731Y412682D01*
X-154159Y418890D01*
X-154159Y425610D01*
X-156731Y431818D01*
X-161482Y436569D01*
X-167690Y439141D01*
X-174410Y439141D01*
X-180618Y436569D01*
X-185369Y431818D01*
X-187851Y425826D01*
X-187886Y425770D01*
X-187912Y425710D01*
X-187964Y425645D01*
X-187981Y425617D01*
X-187996Y425604D01*
X-188016Y425579D01*
X-190081Y423514D01*
X-190155Y423461D01*
X-190225Y423401D01*
X-190255Y423389D01*
X-190281Y423370D01*
X-190368Y423343D01*
X-190453Y423309D01*
X-190494Y423305D01*
X-190516Y423298D01*
X-190548Y423299D01*
X-190620Y423291D01*
X-199964Y423291D01*
X-200029Y423301D01*
X-200094Y423302D01*
X-200174Y423325D01*
X-200207Y423330D01*
X-200224Y423340D01*
X-200255Y423349D01*
X-205021Y425323D01*
X-211539Y425323D01*
X-217560Y422829D01*
X-222169Y418220D01*
X-224143Y413454D01*
X-224177Y413398D01*
X-224203Y413338D01*
X-224255Y413273D01*
X-224272Y413245D01*
X-224287Y413233D01*
X-224308Y413207D01*
X-234321Y403194D01*
X-234395Y403141D01*
X-234465Y403081D01*
X-234495Y403069D01*
X-234521Y403050D01*
X-234608Y403023D01*
X-234693Y402989D01*
X-234734Y402985D01*
X-234756Y402978D01*
X-234788Y402979D01*
X-234860Y402971D01*
X-240710Y402971D01*
X-240800Y402985D01*
X-240891Y402993D01*
X-240921Y403005D01*
X-240953Y403010D01*
X-241034Y403053D01*
X-241118Y403089D01*
X-241150Y403115D01*
X-241170Y403126D01*
X-241193Y403149D01*
X-241249Y403194D01*
X-241532Y403478D01*
X-247974Y406146D01*
X-254946Y406146D01*
X-261388Y403478D01*
X-263957Y400908D01*
X-264031Y400855D01*
X-264101Y400795D01*
X-264131Y400783D01*
X-264157Y400764D01*
X-264244Y400737D01*
X-264329Y400703D01*
X-264370Y400699D01*
X-264392Y400692D01*
X-264424Y400693D01*
X-264496Y400685D01*
X-266467Y400685D01*
X-266557Y400699D01*
X-266648Y400707D01*
X-266678Y400719D01*
X-266710Y400724D01*
X-266791Y400767D01*
X-266875Y400803D01*
X-266907Y400829D01*
X-266927Y400840D01*
X-266950Y400863D01*
X-267006Y400908D01*
X-273462Y407364D01*
X-273515Y407438D01*
X-273575Y407508D01*
X-273587Y407538D01*
X-273606Y407564D01*
X-273633Y407651D01*
X-273667Y407736D01*
X-273671Y407777D01*
X-273678Y407799D01*
X-273677Y407831D01*
X-273685Y407903D01*
X-273685Y561200D01*
X-275522Y565634D01*
X-279023Y569135D01*
X-285266Y575378D01*
X-289700Y577215D01*
X-298268Y577215D01*
X-298358Y577229D01*
X-298449Y577237D01*
X-298479Y577249D01*
X-298511Y577254D01*
X-298592Y577297D01*
X-298676Y577333D01*
X-298708Y577359D01*
X-298728Y577370D01*
X-298751Y577393D01*
X-298807Y577438D01*
X-299762Y578393D01*
X-305503Y580771D01*
X-326957Y580771D01*
X-332698Y578393D01*
X-337093Y573998D01*
X-339471Y568257D01*
X-339471Y562043D01*
X-337093Y556302D01*
X-335015Y554224D01*
X-334989Y554187D01*
X-334955Y554156D01*
X-334917Y554088D01*
X-334872Y554025D01*
X-334858Y553981D01*
X-334836Y553940D01*
X-334822Y553864D01*
X-334799Y553789D01*
X-334801Y553744D01*
X-334792Y553698D01*
X-334804Y553621D01*
X-334806Y553544D01*
X-334822Y553500D01*
X-334828Y553455D01*
X-334864Y553386D01*
X-334890Y553313D01*
X-334919Y553277D01*
X-334940Y553236D01*
X-334995Y553181D01*
X-335044Y553121D01*
X-335083Y553096D01*
X-335115Y553064D01*
X-335231Y553000D01*
X-337209Y551022D01*
X-337283Y550969D01*
X-337353Y550909D01*
X-337383Y550897D01*
X-337409Y550878D01*
X-337496Y550851D01*
X-337581Y550817D01*
X-337622Y550813D01*
X-337644Y550806D01*
X-337676Y550807D01*
X-337748Y550799D01*
X-346368Y550799D01*
X-350429Y549117D01*
X-367507Y532039D01*
X-369189Y527978D01*
X-369189Y372882D01*
X-367507Y368821D01*
X-338459Y339773D01*
X-334398Y338091D01*
X-136342Y338091D01*
X-132281Y339773D01*
X-79533Y392521D01*
X-77851Y396582D01*
X-77851Y400095D01*
X-77836Y400191D01*
X-77826Y400288D01*
X-77816Y400312D01*
X-77812Y400338D01*
X-77766Y400424D01*
X-77726Y400513D01*
X-77709Y400532D01*
X-77696Y400555D01*
X-77626Y400622D01*
X-77560Y400694D01*
X-77537Y400707D01*
X-77518Y400725D01*
X-77430Y400766D01*
X-77344Y400813D01*
X-77319Y400817D01*
X-77295Y400828D01*
X-77198Y400839D01*
X-77102Y400856D01*
X-77076Y400852D01*
X-77051Y400855D01*
X-76955Y400835D01*
X-76859Y400821D01*
X-76836Y400809D01*
X-76810Y400803D01*
X-76727Y400753D01*
X-76640Y400709D01*
X-76621Y400690D01*
X-76599Y400677D01*
X-76536Y400603D01*
X-76468Y400533D01*
X-76452Y400505D01*
X-76439Y400490D01*
X-76427Y400459D01*
X-76387Y400386D01*
X-75818Y399012D01*
X-70888Y394082D01*
X-64446Y391414D01*
X-57474Y391414D01*
X-51032Y394082D01*
X-48463Y396652D01*
X-48389Y396705D01*
X-48319Y396765D01*
X-48289Y396777D01*
X-48263Y396796D01*
X-48176Y396823D01*
X-48091Y396857D01*
X-48050Y396861D01*
X-48028Y396868D01*
X-47996Y396867D01*
X-47924Y396875D01*
X-41899Y396875D01*
X-41809Y396861D01*
X-41718Y396853D01*
X-41688Y396841D01*
X-41657Y396836D01*
X-41576Y396793D01*
X-41492Y396757D01*
X-41460Y396731D01*
X-41439Y396720D01*
X-41417Y396697D01*
X-41361Y396652D01*
X-39760Y395051D01*
X-33739Y392557D01*
X-27221Y392557D01*
X-21200Y395051D01*
X-16591Y399660D01*
X-14097Y405681D01*
X-14097Y412199D01*
X-16591Y418220D01*
X-19473Y421102D01*
X-19485Y421118D01*
X-19500Y421130D01*
X-19556Y421218D01*
X-19617Y421301D01*
X-19622Y421320D01*
X-19633Y421337D01*
X-19659Y421438D01*
X-19689Y421537D01*
X-19688Y421556D01*
X-19693Y421576D01*
X-19685Y421679D01*
X-19683Y421782D01*
X-19676Y421801D01*
X-19674Y421821D01*
X-19634Y421916D01*
X-19598Y422013D01*
X-19586Y422029D01*
X-19578Y422047D01*
X-19473Y422178D01*
X-16591Y425060D01*
X-14097Y431081D01*
X-14097Y437599D01*
X-16591Y443620D01*
X-19473Y446502D01*
X-19485Y446518D01*
X-19500Y446530D01*
X-19556Y446618D01*
X-19617Y446701D01*
X-19622Y446720D01*
X-19633Y446737D01*
X-19659Y446838D01*
X-19689Y446937D01*
X-19688Y446956D01*
X-19693Y446976D01*
X-19685Y447079D01*
X-19683Y447182D01*
X-19676Y447201D01*
X-19674Y447221D01*
X-19634Y447316D01*
X-19598Y447413D01*
X-19586Y447429D01*
X-19578Y447447D01*
X-19473Y447578D01*
X-16591Y450460D01*
X-14097Y456481D01*
X-14097Y462999D01*
X-16591Y469020D01*
X-19473Y471902D01*
X-19485Y471918D01*
X-19500Y471930D01*
X-19534Y471982D01*
X-19563Y472013D01*
X-19581Y472052D01*
X-19617Y472101D01*
X-19622Y472120D01*
X-19633Y472137D01*
X-19648Y472197D01*
X-19667Y472236D01*
X-19671Y472280D01*
X-19689Y472337D01*
X-19688Y472356D01*
X-19693Y472376D01*
X-19689Y472435D01*
X-19694Y472481D01*
X-19684Y472525D01*
X-19683Y472582D01*
X-19676Y472601D01*
X-19674Y472621D01*
X-19652Y472674D01*
X-19641Y472721D01*
X-19617Y472762D01*
X-19598Y472813D01*
X-19586Y472829D01*
X-19578Y472847D01*
X-19531Y472906D01*
X-19515Y472932D01*
X-19498Y472947D01*
X-19473Y472978D01*
X-16591Y475860D01*
X-14097Y481881D01*
X-14097Y488399D01*
X-15823Y492564D01*
X-15849Y492678D01*
X-15878Y492791D01*
X-15877Y492798D01*
X-15879Y492804D01*
X-15868Y492920D01*
X-15859Y493037D01*
X-15856Y493042D01*
X-15856Y493049D01*
X-15808Y493156D01*
X-15762Y493263D01*
X-15758Y493269D01*
X-15756Y493273D01*
X-15743Y493287D01*
X-15658Y493394D01*
X-11815Y497237D01*
X-11625Y497694D01*
X-11574Y497777D01*
X-11528Y497863D01*
X-11509Y497881D01*
X-11496Y497903D01*
X-11421Y497965D01*
X-11350Y498032D01*
X-11326Y498043D01*
X-11306Y498060D01*
X-11215Y498095D01*
X-11127Y498136D01*
X-11101Y498139D01*
X-11077Y498148D01*
X-10979Y498152D01*
X-10883Y498163D01*
X-10857Y498158D01*
X-10831Y498159D01*
X-10737Y498131D01*
X-10642Y498111D01*
X-10620Y498097D01*
X-10595Y498090D01*
X-10515Y498035D01*
X-10431Y497985D01*
X-10414Y497965D01*
X-10393Y497950D01*
X-10335Y497872D01*
X-10271Y497798D01*
X-10261Y497773D01*
X-10246Y497752D01*
X-10216Y497660D01*
X-10179Y497570D01*
X-10176Y497537D01*
X-10170Y497519D01*
X-10170Y497486D01*
X-10161Y497403D01*
X-10161Y215900D01*
X-10164Y215880D01*
X-10162Y215861D01*
X-10184Y215759D01*
X-10200Y215657D01*
X-10210Y215640D01*
X-10214Y215620D01*
X-10267Y215531D01*
X-10316Y215440D01*
X-10330Y215426D01*
X-10340Y215409D01*
X-10419Y215342D01*
X-10494Y215271D01*
X-10512Y215262D01*
X-10527Y215249D01*
X-10623Y215210D01*
X-10717Y215167D01*
X-10737Y215165D01*
X-10755Y215157D01*
X-10922Y215139D01*
X-16638Y215139D01*
X-16658Y215142D01*
G37*
%LPC*%
G36*
X-389680Y250539D02*
X-389680Y250539D01*
X-383472Y253111D01*
X-378721Y257862D01*
X-376149Y264070D01*
X-376149Y270790D01*
X-377208Y273347D01*
X-377219Y273391D01*
X-377238Y273433D01*
X-377247Y273510D01*
X-377265Y273586D01*
X-377260Y273632D01*
X-377265Y273677D01*
X-377249Y273754D01*
X-377241Y273831D01*
X-377223Y273873D01*
X-377213Y273918D01*
X-377173Y273985D01*
X-377141Y274056D01*
X-377110Y274090D01*
X-377087Y274129D01*
X-377028Y274180D01*
X-376975Y274237D01*
X-376935Y274259D01*
X-376900Y274289D01*
X-376828Y274318D01*
X-376760Y274355D01*
X-376714Y274364D01*
X-376672Y274381D01*
X-376536Y274396D01*
X-376517Y274399D01*
X-376513Y274398D01*
X-376505Y274399D01*
X-369382Y274399D01*
X-361774Y277551D01*
X-355951Y283374D01*
X-352799Y290982D01*
X-352799Y299218D01*
X-355951Y306826D01*
X-361774Y312649D01*
X-369382Y315801D01*
X-400238Y315801D01*
X-400258Y315804D01*
X-400277Y315802D01*
X-400379Y315824D01*
X-400481Y315840D01*
X-400498Y315850D01*
X-400518Y315854D01*
X-400607Y315907D01*
X-400698Y315956D01*
X-400712Y315970D01*
X-400729Y315980D01*
X-400796Y316059D01*
X-400868Y316134D01*
X-400876Y316152D01*
X-400889Y316167D01*
X-400928Y316263D01*
X-400971Y316357D01*
X-400973Y316377D01*
X-400981Y316395D01*
X-400999Y316562D01*
X-400999Y319071D01*
X-400985Y319161D01*
X-400977Y319252D01*
X-400965Y319281D01*
X-400960Y319313D01*
X-400917Y319394D01*
X-400881Y319478D01*
X-400855Y319510D01*
X-400844Y319531D01*
X-400821Y319553D01*
X-400776Y319609D01*
X-400567Y319818D01*
X-399349Y322759D01*
X-399349Y355941D01*
X-400567Y358882D01*
X-402818Y361133D01*
X-405759Y362351D01*
X-424941Y362351D01*
X-427882Y361133D01*
X-430133Y358882D01*
X-431351Y355941D01*
X-431351Y322759D01*
X-430133Y319818D01*
X-429924Y319609D01*
X-429871Y319535D01*
X-429811Y319466D01*
X-429799Y319435D01*
X-429780Y319409D01*
X-429753Y319322D01*
X-429719Y319237D01*
X-429715Y319196D01*
X-429708Y319174D01*
X-429709Y319142D01*
X-429701Y319071D01*
X-429701Y316562D01*
X-429704Y316542D01*
X-429702Y316523D01*
X-429724Y316421D01*
X-429740Y316319D01*
X-429750Y316302D01*
X-429754Y316282D01*
X-429807Y316193D01*
X-429856Y316102D01*
X-429870Y316088D01*
X-429880Y316071D01*
X-429959Y316004D01*
X-430034Y315932D01*
X-430052Y315924D01*
X-430067Y315911D01*
X-430163Y315872D01*
X-430257Y315829D01*
X-430277Y315827D01*
X-430295Y315819D01*
X-430462Y315801D01*
X-448856Y315801D01*
X-448952Y315816D01*
X-449049Y315826D01*
X-449073Y315836D01*
X-449099Y315840D01*
X-449184Y315886D01*
X-449274Y315926D01*
X-449293Y315943D01*
X-449316Y315956D01*
X-449383Y316026D01*
X-449455Y316092D01*
X-449467Y316115D01*
X-449485Y316134D01*
X-449526Y316222D01*
X-449573Y316308D01*
X-449578Y316333D01*
X-449589Y316357D01*
X-449600Y316454D01*
X-449617Y316550D01*
X-449613Y316576D01*
X-449616Y316601D01*
X-449595Y316697D01*
X-449581Y316793D01*
X-449569Y316816D01*
X-449564Y316842D01*
X-449514Y316925D01*
X-449470Y317012D01*
X-449451Y317031D01*
X-449438Y317053D01*
X-449364Y317116D01*
X-449294Y317184D01*
X-449266Y317200D01*
X-449251Y317213D01*
X-449220Y317225D01*
X-449147Y317265D01*
X-448418Y317567D01*
X-446167Y319818D01*
X-444949Y322759D01*
X-444949Y355941D01*
X-446167Y358882D01*
X-448418Y361133D01*
X-451359Y362351D01*
X-470541Y362351D01*
X-473482Y361133D01*
X-473650Y360965D01*
X-473708Y360923D01*
X-473760Y360874D01*
X-473807Y360852D01*
X-473849Y360821D01*
X-473918Y360800D01*
X-473983Y360770D01*
X-474035Y360764D01*
X-474085Y360749D01*
X-474156Y360751D01*
X-474227Y360743D01*
X-474278Y360754D01*
X-474330Y360755D01*
X-474398Y360780D01*
X-474468Y360795D01*
X-474513Y360822D01*
X-474561Y360840D01*
X-474617Y360885D01*
X-474679Y360921D01*
X-474713Y360961D01*
X-474753Y360994D01*
X-474792Y361054D01*
X-474839Y361108D01*
X-474858Y361157D01*
X-474886Y361200D01*
X-474904Y361270D01*
X-474931Y361337D01*
X-474939Y361408D01*
X-474947Y361439D01*
X-474945Y361462D01*
X-474949Y361503D01*
X-474949Y365253D01*
X-474946Y365273D01*
X-474948Y365292D01*
X-474926Y365394D01*
X-474910Y365496D01*
X-474900Y365513D01*
X-474896Y365533D01*
X-474843Y365622D01*
X-474794Y365713D01*
X-474780Y365727D01*
X-474770Y365744D01*
X-474691Y365811D01*
X-474616Y365883D01*
X-474598Y365891D01*
X-474583Y365904D01*
X-474487Y365943D01*
X-474393Y365986D01*
X-474373Y365988D01*
X-474355Y365996D01*
X-474188Y366014D01*
X-426179Y366014D01*
X-426114Y366004D01*
X-426049Y366003D01*
X-425969Y365980D01*
X-425936Y365975D01*
X-425919Y365965D01*
X-425888Y365956D01*
X-424495Y365379D01*
X-418785Y365379D01*
X-417392Y365956D01*
X-417329Y365971D01*
X-417268Y365996D01*
X-417185Y366005D01*
X-417153Y366012D01*
X-417134Y366011D01*
X-417101Y366014D01*
X-404682Y366014D01*
X-404029Y366285D01*
X-403940Y366306D01*
X-403853Y366334D01*
X-403820Y366334D01*
X-403789Y366341D01*
X-403698Y366333D01*
X-403607Y366332D01*
X-403567Y366320D01*
X-403544Y366318D01*
X-403515Y366305D01*
X-403446Y366285D01*
X-399726Y364744D01*
X-392754Y364744D01*
X-386312Y367412D01*
X-381382Y372342D01*
X-378714Y378784D01*
X-378714Y385756D01*
X-381382Y392198D01*
X-386312Y397128D01*
X-390944Y399046D01*
X-391044Y399108D01*
X-391144Y399168D01*
X-391148Y399172D01*
X-391153Y399176D01*
X-391228Y399265D01*
X-391304Y399355D01*
X-391306Y399360D01*
X-391310Y399365D01*
X-391352Y399473D01*
X-391396Y399583D01*
X-391397Y399590D01*
X-391398Y399595D01*
X-391399Y399613D01*
X-391414Y399749D01*
X-391414Y503368D01*
X-392729Y506542D01*
X-395158Y508971D01*
X-398332Y510286D01*
X-448946Y510286D01*
X-448966Y510289D01*
X-448985Y510287D01*
X-449087Y510309D01*
X-449189Y510325D01*
X-449206Y510335D01*
X-449226Y510339D01*
X-449315Y510392D01*
X-449406Y510441D01*
X-449420Y510455D01*
X-449437Y510465D01*
X-449504Y510544D01*
X-449576Y510619D01*
X-449584Y510637D01*
X-449597Y510652D01*
X-449636Y510748D01*
X-449679Y510842D01*
X-449681Y510862D01*
X-449689Y510880D01*
X-449707Y511047D01*
X-449707Y548096D01*
X-451235Y551783D01*
X-454057Y554605D01*
X-457744Y556133D01*
X-474436Y556133D01*
X-474673Y556035D01*
X-474717Y556024D01*
X-474759Y556005D01*
X-474836Y555996D01*
X-474912Y555978D01*
X-474958Y555983D01*
X-475003Y555978D01*
X-475080Y555994D01*
X-475157Y556001D01*
X-475199Y556020D01*
X-475244Y556030D01*
X-475311Y556070D01*
X-475382Y556101D01*
X-475416Y556133D01*
X-475455Y556156D01*
X-475506Y556215D01*
X-475563Y556268D01*
X-475585Y556308D01*
X-475615Y556343D01*
X-475644Y556415D01*
X-475681Y556483D01*
X-475690Y556528D01*
X-475707Y556571D01*
X-475722Y556707D01*
X-475725Y556725D01*
X-475724Y556730D01*
X-475725Y556738D01*
X-475725Y570445D01*
X-475711Y570535D01*
X-475703Y570626D01*
X-475691Y570656D01*
X-475686Y570687D01*
X-475643Y570768D01*
X-475607Y570852D01*
X-475581Y570884D01*
X-475570Y570905D01*
X-475547Y570927D01*
X-475502Y570983D01*
X-474967Y571518D01*
X-473749Y574459D01*
X-473749Y577844D01*
X-473739Y577909D01*
X-473738Y577974D01*
X-473715Y578054D01*
X-473710Y578087D01*
X-473700Y578104D01*
X-473691Y578136D01*
X-473685Y578150D01*
X-473685Y582950D01*
X-473691Y582964D01*
X-473706Y583028D01*
X-473731Y583089D01*
X-473740Y583172D01*
X-473747Y583204D01*
X-473746Y583223D01*
X-473749Y583256D01*
X-473749Y586641D01*
X-474311Y587997D01*
X-474321Y588041D01*
X-474340Y588083D01*
X-474349Y588160D01*
X-474367Y588236D01*
X-474363Y588282D01*
X-474368Y588327D01*
X-474351Y588404D01*
X-474344Y588481D01*
X-474325Y588523D01*
X-474315Y588568D01*
X-474275Y588635D01*
X-474244Y588706D01*
X-474213Y588740D01*
X-474189Y588779D01*
X-474130Y588830D01*
X-474077Y588887D01*
X-474037Y588909D01*
X-474002Y588939D01*
X-473930Y588968D01*
X-473862Y589005D01*
X-473817Y589014D01*
X-473774Y589031D01*
X-473638Y589046D01*
X-473620Y589049D01*
X-473615Y589048D01*
X-473607Y589049D01*
X-470659Y589049D01*
X-467718Y590267D01*
X-465467Y592518D01*
X-464249Y595459D01*
X-464249Y602060D01*
X-464238Y602131D01*
X-464236Y602202D01*
X-464218Y602251D01*
X-464210Y602303D01*
X-464176Y602366D01*
X-464151Y602433D01*
X-464119Y602474D01*
X-464094Y602520D01*
X-464042Y602569D01*
X-463998Y602625D01*
X-463954Y602654D01*
X-463916Y602689D01*
X-463851Y602720D01*
X-463791Y602758D01*
X-463740Y602771D01*
X-463693Y602793D01*
X-463622Y602801D01*
X-463552Y602818D01*
X-463500Y602814D01*
X-463449Y602820D01*
X-463378Y602805D01*
X-463307Y602799D01*
X-463259Y602779D01*
X-463208Y602768D01*
X-463147Y602731D01*
X-463081Y602703D01*
X-463025Y602658D01*
X-462997Y602642D01*
X-462982Y602624D01*
X-462950Y602598D01*
X-458601Y598249D01*
X-455958Y595606D01*
X-452644Y594233D01*
X-443893Y594233D01*
X-443828Y594223D01*
X-443763Y594222D01*
X-443683Y594199D01*
X-443650Y594194D01*
X-443633Y594184D01*
X-443602Y594175D01*
X-441631Y593359D01*
X-435372Y593359D01*
X-435352Y593356D01*
X-435333Y593358D01*
X-435231Y593336D01*
X-435129Y593320D01*
X-435112Y593310D01*
X-435092Y593306D01*
X-435003Y593253D01*
X-434912Y593204D01*
X-434898Y593190D01*
X-434881Y593180D01*
X-434814Y593101D01*
X-434742Y593026D01*
X-434734Y593008D01*
X-434721Y592993D01*
X-434682Y592897D01*
X-434639Y592803D01*
X-434637Y592783D01*
X-434629Y592765D01*
X-434611Y592598D01*
X-434611Y590246D01*
X-434621Y590181D01*
X-434622Y590116D01*
X-434645Y590036D01*
X-434650Y590003D01*
X-434660Y589986D01*
X-434669Y589954D01*
X-434675Y589940D01*
X-434675Y585140D01*
X-434669Y585126D01*
X-434654Y585062D01*
X-434629Y585001D01*
X-434620Y584918D01*
X-434613Y584886D01*
X-434614Y584867D01*
X-434611Y584834D01*
X-434611Y583193D01*
X-434625Y583103D01*
X-434633Y583012D01*
X-434645Y582982D01*
X-434650Y582950D01*
X-434693Y582870D01*
X-434729Y582786D01*
X-434755Y582754D01*
X-434766Y582733D01*
X-434789Y582711D01*
X-434834Y582655D01*
X-438868Y578620D01*
X-438921Y578582D01*
X-438968Y578536D01*
X-439041Y578496D01*
X-439068Y578477D01*
X-439087Y578471D01*
X-439115Y578455D01*
X-440642Y577823D01*
X-442893Y575572D01*
X-444111Y572631D01*
X-444111Y569246D01*
X-444121Y569181D01*
X-444122Y569116D01*
X-444145Y569036D01*
X-444150Y569003D01*
X-444160Y568986D01*
X-444169Y568954D01*
X-444175Y568940D01*
X-444175Y564140D01*
X-444169Y564126D01*
X-444154Y564062D01*
X-444129Y564001D01*
X-444120Y563918D01*
X-444113Y563886D01*
X-444114Y563867D01*
X-444111Y563834D01*
X-444111Y560449D01*
X-442893Y557508D01*
X-441858Y556473D01*
X-441805Y556399D01*
X-441745Y556330D01*
X-441733Y556299D01*
X-441714Y556273D01*
X-441687Y556186D01*
X-441653Y556101D01*
X-441649Y556060D01*
X-441642Y556038D01*
X-441643Y556006D01*
X-441635Y555935D01*
X-441635Y546440D01*
X-441429Y545943D01*
X-441414Y545879D01*
X-441389Y545818D01*
X-441380Y545735D01*
X-441373Y545703D01*
X-441374Y545684D01*
X-441371Y545651D01*
X-441371Y541049D01*
X-440153Y538108D01*
X-437902Y535857D01*
X-434961Y534639D01*
X-423779Y534639D01*
X-420838Y535857D01*
X-418587Y538108D01*
X-417369Y541049D01*
X-417369Y545934D01*
X-417359Y545999D01*
X-417358Y546064D01*
X-417335Y546144D01*
X-417330Y546177D01*
X-417320Y546194D01*
X-417311Y546226D01*
X-417305Y546240D01*
X-417305Y551040D01*
X-417311Y551054D01*
X-417326Y551118D01*
X-417351Y551179D01*
X-417360Y551262D01*
X-417367Y551294D01*
X-417366Y551313D01*
X-417369Y551346D01*
X-417369Y556231D01*
X-417447Y556420D01*
X-417462Y556484D01*
X-417487Y556544D01*
X-417496Y556627D01*
X-417503Y556659D01*
X-417502Y556679D01*
X-417505Y556711D01*
X-417505Y565786D01*
X-417502Y565806D01*
X-417504Y565825D01*
X-417482Y565927D01*
X-417466Y566029D01*
X-417456Y566046D01*
X-417452Y566066D01*
X-417399Y566155D01*
X-417350Y566246D01*
X-417336Y566260D01*
X-417326Y566277D01*
X-417247Y566344D01*
X-417172Y566416D01*
X-417154Y566424D01*
X-417139Y566437D01*
X-417043Y566476D01*
X-416949Y566519D01*
X-416929Y566521D01*
X-416911Y566529D01*
X-416744Y566547D01*
X-414564Y566547D01*
X-410877Y568075D01*
X-407948Y571004D01*
X-406857Y572094D01*
X-406783Y572147D01*
X-406714Y572207D01*
X-406684Y572219D01*
X-406658Y572238D01*
X-406571Y572265D01*
X-406486Y572299D01*
X-406445Y572303D01*
X-406422Y572310D01*
X-406390Y572309D01*
X-406319Y572317D01*
X-401008Y572317D01*
X-400893Y572298D01*
X-400777Y572281D01*
X-400772Y572279D01*
X-400765Y572278D01*
X-400662Y572223D01*
X-400558Y572170D01*
X-400554Y572165D01*
X-400548Y572162D01*
X-400467Y572077D01*
X-400386Y571994D01*
X-400382Y571988D01*
X-400379Y571984D01*
X-400371Y571967D01*
X-400305Y571847D01*
X-400293Y571818D01*
X-398042Y569567D01*
X-395101Y568349D01*
X-383919Y568349D01*
X-380913Y569594D01*
X-380849Y569641D01*
X-380829Y569646D01*
X-380812Y569657D01*
X-380712Y569683D01*
X-380613Y569713D01*
X-380593Y569712D01*
X-380574Y569717D01*
X-380471Y569709D01*
X-380368Y569707D01*
X-380349Y569700D01*
X-380329Y569698D01*
X-380234Y569658D01*
X-380137Y569622D01*
X-380121Y569609D01*
X-380102Y569602D01*
X-380078Y569582D01*
X-377101Y568349D01*
X-365919Y568349D01*
X-364277Y569029D01*
X-364213Y569044D01*
X-364152Y569069D01*
X-364069Y569078D01*
X-364037Y569085D01*
X-364018Y569084D01*
X-363985Y569087D01*
X-363764Y569087D01*
X-360077Y570615D01*
X-354715Y575977D01*
X-353187Y579664D01*
X-353187Y589889D01*
X-353173Y589979D01*
X-353165Y590070D01*
X-353153Y590100D01*
X-353148Y590132D01*
X-353105Y590212D01*
X-353069Y590296D01*
X-353043Y590328D01*
X-353032Y590349D01*
X-353009Y590371D01*
X-352964Y590427D01*
X-349635Y593757D01*
X-348107Y597444D01*
X-348107Y609056D01*
X-349635Y612743D01*
X-357537Y620645D01*
X-361224Y622173D01*
X-363718Y622173D01*
X-363789Y622184D01*
X-363861Y622186D01*
X-363910Y622204D01*
X-363961Y622212D01*
X-364024Y622246D01*
X-364092Y622271D01*
X-364132Y622303D01*
X-364178Y622328D01*
X-364228Y622380D01*
X-364284Y622424D01*
X-364312Y622468D01*
X-364348Y622506D01*
X-364378Y622571D01*
X-364417Y622631D01*
X-364429Y622682D01*
X-364451Y622729D01*
X-364459Y622800D01*
X-364477Y622870D01*
X-364473Y622922D01*
X-364478Y622973D01*
X-364463Y623044D01*
X-364458Y623115D01*
X-364437Y623163D01*
X-364426Y623214D01*
X-364389Y623275D01*
X-364361Y623341D01*
X-364316Y623397D01*
X-364300Y623425D01*
X-364282Y623440D01*
X-364256Y623472D01*
X-361509Y626220D01*
X-359149Y631917D01*
X-359149Y638083D01*
X-360541Y641444D01*
X-360556Y641508D01*
X-360581Y641569D01*
X-360590Y641651D01*
X-360597Y641683D01*
X-360596Y641703D01*
X-360599Y641735D01*
X-360599Y649381D01*
X-360584Y649477D01*
X-360574Y649574D01*
X-360564Y649598D01*
X-360560Y649624D01*
X-360514Y649710D01*
X-360474Y649799D01*
X-360457Y649818D01*
X-360444Y649841D01*
X-360374Y649908D01*
X-360308Y649980D01*
X-360285Y649993D01*
X-360266Y650011D01*
X-360178Y650052D01*
X-360092Y650099D01*
X-360067Y650103D01*
X-360043Y650114D01*
X-359946Y650125D01*
X-359850Y650143D01*
X-359824Y650139D01*
X-359799Y650142D01*
X-359703Y650121D01*
X-359607Y650107D01*
X-359584Y650095D01*
X-359558Y650089D01*
X-359475Y650039D01*
X-359388Y649995D01*
X-359369Y649977D01*
X-359347Y649963D01*
X-359284Y649889D01*
X-359216Y649820D01*
X-359200Y649791D01*
X-359187Y649776D01*
X-359175Y649746D01*
X-359135Y649673D01*
X-357311Y645270D01*
X-352950Y640909D01*
X-347253Y638549D01*
X-341087Y638549D01*
X-335390Y640909D01*
X-335280Y641018D01*
X-335243Y641045D01*
X-335212Y641079D01*
X-335144Y641117D01*
X-335081Y641162D01*
X-335037Y641175D01*
X-334996Y641198D01*
X-334920Y641211D01*
X-334846Y641234D01*
X-334799Y641233D01*
X-334754Y641241D01*
X-334677Y641230D01*
X-334600Y641228D01*
X-334556Y641212D01*
X-334511Y641205D01*
X-334441Y641170D01*
X-334369Y641143D01*
X-334333Y641115D01*
X-334292Y641094D01*
X-334237Y641038D01*
X-334177Y640990D01*
X-334152Y640951D01*
X-334119Y640918D01*
X-334106Y640894D01*
X-321485Y628273D01*
X-317984Y624772D01*
X-313550Y622935D01*
X-265663Y622935D01*
X-265573Y622921D01*
X-265482Y622913D01*
X-265452Y622901D01*
X-265420Y622896D01*
X-265339Y622853D01*
X-265255Y622817D01*
X-265223Y622791D01*
X-265203Y622780D01*
X-265180Y622757D01*
X-265124Y622712D01*
X-259938Y617526D01*
X-259885Y617452D01*
X-259825Y617382D01*
X-259813Y617352D01*
X-259794Y617326D01*
X-259767Y617239D01*
X-259733Y617154D01*
X-259729Y617113D01*
X-259722Y617091D01*
X-259723Y617059D01*
X-259715Y616987D01*
X-259715Y467500D01*
X-257878Y463066D01*
X-244324Y449512D01*
X-239890Y447675D01*
X-219699Y447675D01*
X-219609Y447661D01*
X-219518Y447653D01*
X-219489Y447641D01*
X-219457Y447636D01*
X-219376Y447593D01*
X-219292Y447557D01*
X-219260Y447531D01*
X-219239Y447520D01*
X-219217Y447497D01*
X-219161Y447452D01*
X-217560Y445851D01*
X-211539Y443357D01*
X-205021Y443357D01*
X-199000Y445851D01*
X-194391Y450460D01*
X-191897Y456481D01*
X-191897Y462999D01*
X-194391Y469020D01*
X-197273Y471902D01*
X-197285Y471918D01*
X-197300Y471930D01*
X-197334Y471982D01*
X-197363Y472013D01*
X-197381Y472052D01*
X-197417Y472101D01*
X-197422Y472120D01*
X-197433Y472137D01*
X-197448Y472197D01*
X-197467Y472236D01*
X-197471Y472280D01*
X-197489Y472337D01*
X-197488Y472356D01*
X-197493Y472376D01*
X-197489Y472435D01*
X-197494Y472481D01*
X-197484Y472525D01*
X-197483Y472582D01*
X-197476Y472601D01*
X-197474Y472621D01*
X-197452Y472674D01*
X-197441Y472721D01*
X-197417Y472762D01*
X-197398Y472813D01*
X-197386Y472829D01*
X-197378Y472847D01*
X-197331Y472906D01*
X-197315Y472932D01*
X-197298Y472947D01*
X-197273Y472978D01*
X-194391Y475860D01*
X-191897Y481881D01*
X-191897Y488399D01*
X-194391Y494420D01*
X-197273Y497302D01*
X-197285Y497318D01*
X-197300Y497330D01*
X-197356Y497418D01*
X-197417Y497501D01*
X-197422Y497520D01*
X-197433Y497537D01*
X-197458Y497638D01*
X-197489Y497737D01*
X-197488Y497756D01*
X-197493Y497776D01*
X-197485Y497879D01*
X-197483Y497982D01*
X-197476Y498001D01*
X-197474Y498021D01*
X-197434Y498116D01*
X-197398Y498213D01*
X-197386Y498229D01*
X-197378Y498247D01*
X-197273Y498378D01*
X-194391Y501260D01*
X-191897Y507281D01*
X-191897Y513799D01*
X-194391Y519820D01*
X-197273Y522702D01*
X-197285Y522718D01*
X-197300Y522730D01*
X-197356Y522818D01*
X-197417Y522901D01*
X-197422Y522920D01*
X-197433Y522937D01*
X-197458Y523038D01*
X-197489Y523137D01*
X-197488Y523156D01*
X-197493Y523176D01*
X-197485Y523279D01*
X-197483Y523382D01*
X-197476Y523401D01*
X-197474Y523421D01*
X-197434Y523516D01*
X-197398Y523613D01*
X-197386Y523629D01*
X-197378Y523647D01*
X-197273Y523778D01*
X-194391Y526660D01*
X-191897Y532681D01*
X-191897Y539199D01*
X-194391Y545220D01*
X-197273Y548102D01*
X-197285Y548118D01*
X-197300Y548130D01*
X-197356Y548218D01*
X-197417Y548301D01*
X-197422Y548320D01*
X-197433Y548337D01*
X-197458Y548438D01*
X-197489Y548537D01*
X-197488Y548556D01*
X-197493Y548576D01*
X-197485Y548679D01*
X-197483Y548782D01*
X-197476Y548801D01*
X-197474Y548821D01*
X-197434Y548916D01*
X-197398Y549013D01*
X-197386Y549029D01*
X-197378Y549047D01*
X-197273Y549178D01*
X-194391Y552060D01*
X-191897Y558081D01*
X-191897Y564599D01*
X-194391Y570620D01*
X-197273Y573502D01*
X-197285Y573518D01*
X-197300Y573530D01*
X-197356Y573618D01*
X-197417Y573701D01*
X-197422Y573720D01*
X-197433Y573737D01*
X-197458Y573838D01*
X-197489Y573937D01*
X-197488Y573956D01*
X-197493Y573976D01*
X-197485Y574079D01*
X-197483Y574182D01*
X-197476Y574201D01*
X-197474Y574221D01*
X-197434Y574316D01*
X-197398Y574413D01*
X-197386Y574429D01*
X-197378Y574447D01*
X-197273Y574578D01*
X-194391Y577460D01*
X-191897Y583481D01*
X-191897Y589999D01*
X-194391Y596020D01*
X-197273Y598902D01*
X-197285Y598918D01*
X-197300Y598930D01*
X-197356Y599018D01*
X-197417Y599101D01*
X-197422Y599120D01*
X-197433Y599137D01*
X-197458Y599238D01*
X-197489Y599337D01*
X-197488Y599356D01*
X-197493Y599376D01*
X-197485Y599479D01*
X-197483Y599582D01*
X-197476Y599601D01*
X-197474Y599621D01*
X-197434Y599716D01*
X-197398Y599813D01*
X-197386Y599829D01*
X-197378Y599847D01*
X-197273Y599978D01*
X-194391Y602860D01*
X-191897Y608881D01*
X-191897Y615399D01*
X-194391Y621420D01*
X-197273Y624302D01*
X-197285Y624318D01*
X-197300Y624330D01*
X-197356Y624418D01*
X-197417Y624501D01*
X-197422Y624520D01*
X-197433Y624537D01*
X-197458Y624638D01*
X-197489Y624737D01*
X-197488Y624756D01*
X-197493Y624776D01*
X-197485Y624879D01*
X-197483Y624982D01*
X-197476Y625001D01*
X-197474Y625021D01*
X-197434Y625116D01*
X-197398Y625213D01*
X-197386Y625229D01*
X-197378Y625247D01*
X-197273Y625378D01*
X-194391Y628260D01*
X-191897Y634281D01*
X-191897Y640799D01*
X-193320Y644235D01*
X-193329Y644270D01*
X-193333Y644279D01*
X-193333Y644285D01*
X-193350Y644321D01*
X-193359Y644398D01*
X-193377Y644474D01*
X-193372Y644520D01*
X-193377Y644565D01*
X-193361Y644642D01*
X-193354Y644719D01*
X-193335Y644761D01*
X-193325Y644806D01*
X-193285Y644873D01*
X-193254Y644944D01*
X-193222Y644978D01*
X-193199Y645017D01*
X-193140Y645068D01*
X-193087Y645125D01*
X-193047Y645147D01*
X-193012Y645177D01*
X-192940Y645206D01*
X-192872Y645243D01*
X-192826Y645252D01*
X-192784Y645269D01*
X-192648Y645284D01*
X-192630Y645287D01*
X-192625Y645286D01*
X-192617Y645287D01*
X-189891Y645287D01*
X-189801Y645273D01*
X-189710Y645265D01*
X-189680Y645253D01*
X-189648Y645248D01*
X-189568Y645205D01*
X-189484Y645169D01*
X-189452Y645143D01*
X-189431Y645132D01*
X-189409Y645109D01*
X-189353Y645064D01*
X-186023Y641735D01*
X-182336Y640207D01*
X-163104Y640207D01*
X-159417Y641735D01*
X-154055Y647097D01*
X-152527Y650784D01*
X-152527Y675096D01*
X-154055Y678783D01*
X-159417Y684145D01*
X-163104Y685673D01*
X-184876Y685673D01*
X-188563Y684145D01*
X-191893Y680816D01*
X-191967Y680763D01*
X-192036Y680703D01*
X-192066Y680691D01*
X-192092Y680672D01*
X-192179Y680645D01*
X-192264Y680611D01*
X-192305Y680607D01*
X-192328Y680600D01*
X-192360Y680601D01*
X-192431Y680593D01*
X-215356Y680593D01*
X-219043Y679065D01*
X-224405Y673703D01*
X-225933Y670016D01*
X-225933Y655864D01*
X-224405Y652177D01*
X-221147Y648918D01*
X-221135Y648902D01*
X-221120Y648890D01*
X-221064Y648802D01*
X-221003Y648719D01*
X-220997Y648700D01*
X-220987Y648683D01*
X-220961Y648582D01*
X-220931Y648484D01*
X-220931Y648464D01*
X-220927Y648444D01*
X-220935Y648341D01*
X-220937Y648238D01*
X-220944Y648219D01*
X-220946Y648199D01*
X-220986Y648104D01*
X-221022Y648007D01*
X-221034Y647991D01*
X-221042Y647973D01*
X-221147Y647842D01*
X-222169Y646820D01*
X-222602Y645774D01*
X-222626Y645735D01*
X-222642Y645692D01*
X-222690Y645632D01*
X-222731Y645565D01*
X-222767Y645536D01*
X-222795Y645500D01*
X-222861Y645458D01*
X-222921Y645409D01*
X-222964Y645392D01*
X-223002Y645367D01*
X-223078Y645348D01*
X-223150Y645320D01*
X-223196Y645318D01*
X-223241Y645307D01*
X-223318Y645313D01*
X-223396Y645310D01*
X-223440Y645323D01*
X-223486Y645326D01*
X-223558Y645357D01*
X-223632Y645378D01*
X-223670Y645405D01*
X-223712Y645423D01*
X-223819Y645508D01*
X-223834Y645519D01*
X-223837Y645523D01*
X-223843Y645527D01*
X-240816Y662500D01*
X-245250Y664337D01*
X-262964Y664337D01*
X-263035Y664348D01*
X-263107Y664350D01*
X-263156Y664368D01*
X-263207Y664376D01*
X-263271Y664410D01*
X-263338Y664435D01*
X-263379Y664467D01*
X-263425Y664492D01*
X-263474Y664544D01*
X-263530Y664588D01*
X-263558Y664632D01*
X-263594Y664670D01*
X-263624Y664735D01*
X-263663Y664795D01*
X-263676Y664846D01*
X-263698Y664893D01*
X-263705Y664964D01*
X-263723Y665034D01*
X-263719Y665086D01*
X-263725Y665137D01*
X-263709Y665208D01*
X-263704Y665279D01*
X-263683Y665327D01*
X-263672Y665378D01*
X-263636Y665439D01*
X-263608Y665505D01*
X-263563Y665561D01*
X-263546Y665589D01*
X-263528Y665604D01*
X-263503Y665636D01*
X-259807Y669332D01*
X-257429Y675073D01*
X-257429Y682118D01*
X-257426Y682138D01*
X-257428Y682157D01*
X-257406Y682259D01*
X-257390Y682361D01*
X-257380Y682378D01*
X-257376Y682398D01*
X-257323Y682487D01*
X-257274Y682578D01*
X-257260Y682592D01*
X-257250Y682609D01*
X-257171Y682676D01*
X-257096Y682748D01*
X-257078Y682756D01*
X-257063Y682769D01*
X-256967Y682808D01*
X-256873Y682851D01*
X-256853Y682853D01*
X-256835Y682861D01*
X-256668Y682879D01*
X-253320Y682879D01*
X-253230Y682865D01*
X-253139Y682857D01*
X-253109Y682845D01*
X-253077Y682840D01*
X-252996Y682797D01*
X-252912Y682761D01*
X-252880Y682735D01*
X-252860Y682724D01*
X-252837Y682701D01*
X-252781Y682656D01*
X-251228Y681102D01*
X-244786Y678434D01*
X-237814Y678434D01*
X-231372Y681102D01*
X-226442Y686032D01*
X-223774Y692474D01*
X-223774Y699446D01*
X-226442Y705888D01*
X-231372Y710818D01*
X-237814Y713486D01*
X-244786Y713486D01*
X-251228Y710818D01*
X-252781Y709264D01*
X-252855Y709211D01*
X-252925Y709151D01*
X-252955Y709139D01*
X-252981Y709120D01*
X-253068Y709093D01*
X-253153Y709059D01*
X-253194Y709055D01*
X-253216Y709048D01*
X-253248Y709049D01*
X-253320Y709041D01*
X-276157Y709041D01*
X-281898Y706663D01*
X-286293Y702268D01*
X-288671Y696527D01*
X-288671Y675073D01*
X-286293Y669332D01*
X-282597Y665636D01*
X-282555Y665578D01*
X-282506Y665526D01*
X-282484Y665479D01*
X-282454Y665437D01*
X-282433Y665368D01*
X-282402Y665303D01*
X-282397Y665251D01*
X-282381Y665201D01*
X-282383Y665130D01*
X-282375Y665059D01*
X-282386Y665008D01*
X-282388Y664956D01*
X-282412Y664888D01*
X-282428Y664818D01*
X-282454Y664773D01*
X-282472Y664725D01*
X-282517Y664669D01*
X-282554Y664607D01*
X-282593Y664573D01*
X-282626Y664533D01*
X-282686Y664494D01*
X-282741Y664447D01*
X-282789Y664428D01*
X-282833Y664400D01*
X-282902Y664382D01*
X-282969Y664355D01*
X-283040Y664347D01*
X-283071Y664339D01*
X-283095Y664341D01*
X-283136Y664337D01*
X-291206Y664337D01*
X-291296Y664351D01*
X-291387Y664359D01*
X-291417Y664371D01*
X-291449Y664376D01*
X-291530Y664419D01*
X-291614Y664455D01*
X-291646Y664481D01*
X-291666Y664492D01*
X-291689Y664515D01*
X-291744Y664560D01*
X-295198Y668013D01*
X-300895Y670373D01*
X-307061Y670373D01*
X-309123Y669519D01*
X-309193Y669502D01*
X-309260Y669476D01*
X-309312Y669474D01*
X-309363Y669462D01*
X-309434Y669469D01*
X-309506Y669466D01*
X-309556Y669481D01*
X-309608Y669485D01*
X-309673Y669515D01*
X-309742Y669535D01*
X-309785Y669564D01*
X-309832Y669585D01*
X-309885Y669634D01*
X-309944Y669675D01*
X-309975Y669717D01*
X-310014Y669752D01*
X-310048Y669815D01*
X-310091Y669872D01*
X-310107Y669922D01*
X-310132Y669967D01*
X-310145Y670038D01*
X-310167Y670106D01*
X-310167Y670158D01*
X-310176Y670209D01*
X-310165Y670280D01*
X-310165Y670352D01*
X-310145Y670421D01*
X-310140Y670453D01*
X-310129Y670474D01*
X-310118Y670513D01*
X-308229Y675073D01*
X-308229Y696527D01*
X-310607Y702268D01*
X-315002Y706663D01*
X-320743Y709041D01*
X-326957Y709041D01*
X-332698Y706663D01*
X-334776Y704585D01*
X-334813Y704558D01*
X-334844Y704525D01*
X-334912Y704487D01*
X-334975Y704442D01*
X-335019Y704428D01*
X-335060Y704406D01*
X-335136Y704392D01*
X-335211Y704369D01*
X-335256Y704371D01*
X-335302Y704362D01*
X-335379Y704374D01*
X-335456Y704376D01*
X-335500Y704392D01*
X-335545Y704398D01*
X-335614Y704433D01*
X-335687Y704460D01*
X-335723Y704489D01*
X-335764Y704510D01*
X-335819Y704565D01*
X-335879Y704614D01*
X-335904Y704653D01*
X-335937Y704685D01*
X-336000Y704801D01*
X-340402Y709203D01*
X-346143Y711581D01*
X-352357Y711581D01*
X-358098Y709203D01*
X-362505Y704796D01*
X-362507Y704793D01*
X-362523Y704750D01*
X-362571Y704690D01*
X-362612Y704623D01*
X-362648Y704594D01*
X-362676Y704558D01*
X-362742Y704516D01*
X-362802Y704467D01*
X-362845Y704450D01*
X-362883Y704425D01*
X-362959Y704406D01*
X-363031Y704378D01*
X-363077Y704376D01*
X-363122Y704365D01*
X-363199Y704371D01*
X-363277Y704368D01*
X-363321Y704381D01*
X-363367Y704384D01*
X-363438Y704415D01*
X-363513Y704436D01*
X-363551Y704463D01*
X-363593Y704481D01*
X-363700Y704566D01*
X-363715Y704577D01*
X-363718Y704581D01*
X-363724Y704585D01*
X-365802Y706663D01*
X-371543Y709041D01*
X-377757Y709041D01*
X-383498Y706663D01*
X-387893Y702268D01*
X-390271Y696527D01*
X-390271Y675073D01*
X-389359Y672871D01*
X-389344Y672807D01*
X-389319Y672746D01*
X-389310Y672664D01*
X-389303Y672632D01*
X-389304Y672612D01*
X-389301Y672580D01*
X-389301Y640287D01*
X-389311Y640222D01*
X-389312Y640157D01*
X-389335Y640077D01*
X-389340Y640044D01*
X-389350Y640027D01*
X-389359Y639995D01*
X-390151Y638083D01*
X-390151Y631917D01*
X-387791Y626220D01*
X-383430Y621859D01*
X-380537Y620660D01*
X-380497Y620636D01*
X-380454Y620620D01*
X-380394Y620572D01*
X-380327Y620531D01*
X-380298Y620495D01*
X-380262Y620467D01*
X-380220Y620401D01*
X-380171Y620341D01*
X-380154Y620299D01*
X-380129Y620260D01*
X-380110Y620184D01*
X-380082Y620112D01*
X-380081Y620066D01*
X-380069Y620021D01*
X-380075Y619944D01*
X-380072Y619866D01*
X-380085Y619822D01*
X-380088Y619776D01*
X-380119Y619705D01*
X-380141Y619630D01*
X-380167Y619592D01*
X-380185Y619550D01*
X-380270Y619443D01*
X-380281Y619428D01*
X-380285Y619425D01*
X-380290Y619419D01*
X-381992Y617716D01*
X-386965Y612743D01*
X-388493Y609056D01*
X-388493Y597112D01*
X-388496Y597092D01*
X-388494Y597073D01*
X-388516Y596971D01*
X-388532Y596869D01*
X-388542Y596852D01*
X-388546Y596832D01*
X-388599Y596743D01*
X-388648Y596652D01*
X-388662Y596638D01*
X-388672Y596621D01*
X-388751Y596554D01*
X-388826Y596482D01*
X-388844Y596474D01*
X-388859Y596461D01*
X-388955Y596422D01*
X-389049Y596379D01*
X-389069Y596377D01*
X-389087Y596369D01*
X-389254Y596351D01*
X-395101Y596351D01*
X-398042Y595133D01*
X-400293Y592882D01*
X-400305Y592853D01*
X-400367Y592753D01*
X-400426Y592653D01*
X-400431Y592649D01*
X-400434Y592644D01*
X-400524Y592569D01*
X-400613Y592493D01*
X-400619Y592491D01*
X-400624Y592487D01*
X-400732Y592445D01*
X-400841Y592401D01*
X-400849Y592400D01*
X-400853Y592399D01*
X-400872Y592398D01*
X-401008Y592383D01*
X-405214Y592383D01*
X-405234Y592386D01*
X-405253Y592384D01*
X-405355Y592406D01*
X-405457Y592422D01*
X-405474Y592432D01*
X-405494Y592436D01*
X-405583Y592489D01*
X-405674Y592538D01*
X-405688Y592552D01*
X-405705Y592562D01*
X-405772Y592641D01*
X-405844Y592716D01*
X-405852Y592734D01*
X-405865Y592749D01*
X-405904Y592845D01*
X-405947Y592939D01*
X-405949Y592959D01*
X-405957Y592977D01*
X-405975Y593144D01*
X-405975Y602047D01*
X-405961Y602137D01*
X-405953Y602228D01*
X-405941Y602258D01*
X-405936Y602290D01*
X-405893Y602371D01*
X-405857Y602455D01*
X-405831Y602487D01*
X-405820Y602507D01*
X-405797Y602530D01*
X-405752Y602586D01*
X-405222Y603116D01*
X-403385Y607550D01*
X-403385Y618705D01*
X-403375Y618769D01*
X-403374Y618835D01*
X-403351Y618915D01*
X-403346Y618947D01*
X-403336Y618964D01*
X-403327Y618996D01*
X-402949Y619909D01*
X-402949Y631091D01*
X-404167Y634032D01*
X-404597Y634462D01*
X-404609Y634478D01*
X-404624Y634490D01*
X-404680Y634577D01*
X-404741Y634661D01*
X-404746Y634680D01*
X-404757Y634697D01*
X-404782Y634798D01*
X-404813Y634897D01*
X-404812Y634917D01*
X-404817Y634936D01*
X-404809Y635039D01*
X-404807Y635142D01*
X-404800Y635161D01*
X-404798Y635181D01*
X-404758Y635276D01*
X-404722Y635373D01*
X-404710Y635389D01*
X-404702Y635407D01*
X-404597Y635538D01*
X-404167Y635968D01*
X-402949Y638909D01*
X-402949Y650091D01*
X-403327Y651004D01*
X-403342Y651068D01*
X-403367Y651129D01*
X-403376Y651212D01*
X-403383Y651244D01*
X-403382Y651263D01*
X-403385Y651295D01*
X-403385Y678200D01*
X-405222Y682634D01*
X-417861Y695273D01*
X-417914Y695347D01*
X-417974Y695417D01*
X-417986Y695447D01*
X-418005Y695473D01*
X-418032Y695560D01*
X-418066Y695645D01*
X-418070Y695686D01*
X-418077Y695708D01*
X-418076Y695740D01*
X-418084Y695812D01*
X-418084Y712156D01*
X-419344Y715197D01*
X-419354Y715241D01*
X-419373Y715283D01*
X-419382Y715360D01*
X-419400Y715436D01*
X-419395Y715482D01*
X-419401Y715527D01*
X-419384Y715604D01*
X-419377Y715681D01*
X-419358Y715723D01*
X-419348Y715768D01*
X-419308Y715835D01*
X-419277Y715906D01*
X-419246Y715940D01*
X-419222Y715979D01*
X-419163Y716030D01*
X-419110Y716087D01*
X-419070Y716109D01*
X-419035Y716139D01*
X-418963Y716168D01*
X-418895Y716205D01*
X-418850Y716214D01*
X-418807Y716231D01*
X-418671Y716246D01*
X-418653Y716249D01*
X-418648Y716248D01*
X-418640Y716249D01*
X-410859Y716249D01*
X-408441Y717251D01*
X-408353Y717271D01*
X-408266Y717300D01*
X-408233Y717299D01*
X-408202Y717307D01*
X-408111Y717298D01*
X-408020Y717297D01*
X-407980Y717286D01*
X-407957Y717284D01*
X-407928Y717271D01*
X-407859Y717251D01*
X-405441Y716249D01*
X-390259Y716249D01*
X-387318Y717467D01*
X-385067Y719718D01*
X-383849Y722659D01*
X-383849Y737841D01*
X-385067Y740782D01*
X-387318Y743033D01*
X-390259Y744251D01*
X-405441Y744251D01*
X-407859Y743249D01*
X-407948Y743229D01*
X-408034Y743200D01*
X-408067Y743201D01*
X-408098Y743193D01*
X-408189Y743202D01*
X-408280Y743203D01*
X-408320Y743214D01*
X-408343Y743216D01*
X-408372Y743229D01*
X-408441Y743249D01*
X-410859Y744251D01*
X-422041Y744251D01*
X-425047Y743006D01*
X-425111Y742960D01*
X-425130Y742954D01*
X-425147Y742943D01*
X-425247Y742918D01*
X-425346Y742887D01*
X-425366Y742888D01*
X-425386Y742883D01*
X-425488Y742891D01*
X-425592Y742893D01*
X-425611Y742900D01*
X-425631Y742902D01*
X-425726Y742942D01*
X-425823Y742978D01*
X-425839Y742990D01*
X-425857Y742998D01*
X-425882Y743018D01*
X-428859Y744251D01*
X-440041Y744251D01*
X-442982Y743033D01*
X-445233Y740782D01*
X-446451Y737841D01*
X-446451Y735627D01*
X-446465Y735537D01*
X-446473Y735446D01*
X-446485Y735416D01*
X-446490Y735384D01*
X-446533Y735303D01*
X-446569Y735219D01*
X-446595Y735187D01*
X-446606Y735167D01*
X-446629Y735144D01*
X-446674Y735088D01*
X-448378Y733384D01*
X-450215Y728950D01*
X-450215Y719327D01*
X-450218Y719307D01*
X-450216Y719288D01*
X-450238Y719186D01*
X-450254Y719084D01*
X-450264Y719067D01*
X-450268Y719047D01*
X-450321Y718958D01*
X-450370Y718867D01*
X-450384Y718853D01*
X-450394Y718836D01*
X-450473Y718769D01*
X-450548Y718697D01*
X-450566Y718689D01*
X-450581Y718676D01*
X-450677Y718637D01*
X-450771Y718594D01*
X-450791Y718592D01*
X-450809Y718584D01*
X-450976Y718566D01*
X-451806Y718566D01*
X-454747Y717348D01*
X-456998Y715097D01*
X-458216Y712156D01*
X-458216Y684844D01*
X-457522Y683169D01*
X-457512Y683125D01*
X-457492Y683083D01*
X-457484Y683006D01*
X-457466Y682930D01*
X-457470Y682884D01*
X-457465Y682839D01*
X-457482Y682762D01*
X-457489Y682685D01*
X-457508Y682643D01*
X-457518Y682598D01*
X-457558Y682531D01*
X-457589Y682460D01*
X-457620Y682426D01*
X-457644Y682387D01*
X-457703Y682336D01*
X-457756Y682279D01*
X-457796Y682257D01*
X-457831Y682227D01*
X-457903Y682198D01*
X-457971Y682161D01*
X-458016Y682152D01*
X-458059Y682135D01*
X-458195Y682120D01*
X-458213Y682117D01*
X-458218Y682118D01*
X-458226Y682117D01*
X-465344Y682117D01*
X-468658Y680744D01*
X-476005Y673396D01*
X-476099Y673329D01*
X-476194Y673258D01*
X-476200Y673256D01*
X-476205Y673253D01*
X-476316Y673219D01*
X-476428Y673182D01*
X-476434Y673182D01*
X-476440Y673180D01*
X-476557Y673183D01*
X-476674Y673184D01*
X-476681Y673187D01*
X-476686Y673187D01*
X-476704Y673193D01*
X-476835Y673231D01*
X-479659Y674401D01*
X-490841Y674401D01*
X-493782Y673183D01*
X-496033Y670932D01*
X-497251Y667991D01*
X-497251Y653629D01*
X-497265Y653539D01*
X-497273Y653448D01*
X-497285Y653419D01*
X-497290Y653387D01*
X-497314Y653343D01*
X-497315Y653339D01*
X-497324Y653323D01*
X-497333Y653306D01*
X-497369Y653222D01*
X-497395Y653190D01*
X-497406Y653169D01*
X-497429Y653147D01*
X-497430Y653145D01*
X-497441Y653128D01*
X-497452Y653118D01*
X-497474Y653091D01*
X-497533Y653032D01*
X-498751Y650091D01*
X-498751Y644651D01*
X-498762Y644580D01*
X-498764Y644508D01*
X-498782Y644459D01*
X-498790Y644408D01*
X-498824Y644345D01*
X-498849Y644277D01*
X-498881Y644237D01*
X-498906Y644191D01*
X-498958Y644141D01*
X-499002Y644085D01*
X-499046Y644057D01*
X-499084Y644021D01*
X-499149Y643991D01*
X-499209Y643952D01*
X-499260Y643939D01*
X-499307Y643918D01*
X-499378Y643910D01*
X-499448Y643892D01*
X-499500Y643896D01*
X-499551Y643890D01*
X-499622Y643906D01*
X-499693Y643911D01*
X-499741Y643932D01*
X-499792Y643943D01*
X-499853Y643979D01*
X-499919Y644008D01*
X-499975Y644052D01*
X-500003Y644069D01*
X-500018Y644087D01*
X-500050Y644112D01*
X-502062Y646124D01*
X-502115Y646198D01*
X-502175Y646268D01*
X-502187Y646298D01*
X-502206Y646324D01*
X-502233Y646411D01*
X-502267Y646496D01*
X-502271Y646537D01*
X-502278Y646559D01*
X-502277Y646591D01*
X-502285Y646663D01*
X-502285Y688200D01*
X-504122Y692634D01*
X-507623Y696135D01*
X-516715Y705227D01*
X-520216Y708728D01*
X-520470Y708833D01*
X-520547Y708881D01*
X-520629Y708923D01*
X-520651Y708946D01*
X-520679Y708963D01*
X-520737Y709033D01*
X-520801Y709098D01*
X-520821Y709134D01*
X-520836Y709152D01*
X-520847Y709182D01*
X-520882Y709245D01*
X-521139Y709866D01*
X-523762Y712490D01*
X-523809Y712555D01*
X-523822Y712568D01*
X-523825Y712575D01*
X-523875Y712633D01*
X-523887Y712663D01*
X-523906Y712689D01*
X-523933Y712776D01*
X-523967Y712861D01*
X-523971Y712902D01*
X-523978Y712924D01*
X-523977Y712957D01*
X-523985Y713028D01*
X-523985Y715488D01*
X-523982Y715508D01*
X-523984Y715527D01*
X-523962Y715629D01*
X-523946Y715731D01*
X-523936Y715748D01*
X-523932Y715768D01*
X-523879Y715857D01*
X-523830Y715948D01*
X-523816Y715962D01*
X-523806Y715979D01*
X-523727Y716046D01*
X-523652Y716118D01*
X-523634Y716126D01*
X-523619Y716139D01*
X-523523Y716178D01*
X-523429Y716221D01*
X-523409Y716223D01*
X-523391Y716231D01*
X-523224Y716249D01*
X-512459Y716249D01*
X-510041Y717251D01*
X-509953Y717271D01*
X-509866Y717300D01*
X-509833Y717299D01*
X-509802Y717307D01*
X-509711Y717298D01*
X-509620Y717297D01*
X-509580Y717286D01*
X-509557Y717284D01*
X-509528Y717271D01*
X-509459Y717251D01*
X-507041Y716249D01*
X-491859Y716249D01*
X-488918Y717467D01*
X-486667Y719718D01*
X-485449Y722659D01*
X-485449Y737841D01*
X-486667Y740782D01*
X-488918Y743033D01*
X-491859Y744251D01*
X-507041Y744251D01*
X-509459Y743249D01*
X-509548Y743229D01*
X-509634Y743200D01*
X-509667Y743201D01*
X-509698Y743193D01*
X-509789Y743202D01*
X-509880Y743203D01*
X-509920Y743214D01*
X-509943Y743216D01*
X-509972Y743229D01*
X-510041Y743249D01*
X-512459Y744251D01*
X-523641Y744251D01*
X-526647Y743006D01*
X-526711Y742960D01*
X-526730Y742954D01*
X-526747Y742943D01*
X-526847Y742918D01*
X-526946Y742887D01*
X-526966Y742888D01*
X-526986Y742883D01*
X-527088Y742891D01*
X-527192Y742893D01*
X-527211Y742900D01*
X-527231Y742902D01*
X-527326Y742942D01*
X-527423Y742978D01*
X-527439Y742990D01*
X-527457Y742998D01*
X-527482Y743018D01*
X-530459Y744251D01*
X-541641Y744251D01*
X-544582Y743033D01*
X-546833Y740782D01*
X-548051Y737841D01*
X-548051Y732956D01*
X-548061Y732891D01*
X-548062Y732825D01*
X-548085Y732745D01*
X-548090Y732713D01*
X-548100Y732696D01*
X-548109Y732664D01*
X-548115Y732650D01*
X-548115Y716600D01*
X-548134Y716485D01*
X-548151Y716369D01*
X-548153Y716364D01*
X-548154Y716357D01*
X-548209Y716255D01*
X-548262Y716150D01*
X-548267Y716145D01*
X-548270Y716140D01*
X-548354Y716060D01*
X-548438Y715978D01*
X-548444Y715974D01*
X-548448Y715971D01*
X-548465Y715963D01*
X-548585Y715897D01*
X-549516Y715511D01*
X-555161Y709866D01*
X-558216Y702491D01*
X-558216Y694509D01*
X-555161Y687134D01*
X-549516Y681489D01*
X-542141Y678434D01*
X-534159Y678434D01*
X-527478Y681201D01*
X-527364Y681228D01*
X-527250Y681257D01*
X-527244Y681256D01*
X-527239Y681258D01*
X-527122Y681247D01*
X-527005Y681237D01*
X-526999Y681235D01*
X-526994Y681235D01*
X-526915Y681199D01*
X-526896Y681195D01*
X-526871Y681180D01*
X-526779Y681141D01*
X-526773Y681136D01*
X-526769Y681135D01*
X-526756Y681123D01*
X-526702Y681079D01*
X-526685Y681069D01*
X-526676Y681058D01*
X-526648Y681036D01*
X-526637Y681025D01*
X-526612Y680991D01*
X-526588Y680968D01*
X-526569Y680933D01*
X-526525Y680882D01*
X-526513Y680852D01*
X-526494Y680825D01*
X-526474Y680762D01*
X-526469Y680753D01*
X-526466Y680736D01*
X-526433Y680654D01*
X-526429Y680612D01*
X-526422Y680590D01*
X-526423Y680558D01*
X-526415Y680487D01*
X-526415Y638950D01*
X-524578Y634516D01*
X-505334Y615272D01*
X-500900Y613435D01*
X-486282Y613435D01*
X-486262Y613432D01*
X-486243Y613434D01*
X-486141Y613412D01*
X-486039Y613396D01*
X-486022Y613386D01*
X-486002Y613382D01*
X-485913Y613329D01*
X-485822Y613280D01*
X-485808Y613266D01*
X-485791Y613256D01*
X-485724Y613177D01*
X-485652Y613102D01*
X-485644Y613084D01*
X-485631Y613069D01*
X-485592Y612973D01*
X-485549Y612879D01*
X-485547Y612859D01*
X-485539Y612841D01*
X-485521Y612674D01*
X-485521Y612409D01*
X-485535Y612319D01*
X-485543Y612228D01*
X-485555Y612199D01*
X-485560Y612167D01*
X-485603Y612086D01*
X-485639Y612002D01*
X-485665Y611970D01*
X-485676Y611949D01*
X-485699Y611927D01*
X-485744Y611871D01*
X-487033Y610582D01*
X-488251Y607641D01*
X-488251Y595459D01*
X-487689Y594103D01*
X-487679Y594059D01*
X-487660Y594017D01*
X-487651Y593940D01*
X-487633Y593864D01*
X-487638Y593818D01*
X-487632Y593773D01*
X-487649Y593696D01*
X-487656Y593619D01*
X-487675Y593577D01*
X-487685Y593532D01*
X-487725Y593465D01*
X-487756Y593394D01*
X-487787Y593360D01*
X-487811Y593321D01*
X-487870Y593270D01*
X-487923Y593213D01*
X-487963Y593191D01*
X-487998Y593161D01*
X-488070Y593132D01*
X-488138Y593095D01*
X-488183Y593086D01*
X-488226Y593069D01*
X-488362Y593054D01*
X-488380Y593051D01*
X-488385Y593052D01*
X-488393Y593051D01*
X-491341Y593051D01*
X-494282Y591833D01*
X-496533Y589582D01*
X-497751Y586641D01*
X-497751Y585927D01*
X-497765Y585837D01*
X-497773Y585746D01*
X-497785Y585716D01*
X-497790Y585684D01*
X-497833Y585603D01*
X-497869Y585519D01*
X-497895Y585487D01*
X-497906Y585467D01*
X-497929Y585444D01*
X-497974Y585388D01*
X-498018Y585344D01*
X-499855Y580910D01*
X-499855Y537350D01*
X-499849Y537336D01*
X-499834Y537272D01*
X-499809Y537211D01*
X-499800Y537128D01*
X-499793Y537096D01*
X-499794Y537077D01*
X-499791Y537044D01*
X-499791Y532159D01*
X-498573Y529218D01*
X-496322Y526967D01*
X-493381Y525749D01*
X-483234Y525749D01*
X-483214Y525746D01*
X-483195Y525748D01*
X-483093Y525726D01*
X-482991Y525710D01*
X-482974Y525700D01*
X-482954Y525696D01*
X-482865Y525643D01*
X-482774Y525594D01*
X-482760Y525580D01*
X-482743Y525570D01*
X-482676Y525491D01*
X-482604Y525416D01*
X-482596Y525398D01*
X-482583Y525383D01*
X-482544Y525287D01*
X-482501Y525193D01*
X-482499Y525173D01*
X-482491Y525155D01*
X-482473Y524988D01*
X-482473Y511047D01*
X-482476Y511027D01*
X-482474Y511008D01*
X-482496Y510906D01*
X-482512Y510804D01*
X-482522Y510787D01*
X-482526Y510767D01*
X-482579Y510678D01*
X-482628Y510587D01*
X-482642Y510573D01*
X-482652Y510556D01*
X-482731Y510489D01*
X-482806Y510417D01*
X-482824Y510409D01*
X-482839Y510396D01*
X-482935Y510357D01*
X-483029Y510314D01*
X-483049Y510312D01*
X-483067Y510304D01*
X-483234Y510286D01*
X-497368Y510286D01*
X-500542Y508971D01*
X-502971Y506542D01*
X-504286Y503368D01*
X-504286Y372932D01*
X-503009Y369849D01*
X-502994Y369785D01*
X-502969Y369725D01*
X-502960Y369642D01*
X-502953Y369610D01*
X-502954Y369590D01*
X-502951Y369558D01*
X-502951Y360059D01*
X-501733Y357118D01*
X-501238Y356623D01*
X-501184Y356549D01*
X-501125Y356480D01*
X-501113Y356449D01*
X-501094Y356423D01*
X-501067Y356336D01*
X-501033Y356251D01*
X-501029Y356210D01*
X-501022Y356188D01*
X-501023Y356156D01*
X-501015Y356085D01*
X-501015Y355115D01*
X-501029Y355025D01*
X-501037Y354934D01*
X-501049Y354904D01*
X-501054Y354873D01*
X-501097Y354792D01*
X-501133Y354708D01*
X-501159Y354676D01*
X-501170Y354655D01*
X-501193Y354633D01*
X-501238Y354577D01*
X-501733Y354082D01*
X-502951Y351141D01*
X-502951Y339959D01*
X-501733Y337018D01*
X-499482Y334767D01*
X-496541Y333549D01*
X-491656Y333549D01*
X-491591Y333539D01*
X-491526Y333538D01*
X-491446Y333515D01*
X-491413Y333510D01*
X-491396Y333500D01*
X-491364Y333491D01*
X-491350Y333485D01*
X-477712Y333485D01*
X-477692Y333482D01*
X-477673Y333484D01*
X-477571Y333462D01*
X-477469Y333446D01*
X-477452Y333436D01*
X-477432Y333432D01*
X-477343Y333379D01*
X-477252Y333330D01*
X-477238Y333316D01*
X-477221Y333306D01*
X-477154Y333227D01*
X-477082Y333152D01*
X-477074Y333134D01*
X-477061Y333119D01*
X-477022Y333023D01*
X-476979Y332929D01*
X-476977Y332909D01*
X-476969Y332891D01*
X-476951Y332724D01*
X-476951Y322759D01*
X-475733Y319818D01*
X-473915Y318000D01*
X-473873Y317942D01*
X-473824Y317890D01*
X-473802Y317843D01*
X-473771Y317801D01*
X-473750Y317732D01*
X-473720Y317667D01*
X-473714Y317615D01*
X-473699Y317565D01*
X-473701Y317494D01*
X-473693Y317423D01*
X-473704Y317372D01*
X-473705Y317320D01*
X-473730Y317252D01*
X-473745Y317182D01*
X-473772Y317137D01*
X-473790Y317089D01*
X-473835Y317033D01*
X-473871Y316971D01*
X-473911Y316937D01*
X-473944Y316897D01*
X-474004Y316858D01*
X-474058Y316811D01*
X-474107Y316792D01*
X-474151Y316764D01*
X-474220Y316746D01*
X-474287Y316719D01*
X-474358Y316711D01*
X-474389Y316703D01*
X-474412Y316705D01*
X-474453Y316701D01*
X-474818Y316701D01*
X-482426Y313549D01*
X-488249Y307726D01*
X-491401Y300118D01*
X-491401Y291882D01*
X-488249Y284274D01*
X-478526Y274551D01*
X-470918Y271399D01*
X-410692Y271399D01*
X-410672Y271396D01*
X-410653Y271398D01*
X-410551Y271376D01*
X-410449Y271360D01*
X-410432Y271350D01*
X-410412Y271346D01*
X-410323Y271293D01*
X-410232Y271244D01*
X-410218Y271230D01*
X-410201Y271220D01*
X-410134Y271141D01*
X-410062Y271066D01*
X-410054Y271048D01*
X-410041Y271033D01*
X-410002Y270937D01*
X-409959Y270843D01*
X-409957Y270823D01*
X-409949Y270805D01*
X-409931Y270638D01*
X-409931Y264070D01*
X-407359Y257862D01*
X-402608Y253111D01*
X-396400Y250539D01*
X-389680Y250539D01*
G37*
%LPD*%
G36*
X-495715Y374027D02*
X-495715Y374027D01*
X-495781Y374029D01*
X-495824Y374047D01*
X-495871Y374055D01*
X-495928Y374089D01*
X-495988Y374114D01*
X-496023Y374145D01*
X-496064Y374170D01*
X-496106Y374221D01*
X-496154Y374265D01*
X-496176Y374307D01*
X-496205Y374344D01*
X-496226Y374406D01*
X-496257Y374465D01*
X-496265Y374519D01*
X-496277Y374556D01*
X-496276Y374596D01*
X-496284Y374650D01*
X-496284Y501650D01*
X-496273Y501715D01*
X-496271Y501781D01*
X-496253Y501824D01*
X-496245Y501871D01*
X-496211Y501928D01*
X-496186Y501988D01*
X-496155Y502023D01*
X-496130Y502064D01*
X-496079Y502106D01*
X-496035Y502154D01*
X-495993Y502176D01*
X-495956Y502205D01*
X-495894Y502226D01*
X-495835Y502257D01*
X-495781Y502265D01*
X-495744Y502277D01*
X-495704Y502276D01*
X-495650Y502284D01*
X-400050Y502284D01*
X-399985Y502273D01*
X-399919Y502271D01*
X-399876Y502253D01*
X-399829Y502245D01*
X-399772Y502211D01*
X-399712Y502186D01*
X-399677Y502155D01*
X-399636Y502130D01*
X-399595Y502079D01*
X-399546Y502035D01*
X-399524Y501993D01*
X-399495Y501956D01*
X-399474Y501894D01*
X-399443Y501835D01*
X-399435Y501781D01*
X-399423Y501744D01*
X-399424Y501704D01*
X-399416Y501650D01*
X-399416Y381000D01*
X-399423Y380958D01*
X-399421Y380916D01*
X-399437Y380868D01*
X-399437Y380862D01*
X-399444Y380846D01*
X-399455Y380779D01*
X-399477Y380743D01*
X-399490Y380702D01*
X-399516Y380668D01*
X-399521Y380654D01*
X-399544Y380629D01*
X-399570Y380586D01*
X-399586Y380573D01*
X-399602Y380552D01*
X-405952Y374202D01*
X-405986Y374177D01*
X-406015Y374146D01*
X-406078Y374114D01*
X-406136Y374073D01*
X-406177Y374063D01*
X-406215Y374043D01*
X-406304Y374030D01*
X-406353Y374018D01*
X-406374Y374020D01*
X-406400Y374016D01*
X-495650Y374016D01*
X-495715Y374027D01*
G37*
%LPC*%
G36*
X-193382Y244999D02*
X-193382Y244999D01*
X-185774Y248151D01*
X-179951Y253974D01*
X-176799Y261582D01*
X-176799Y269818D01*
X-179951Y277426D01*
X-214074Y311549D01*
X-221682Y314701D01*
X-267175Y314701D01*
X-267240Y314711D01*
X-267306Y314712D01*
X-267386Y314735D01*
X-267418Y314740D01*
X-267435Y314750D01*
X-267467Y314759D01*
X-269982Y315801D01*
X-334618Y315801D01*
X-342226Y312649D01*
X-348049Y306826D01*
X-351201Y299218D01*
X-351201Y290982D01*
X-348049Y283374D01*
X-342119Y277444D01*
X-340956Y276281D01*
X-333348Y273129D01*
X-325112Y273129D01*
X-322186Y274341D01*
X-322122Y274356D01*
X-322062Y274381D01*
X-321979Y274390D01*
X-321947Y274397D01*
X-321927Y274396D01*
X-321895Y274399D01*
X-281339Y274399D01*
X-281274Y274389D01*
X-281209Y274388D01*
X-281129Y274365D01*
X-281096Y274360D01*
X-281079Y274350D01*
X-281048Y274341D01*
X-276118Y272299D01*
X-267882Y272299D01*
X-265608Y273241D01*
X-265544Y273256D01*
X-265483Y273281D01*
X-265401Y273290D01*
X-265369Y273297D01*
X-265349Y273296D01*
X-265317Y273299D01*
X-234690Y273299D01*
X-234600Y273285D01*
X-234509Y273277D01*
X-234479Y273265D01*
X-234447Y273260D01*
X-234366Y273217D01*
X-234283Y273181D01*
X-234250Y273155D01*
X-234230Y273144D01*
X-234208Y273121D01*
X-234152Y273076D01*
X-209226Y248151D01*
X-201618Y244999D01*
X-193382Y244999D01*
G37*
%LPD*%
G36*
X-450937Y602247D02*
X-450937Y602247D01*
X-451024Y602250D01*
X-451077Y602267D01*
X-451132Y602275D01*
X-451211Y602310D01*
X-451295Y602337D01*
X-451334Y602365D01*
X-451391Y602391D01*
X-451504Y602487D01*
X-451568Y602532D01*
X-457918Y608882D01*
X-457970Y608952D01*
X-458030Y609016D01*
X-458056Y609065D01*
X-458089Y609109D01*
X-458120Y609191D01*
X-458160Y609269D01*
X-458168Y609317D01*
X-458190Y609375D01*
X-458202Y609523D01*
X-458215Y609600D01*
X-458215Y615530D01*
X-469412Y626726D01*
X-469429Y626750D01*
X-469452Y626769D01*
X-469515Y626863D01*
X-469583Y626953D01*
X-469593Y626981D01*
X-469610Y627005D01*
X-469644Y627113D01*
X-469684Y627219D01*
X-469686Y627248D01*
X-469695Y627276D01*
X-469698Y627390D01*
X-469708Y627502D01*
X-469702Y627531D01*
X-469703Y627560D01*
X-469674Y627670D01*
X-469652Y627781D01*
X-469638Y627807D01*
X-469631Y627835D01*
X-469573Y627933D01*
X-469521Y628033D01*
X-469501Y628055D01*
X-469486Y628080D01*
X-469403Y628157D01*
X-469325Y628239D01*
X-469300Y628254D01*
X-469278Y628274D01*
X-469177Y628326D01*
X-469080Y628383D01*
X-469051Y628390D01*
X-469025Y628404D01*
X-468948Y628417D01*
X-468804Y628453D01*
X-468742Y628451D01*
X-468694Y628459D01*
X-467249Y628459D01*
X-467249Y634016D01*
X-467241Y634074D01*
X-467243Y634132D01*
X-467221Y634214D01*
X-467209Y634297D01*
X-467186Y634351D01*
X-467171Y634407D01*
X-467128Y634480D01*
X-467093Y634557D01*
X-467055Y634601D01*
X-467026Y634652D01*
X-466964Y634709D01*
X-466910Y634774D01*
X-466861Y634806D01*
X-466818Y634846D01*
X-466743Y634885D01*
X-466673Y634931D01*
X-466617Y634949D01*
X-466565Y634976D01*
X-466497Y634987D01*
X-466455Y635000D01*
X-466516Y635009D01*
X-466569Y635033D01*
X-466625Y635047D01*
X-466698Y635091D01*
X-466775Y635125D01*
X-466820Y635163D01*
X-466870Y635193D01*
X-466928Y635254D01*
X-466992Y635309D01*
X-467024Y635357D01*
X-467064Y635400D01*
X-467103Y635475D01*
X-467150Y635545D01*
X-467167Y635601D01*
X-467194Y635653D01*
X-467205Y635721D01*
X-467235Y635816D01*
X-467238Y635916D01*
X-467249Y635984D01*
X-467249Y641541D01*
X-469900Y641541D01*
X-469958Y641549D01*
X-470016Y641547D01*
X-470098Y641569D01*
X-470182Y641581D01*
X-470235Y641604D01*
X-470291Y641619D01*
X-470364Y641662D01*
X-470441Y641697D01*
X-470486Y641735D01*
X-470536Y641764D01*
X-470594Y641826D01*
X-470658Y641880D01*
X-470690Y641929D01*
X-470730Y641972D01*
X-470769Y642047D01*
X-470816Y642117D01*
X-470833Y642173D01*
X-470860Y642225D01*
X-470871Y642293D01*
X-470901Y642388D01*
X-470904Y642488D01*
X-470915Y642556D01*
X-470915Y650844D01*
X-470907Y650902D01*
X-470909Y650960D01*
X-470887Y651042D01*
X-470875Y651126D01*
X-470852Y651179D01*
X-470837Y651235D01*
X-470794Y651308D01*
X-470759Y651385D01*
X-470721Y651430D01*
X-470692Y651480D01*
X-470630Y651538D01*
X-470576Y651602D01*
X-470527Y651634D01*
X-470484Y651674D01*
X-470409Y651713D01*
X-470339Y651760D01*
X-470283Y651777D01*
X-470231Y651804D01*
X-470163Y651815D01*
X-470068Y651845D01*
X-469968Y651848D01*
X-469900Y651859D01*
X-469249Y651859D01*
X-469249Y659416D01*
X-469241Y659474D01*
X-469243Y659532D01*
X-469221Y659614D01*
X-469209Y659697D01*
X-469186Y659751D01*
X-469171Y659807D01*
X-469128Y659880D01*
X-469093Y659957D01*
X-469055Y660001D01*
X-469026Y660052D01*
X-468964Y660109D01*
X-468910Y660174D01*
X-468861Y660206D01*
X-468818Y660246D01*
X-468743Y660285D01*
X-468673Y660331D01*
X-468617Y660349D01*
X-468565Y660376D01*
X-468497Y660387D01*
X-468455Y660400D01*
X-468516Y660409D01*
X-468569Y660433D01*
X-468625Y660447D01*
X-468698Y660491D01*
X-468775Y660525D01*
X-468820Y660563D01*
X-468870Y660593D01*
X-468928Y660654D01*
X-468992Y660709D01*
X-469024Y660757D01*
X-469064Y660800D01*
X-469103Y660875D01*
X-469150Y660945D01*
X-469167Y661001D01*
X-469194Y661053D01*
X-469205Y661121D01*
X-469235Y661216D01*
X-469238Y661316D01*
X-469249Y661384D01*
X-469249Y668416D01*
X-469237Y668503D01*
X-469234Y668590D01*
X-469217Y668643D01*
X-469209Y668697D01*
X-469174Y668777D01*
X-469147Y668861D01*
X-469119Y668900D01*
X-469093Y668957D01*
X-468997Y669070D01*
X-468952Y669134D01*
X-464268Y673818D01*
X-464198Y673870D01*
X-464134Y673930D01*
X-464085Y673956D01*
X-464041Y673989D01*
X-463959Y674020D01*
X-463881Y674060D01*
X-463834Y674068D01*
X-463775Y674090D01*
X-463627Y674102D01*
X-463550Y674115D01*
X-438150Y674115D01*
X-438063Y674103D01*
X-437976Y674100D01*
X-437923Y674083D01*
X-437869Y674075D01*
X-437789Y674040D01*
X-437705Y674013D01*
X-437666Y673985D01*
X-437609Y673959D01*
X-437496Y673863D01*
X-437432Y673818D01*
X-431082Y667468D01*
X-431030Y667398D01*
X-430970Y667334D01*
X-430944Y667285D01*
X-430911Y667241D01*
X-430880Y667159D01*
X-430840Y667081D01*
X-430832Y667034D01*
X-430810Y666975D01*
X-430798Y666827D01*
X-430785Y666750D01*
X-430785Y642556D01*
X-430793Y642498D01*
X-430791Y642440D01*
X-430813Y642358D01*
X-430825Y642274D01*
X-430849Y642221D01*
X-430863Y642165D01*
X-430906Y642092D01*
X-430941Y642015D01*
X-430979Y641970D01*
X-431009Y641920D01*
X-431070Y641862D01*
X-431125Y641798D01*
X-431173Y641766D01*
X-431216Y641726D01*
X-431291Y641687D01*
X-431361Y641640D01*
X-431417Y641623D01*
X-431469Y641596D01*
X-431537Y641585D01*
X-431632Y641555D01*
X-431732Y641552D01*
X-431800Y641541D01*
X-434451Y641541D01*
X-434451Y635984D01*
X-434459Y635926D01*
X-434457Y635868D01*
X-434479Y635786D01*
X-434491Y635703D01*
X-434514Y635649D01*
X-434529Y635593D01*
X-434572Y635520D01*
X-434607Y635443D01*
X-434645Y635399D01*
X-434674Y635348D01*
X-434736Y635291D01*
X-434790Y635226D01*
X-434839Y635194D01*
X-434882Y635154D01*
X-434957Y635115D01*
X-435027Y635069D01*
X-435083Y635051D01*
X-435135Y635024D01*
X-435203Y635013D01*
X-435245Y635000D01*
X-435184Y634991D01*
X-435131Y634967D01*
X-435075Y634953D01*
X-435002Y634909D01*
X-434925Y634875D01*
X-434880Y634837D01*
X-434830Y634807D01*
X-434772Y634746D01*
X-434708Y634691D01*
X-434676Y634643D01*
X-434636Y634600D01*
X-434597Y634525D01*
X-434550Y634455D01*
X-434533Y634399D01*
X-434506Y634347D01*
X-434495Y634279D01*
X-434465Y634184D01*
X-434462Y634084D01*
X-434451Y634016D01*
X-434451Y628459D01*
X-431800Y628459D01*
X-431742Y628451D01*
X-431684Y628453D01*
X-431602Y628431D01*
X-431519Y628419D01*
X-431465Y628396D01*
X-431409Y628381D01*
X-431336Y628338D01*
X-431259Y628303D01*
X-431214Y628265D01*
X-431164Y628236D01*
X-431106Y628174D01*
X-431042Y628120D01*
X-431010Y628071D01*
X-430970Y628028D01*
X-430931Y627953D01*
X-430885Y627883D01*
X-430867Y627827D01*
X-430840Y627775D01*
X-430829Y627707D01*
X-430799Y627612D01*
X-430796Y627512D01*
X-430785Y627444D01*
X-430785Y616916D01*
X-430793Y616858D01*
X-430791Y616800D01*
X-430813Y616718D01*
X-430825Y616634D01*
X-430849Y616581D01*
X-430863Y616525D01*
X-430906Y616452D01*
X-430941Y616375D01*
X-430979Y616330D01*
X-431009Y616280D01*
X-431070Y616222D01*
X-431125Y616158D01*
X-431173Y616126D01*
X-431216Y616086D01*
X-431291Y616047D01*
X-431361Y616000D01*
X-431417Y615983D01*
X-431469Y615956D01*
X-431537Y615945D01*
X-431632Y615915D01*
X-431732Y615912D01*
X-431800Y615901D01*
X-434041Y615901D01*
X-434041Y608344D01*
X-434049Y608286D01*
X-434047Y608228D01*
X-434069Y608146D01*
X-434081Y608063D01*
X-434104Y608009D01*
X-434119Y607953D01*
X-434162Y607880D01*
X-434197Y607803D01*
X-434235Y607759D01*
X-434264Y607708D01*
X-434326Y607651D01*
X-434380Y607586D01*
X-434429Y607554D01*
X-434472Y607514D01*
X-434547Y607475D01*
X-434617Y607429D01*
X-434673Y607411D01*
X-434725Y607384D01*
X-434793Y607373D01*
X-434888Y607343D01*
X-434988Y607340D01*
X-435056Y607329D01*
X-436009Y607329D01*
X-436009Y606376D01*
X-436017Y606318D01*
X-436016Y606260D01*
X-436037Y606178D01*
X-436049Y606094D01*
X-436073Y606041D01*
X-436087Y605985D01*
X-436131Y605912D01*
X-436165Y605835D01*
X-436203Y605790D01*
X-436233Y605740D01*
X-436294Y605682D01*
X-436349Y605618D01*
X-436397Y605586D01*
X-436440Y605546D01*
X-436515Y605507D01*
X-436585Y605460D01*
X-436641Y605443D01*
X-436693Y605416D01*
X-436761Y605405D01*
X-436856Y605375D01*
X-436956Y605372D01*
X-437024Y605361D01*
X-442581Y605361D01*
X-442581Y603250D01*
X-442589Y603192D01*
X-442587Y603134D01*
X-442609Y603052D01*
X-442621Y602969D01*
X-442644Y602915D01*
X-442659Y602859D01*
X-442702Y602786D01*
X-442737Y602709D01*
X-442775Y602664D01*
X-442804Y602614D01*
X-442866Y602556D01*
X-442920Y602492D01*
X-442969Y602460D01*
X-443012Y602420D01*
X-443087Y602381D01*
X-443157Y602335D01*
X-443213Y602317D01*
X-443265Y602290D01*
X-443333Y602279D01*
X-443428Y602249D01*
X-443528Y602246D01*
X-443596Y602235D01*
X-450850Y602235D01*
X-450937Y602247D01*
G37*
%LPC*%
G36*
X-529956Y577089D02*
X-529956Y577089D01*
X-523302Y578872D01*
X-517337Y582316D01*
X-512466Y587187D01*
X-509022Y593152D01*
X-507239Y599806D01*
X-507239Y606694D01*
X-509022Y613348D01*
X-512466Y619313D01*
X-517337Y624184D01*
X-523302Y627628D01*
X-529956Y629411D01*
X-536844Y629411D01*
X-543498Y627628D01*
X-549463Y624184D01*
X-554334Y619313D01*
X-557778Y613348D01*
X-559561Y606694D01*
X-559561Y599806D01*
X-557778Y593152D01*
X-554334Y587187D01*
X-549463Y582316D01*
X-543498Y578872D01*
X-536844Y577089D01*
X-529956Y577089D01*
G37*
%LPD*%
%LPC*%
G36*
X-529956Y507239D02*
X-529956Y507239D01*
X-523302Y509022D01*
X-517337Y512466D01*
X-512466Y517337D01*
X-509022Y523302D01*
X-507239Y529956D01*
X-507239Y536844D01*
X-509022Y543498D01*
X-512466Y549463D01*
X-517337Y554334D01*
X-523302Y557778D01*
X-529956Y559561D01*
X-536844Y559561D01*
X-543498Y557778D01*
X-549463Y554334D01*
X-554334Y549463D01*
X-557778Y543498D01*
X-559561Y536844D01*
X-559561Y529956D01*
X-557778Y523302D01*
X-554334Y517337D01*
X-549463Y512466D01*
X-543498Y509022D01*
X-536844Y507239D01*
X-529956Y507239D01*
G37*
%LPD*%
%LPC*%
G36*
X-529956Y373889D02*
X-529956Y373889D01*
X-523302Y375672D01*
X-517337Y379116D01*
X-512466Y383987D01*
X-509022Y389952D01*
X-507239Y396606D01*
X-507239Y403494D01*
X-509022Y410148D01*
X-512466Y416113D01*
X-517337Y420984D01*
X-523302Y424428D01*
X-529956Y426211D01*
X-536844Y426211D01*
X-543498Y424428D01*
X-549463Y420984D01*
X-554334Y416113D01*
X-557778Y410148D01*
X-559561Y403494D01*
X-559561Y396606D01*
X-557778Y389952D01*
X-554334Y383987D01*
X-549463Y379116D01*
X-543498Y375672D01*
X-536844Y373889D01*
X-529956Y373889D01*
G37*
%LPD*%
G36*
X-73687Y493271D02*
X-73687Y493271D01*
X-73713Y493269D01*
X-73887Y493291D01*
X-74061Y493309D01*
X-74086Y493317D01*
X-74113Y493320D01*
X-74278Y493376D01*
X-74446Y493427D01*
X-74469Y493440D01*
X-74494Y493448D01*
X-74646Y493535D01*
X-74800Y493619D01*
X-74820Y493636D01*
X-74843Y493649D01*
X-75096Y493864D01*
X-80176Y498944D01*
X-80193Y498964D01*
X-80214Y498982D01*
X-80321Y499120D01*
X-80431Y499255D01*
X-80444Y499279D01*
X-80460Y499300D01*
X-80538Y499457D01*
X-80620Y499611D01*
X-80628Y499636D01*
X-80640Y499661D01*
X-80685Y499830D01*
X-80735Y499997D01*
X-80737Y500023D01*
X-80744Y500049D01*
X-80771Y500380D01*
X-80771Y518160D01*
X-80769Y518187D01*
X-80771Y518213D01*
X-80749Y518387D01*
X-80731Y518561D01*
X-80724Y518586D01*
X-80720Y518613D01*
X-80665Y518778D01*
X-80613Y518946D01*
X-80600Y518969D01*
X-80592Y518994D01*
X-80505Y519146D01*
X-80421Y519300D01*
X-80404Y519320D01*
X-80391Y519343D01*
X-80176Y519596D01*
X-72556Y527216D01*
X-72541Y527229D01*
X-72529Y527242D01*
X-72525Y527246D01*
X-72518Y527254D01*
X-72380Y527361D01*
X-72245Y527471D01*
X-72221Y527484D01*
X-72200Y527500D01*
X-72043Y527578D01*
X-71889Y527660D01*
X-71864Y527668D01*
X-71840Y527680D01*
X-71670Y527725D01*
X-71503Y527775D01*
X-71477Y527777D01*
X-71451Y527784D01*
X-71120Y527811D01*
X-55880Y527811D01*
X-55853Y527809D01*
X-55827Y527811D01*
X-55653Y527789D01*
X-55479Y527771D01*
X-55454Y527764D01*
X-55427Y527760D01*
X-55262Y527705D01*
X-55094Y527653D01*
X-55071Y527640D01*
X-55046Y527632D01*
X-54894Y527545D01*
X-54740Y527461D01*
X-54720Y527444D01*
X-54697Y527431D01*
X-54444Y527216D01*
X-47419Y520191D01*
X-20320Y520191D01*
X-20302Y520189D01*
X-20284Y520191D01*
X-20102Y520170D01*
X-19919Y520151D01*
X-19902Y520146D01*
X-19885Y520144D01*
X-19710Y520087D01*
X-19534Y520033D01*
X-19519Y520025D01*
X-19502Y520019D01*
X-19342Y519929D01*
X-19180Y519841D01*
X-19167Y519830D01*
X-19151Y519821D01*
X-19012Y519701D01*
X-18871Y519584D01*
X-18860Y519570D01*
X-18847Y519558D01*
X-18734Y519413D01*
X-18619Y519270D01*
X-18611Y519254D01*
X-18600Y519240D01*
X-18518Y519075D01*
X-18433Y518913D01*
X-18428Y518896D01*
X-18420Y518880D01*
X-18373Y518701D01*
X-18322Y518526D01*
X-18320Y518508D01*
X-18316Y518491D01*
X-18289Y518160D01*
X-18289Y502920D01*
X-18291Y502893D01*
X-18289Y502867D01*
X-18311Y502693D01*
X-18329Y502519D01*
X-18337Y502494D01*
X-18340Y502467D01*
X-18396Y502302D01*
X-18447Y502134D01*
X-18460Y502111D01*
X-18468Y502086D01*
X-18555Y501934D01*
X-18639Y501780D01*
X-18656Y501760D01*
X-18669Y501737D01*
X-18884Y501484D01*
X-21424Y498944D01*
X-21444Y498927D01*
X-21462Y498907D01*
X-21600Y498799D01*
X-21735Y498689D01*
X-21759Y498676D01*
X-21780Y498660D01*
X-21937Y498582D01*
X-22091Y498500D01*
X-22116Y498492D01*
X-22141Y498480D01*
X-22310Y498435D01*
X-22477Y498385D01*
X-22503Y498383D01*
X-22529Y498376D01*
X-22860Y498349D01*
X-49959Y498349D01*
X-54444Y493864D01*
X-54464Y493847D01*
X-54482Y493827D01*
X-54620Y493719D01*
X-54755Y493609D01*
X-54779Y493596D01*
X-54800Y493580D01*
X-54957Y493502D01*
X-55111Y493420D01*
X-55136Y493412D01*
X-55161Y493400D01*
X-55330Y493355D01*
X-55497Y493305D01*
X-55523Y493303D01*
X-55549Y493296D01*
X-55880Y493269D01*
X-73660Y493269D01*
X-73687Y493271D01*
G37*
G36*
X-180367Y648211D02*
X-180367Y648211D01*
X-180393Y648209D01*
X-180567Y648231D01*
X-180741Y648249D01*
X-180766Y648257D01*
X-180793Y648260D01*
X-180958Y648316D01*
X-181126Y648367D01*
X-181149Y648380D01*
X-181174Y648388D01*
X-181326Y648475D01*
X-181480Y648559D01*
X-181500Y648576D01*
X-181523Y648589D01*
X-181776Y648804D01*
X-186261Y653289D01*
X-213360Y653289D01*
X-213387Y653291D01*
X-213413Y653289D01*
X-213587Y653311D01*
X-213761Y653329D01*
X-213786Y653337D01*
X-213813Y653340D01*
X-213978Y653396D01*
X-214146Y653447D01*
X-214169Y653460D01*
X-214194Y653468D01*
X-214346Y653555D01*
X-214500Y653639D01*
X-214520Y653656D01*
X-214543Y653669D01*
X-214796Y653884D01*
X-217336Y656424D01*
X-217353Y656444D01*
X-217374Y656462D01*
X-217481Y656600D01*
X-217591Y656735D01*
X-217604Y656759D01*
X-217620Y656780D01*
X-217698Y656937D01*
X-217780Y657091D01*
X-217788Y657116D01*
X-217800Y657141D01*
X-217845Y657310D01*
X-217895Y657477D01*
X-217897Y657503D01*
X-217904Y657529D01*
X-217931Y657860D01*
X-217931Y668020D01*
X-217929Y668047D01*
X-217931Y668073D01*
X-217909Y668247D01*
X-217891Y668421D01*
X-217884Y668446D01*
X-217880Y668473D01*
X-217825Y668638D01*
X-217773Y668806D01*
X-217760Y668829D01*
X-217752Y668854D01*
X-217665Y669006D01*
X-217581Y669160D01*
X-217564Y669180D01*
X-217551Y669203D01*
X-217336Y669456D01*
X-214796Y671996D01*
X-214779Y672010D01*
X-214766Y672026D01*
X-214763Y672028D01*
X-214758Y672034D01*
X-214620Y672141D01*
X-214485Y672251D01*
X-214461Y672264D01*
X-214440Y672280D01*
X-214283Y672358D01*
X-214129Y672440D01*
X-214104Y672448D01*
X-214080Y672460D01*
X-213910Y672505D01*
X-213743Y672555D01*
X-213717Y672557D01*
X-213691Y672564D01*
X-213360Y672591D01*
X-188801Y672591D01*
X-184316Y677076D01*
X-184296Y677093D01*
X-184278Y677114D01*
X-184140Y677221D01*
X-184005Y677331D01*
X-183981Y677344D01*
X-183960Y677360D01*
X-183803Y677438D01*
X-183649Y677520D01*
X-183624Y677528D01*
X-183600Y677540D01*
X-183430Y677585D01*
X-183263Y677635D01*
X-183237Y677637D01*
X-183211Y677644D01*
X-182880Y677671D01*
X-165100Y677671D01*
X-165073Y677669D01*
X-165047Y677671D01*
X-164873Y677649D01*
X-164699Y677631D01*
X-164674Y677624D01*
X-164647Y677620D01*
X-164482Y677565D01*
X-164314Y677513D01*
X-164291Y677500D01*
X-164266Y677492D01*
X-164114Y677405D01*
X-163960Y677321D01*
X-163940Y677304D01*
X-163917Y677291D01*
X-163664Y677076D01*
X-161124Y674536D01*
X-161107Y674516D01*
X-161087Y674498D01*
X-160979Y674360D01*
X-160869Y674225D01*
X-160856Y674201D01*
X-160840Y674180D01*
X-160762Y674023D01*
X-160680Y673869D01*
X-160672Y673844D01*
X-160660Y673820D01*
X-160615Y673650D01*
X-160565Y673483D01*
X-160563Y673457D01*
X-160556Y673431D01*
X-160529Y673100D01*
X-160529Y652780D01*
X-160531Y652753D01*
X-160529Y652727D01*
X-160551Y652553D01*
X-160569Y652379D01*
X-160577Y652354D01*
X-160580Y652327D01*
X-160636Y652162D01*
X-160687Y651994D01*
X-160700Y651971D01*
X-160708Y651946D01*
X-160795Y651794D01*
X-160879Y651640D01*
X-160896Y651620D01*
X-160909Y651597D01*
X-161124Y651344D01*
X-163664Y648804D01*
X-163684Y648787D01*
X-163702Y648767D01*
X-163840Y648659D01*
X-163975Y648549D01*
X-163999Y648536D01*
X-164020Y648520D01*
X-164177Y648442D01*
X-164331Y648360D01*
X-164356Y648352D01*
X-164381Y648340D01*
X-164550Y648295D01*
X-164717Y648245D01*
X-164743Y648243D01*
X-164769Y648236D01*
X-165100Y648209D01*
X-180340Y648209D01*
X-180367Y648211D01*
G37*
G36*
X-370867Y577091D02*
X-370867Y577091D01*
X-370893Y577089D01*
X-371067Y577111D01*
X-371241Y577129D01*
X-371266Y577137D01*
X-371293Y577140D01*
X-371458Y577196D01*
X-371626Y577247D01*
X-371649Y577260D01*
X-371674Y577268D01*
X-371826Y577355D01*
X-371980Y577439D01*
X-372000Y577456D01*
X-372023Y577469D01*
X-372276Y577684D01*
X-374816Y580224D01*
X-374833Y580244D01*
X-374854Y580262D01*
X-374961Y580400D01*
X-375071Y580535D01*
X-375084Y580559D01*
X-375100Y580580D01*
X-375178Y580737D01*
X-375260Y580891D01*
X-375268Y580916D01*
X-375280Y580941D01*
X-375325Y581110D01*
X-375375Y581277D01*
X-375377Y581303D01*
X-375384Y581329D01*
X-375411Y581660D01*
X-375411Y590979D01*
X-379896Y595464D01*
X-379913Y595484D01*
X-379934Y595502D01*
X-380041Y595640D01*
X-380151Y595775D01*
X-380164Y595799D01*
X-380180Y595820D01*
X-380258Y595977D01*
X-380340Y596131D01*
X-380348Y596156D01*
X-380360Y596181D01*
X-380405Y596350D01*
X-380455Y596517D01*
X-380457Y596543D01*
X-380464Y596569D01*
X-380491Y596900D01*
X-380491Y607060D01*
X-380489Y607087D01*
X-380491Y607113D01*
X-380469Y607287D01*
X-380451Y607461D01*
X-380444Y607486D01*
X-380440Y607513D01*
X-380385Y607678D01*
X-380333Y607846D01*
X-380320Y607869D01*
X-380312Y607894D01*
X-380225Y608046D01*
X-380141Y608200D01*
X-380124Y608220D01*
X-380111Y608243D01*
X-379896Y608496D01*
X-374816Y613576D01*
X-374796Y613593D01*
X-374778Y613614D01*
X-374640Y613721D01*
X-374505Y613831D01*
X-374481Y613844D01*
X-374460Y613860D01*
X-374303Y613938D01*
X-374149Y614020D01*
X-374124Y614028D01*
X-374100Y614040D01*
X-373930Y614085D01*
X-373763Y614135D01*
X-373737Y614137D01*
X-373711Y614144D01*
X-373380Y614171D01*
X-363220Y614171D01*
X-363193Y614169D01*
X-363167Y614171D01*
X-362993Y614149D01*
X-362819Y614131D01*
X-362794Y614124D01*
X-362767Y614120D01*
X-362602Y614065D01*
X-362434Y614013D01*
X-362411Y614000D01*
X-362386Y613992D01*
X-362234Y613905D01*
X-362080Y613821D01*
X-362060Y613804D01*
X-362037Y613791D01*
X-361784Y613576D01*
X-356704Y608496D01*
X-356687Y608476D01*
X-356667Y608458D01*
X-356559Y608320D01*
X-356449Y608185D01*
X-356436Y608161D01*
X-356420Y608140D01*
X-356342Y607983D01*
X-356260Y607829D01*
X-356252Y607804D01*
X-356240Y607780D01*
X-356195Y607610D01*
X-356145Y607443D01*
X-356143Y607417D01*
X-356136Y607391D01*
X-356109Y607060D01*
X-356109Y599440D01*
X-356111Y599413D01*
X-356109Y599387D01*
X-356131Y599213D01*
X-356149Y599039D01*
X-356157Y599014D01*
X-356160Y598987D01*
X-356216Y598822D01*
X-356267Y598654D01*
X-356280Y598631D01*
X-356288Y598606D01*
X-356375Y598454D01*
X-356459Y598300D01*
X-356476Y598280D01*
X-356489Y598257D01*
X-356704Y598004D01*
X-361189Y593519D01*
X-361189Y581660D01*
X-361191Y581633D01*
X-361189Y581607D01*
X-361211Y581433D01*
X-361229Y581259D01*
X-361237Y581234D01*
X-361240Y581207D01*
X-361296Y581042D01*
X-361347Y580874D01*
X-361360Y580851D01*
X-361368Y580826D01*
X-361455Y580674D01*
X-361539Y580520D01*
X-361556Y580500D01*
X-361569Y580477D01*
X-361784Y580224D01*
X-364324Y577684D01*
X-364344Y577667D01*
X-364362Y577647D01*
X-364500Y577539D01*
X-364635Y577429D01*
X-364659Y577416D01*
X-364680Y577400D01*
X-364837Y577322D01*
X-364991Y577240D01*
X-365016Y577232D01*
X-365041Y577220D01*
X-365210Y577175D01*
X-365377Y577125D01*
X-365403Y577123D01*
X-365429Y577116D01*
X-365760Y577089D01*
X-370840Y577089D01*
X-370867Y577091D01*
G37*
G36*
X-472458Y511051D02*
X-472458Y511051D01*
X-472476Y511049D01*
X-472658Y511070D01*
X-472841Y511089D01*
X-472858Y511094D01*
X-472875Y511096D01*
X-473050Y511153D01*
X-473226Y511207D01*
X-473241Y511215D01*
X-473258Y511221D01*
X-473418Y511311D01*
X-473580Y511399D01*
X-473593Y511410D01*
X-473609Y511419D01*
X-473748Y511539D01*
X-473889Y511656D01*
X-473900Y511670D01*
X-473914Y511682D01*
X-474026Y511827D01*
X-474141Y511970D01*
X-474149Y511986D01*
X-474160Y512000D01*
X-474242Y512165D01*
X-474327Y512327D01*
X-474332Y512344D01*
X-474340Y512361D01*
X-474387Y512539D01*
X-474438Y512714D01*
X-474440Y512732D01*
X-474444Y512749D01*
X-474471Y513080D01*
X-474471Y546100D01*
X-474469Y546118D01*
X-474471Y546136D01*
X-474450Y546318D01*
X-474431Y546501D01*
X-474426Y546518D01*
X-474424Y546535D01*
X-474367Y546710D01*
X-474313Y546886D01*
X-474305Y546901D01*
X-474299Y546918D01*
X-474209Y547078D01*
X-474121Y547240D01*
X-474110Y547253D01*
X-474101Y547269D01*
X-473981Y547408D01*
X-473864Y547549D01*
X-473850Y547560D01*
X-473838Y547574D01*
X-473693Y547686D01*
X-473550Y547801D01*
X-473534Y547809D01*
X-473520Y547820D01*
X-473355Y547902D01*
X-473193Y547987D01*
X-473176Y547992D01*
X-473160Y548000D01*
X-472981Y548047D01*
X-472806Y548098D01*
X-472788Y548100D01*
X-472771Y548104D01*
X-472440Y548131D01*
X-459740Y548131D01*
X-459722Y548129D01*
X-459704Y548131D01*
X-459522Y548110D01*
X-459339Y548091D01*
X-459322Y548086D01*
X-459305Y548084D01*
X-459130Y548027D01*
X-458954Y547973D01*
X-458939Y547965D01*
X-458922Y547959D01*
X-458762Y547869D01*
X-458600Y547781D01*
X-458587Y547770D01*
X-458571Y547761D01*
X-458432Y547641D01*
X-458291Y547524D01*
X-458280Y547510D01*
X-458267Y547498D01*
X-458154Y547353D01*
X-458039Y547210D01*
X-458031Y547194D01*
X-458020Y547180D01*
X-457938Y547015D01*
X-457853Y546853D01*
X-457848Y546836D01*
X-457840Y546820D01*
X-457793Y546641D01*
X-457742Y546466D01*
X-457740Y546448D01*
X-457736Y546431D01*
X-457709Y546100D01*
X-457709Y513080D01*
X-457711Y513062D01*
X-457709Y513044D01*
X-457730Y512862D01*
X-457749Y512679D01*
X-457754Y512662D01*
X-457756Y512645D01*
X-457813Y512470D01*
X-457867Y512294D01*
X-457875Y512279D01*
X-457881Y512262D01*
X-457971Y512102D01*
X-458059Y511940D01*
X-458070Y511927D01*
X-458079Y511911D01*
X-458199Y511772D01*
X-458316Y511631D01*
X-458330Y511620D01*
X-458342Y511607D01*
X-458487Y511494D01*
X-458630Y511379D01*
X-458646Y511371D01*
X-458660Y511360D01*
X-458825Y511278D01*
X-458987Y511193D01*
X-459004Y511188D01*
X-459021Y511180D01*
X-459199Y511133D01*
X-459374Y511082D01*
X-459392Y511080D01*
X-459409Y511076D01*
X-459740Y511049D01*
X-472440Y511049D01*
X-472458Y511051D01*
G37*
%LPC*%
G36*
X-438039Y609359D02*
X-438039Y609359D01*
X-438039Y615901D01*
X-440374Y615901D01*
X-441021Y615728D01*
X-441600Y615393D01*
X-442073Y614920D01*
X-442408Y614341D01*
X-442581Y613694D01*
X-442581Y609359D01*
X-438039Y609359D01*
G37*
%LPD*%
%LPC*%
G36*
X-460709Y662399D02*
X-460709Y662399D01*
X-460709Y666734D01*
X-460882Y667381D01*
X-461217Y667960D01*
X-461690Y668433D01*
X-462269Y668768D01*
X-462916Y668941D01*
X-465251Y668941D01*
X-465251Y662399D01*
X-460709Y662399D01*
G37*
%LPD*%
%LPC*%
G36*
X-462916Y651859D02*
X-462916Y651859D01*
X-462269Y652032D01*
X-461690Y652367D01*
X-461217Y652840D01*
X-460882Y653419D01*
X-460709Y654066D01*
X-460709Y658401D01*
X-465251Y658401D01*
X-465251Y651859D01*
X-462916Y651859D01*
G37*
%LPD*%
%LPC*%
G36*
X-438449Y636999D02*
X-438449Y636999D01*
X-438449Y641541D01*
X-441284Y641541D01*
X-441931Y641368D01*
X-442510Y641033D01*
X-442983Y640560D01*
X-443318Y639981D01*
X-443491Y639334D01*
X-443491Y636999D01*
X-438449Y636999D01*
G37*
%LPD*%
%LPC*%
G36*
X-458209Y636999D02*
X-458209Y636999D01*
X-458209Y639334D01*
X-458382Y639981D01*
X-458717Y640560D01*
X-459190Y641033D01*
X-459769Y641368D01*
X-460416Y641541D01*
X-463251Y641541D01*
X-463251Y636999D01*
X-458209Y636999D01*
G37*
%LPD*%
%LPC*%
G36*
X-438449Y628459D02*
X-438449Y628459D01*
X-438449Y633001D01*
X-443491Y633001D01*
X-443491Y630666D01*
X-443318Y630019D01*
X-442983Y629440D01*
X-442510Y628967D01*
X-441931Y628632D01*
X-441284Y628459D01*
X-438449Y628459D01*
G37*
%LPD*%
%LPC*%
G36*
X-460416Y628459D02*
X-460416Y628459D01*
X-459769Y628632D01*
X-459190Y628967D01*
X-458717Y629440D01*
X-458382Y630019D01*
X-458209Y630666D01*
X-458209Y633001D01*
X-463251Y633001D01*
X-463251Y628459D01*
X-460416Y628459D01*
G37*
%LPD*%
D10*
X-371510Y582350D03*
X-389510Y582350D03*
D11*
X-393040Y242030D03*
D12*
X-393040Y267430D03*
D13*
X-436450Y635000D03*
X-415450Y644500D03*
X-415450Y625500D03*
D14*
X-422610Y587540D03*
X-413110Y566540D03*
X-432110Y566540D03*
D10*
X-418040Y607360D03*
X-436040Y607360D03*
X-416450Y730250D03*
X-434450Y730250D03*
D15*
X-376850Y730250D03*
X-397850Y730250D03*
D13*
X-121770Y635460D03*
X-100770Y644960D03*
X-100770Y625960D03*
D16*
X-81750Y592850D03*
X-81750Y610850D03*
D17*
X-208280Y408940D03*
X-208280Y434340D03*
X-208280Y459740D03*
X-208280Y485140D03*
X-208280Y510540D03*
X-208280Y535940D03*
X-208280Y561340D03*
X-208280Y586740D03*
X-208280Y612140D03*
X-208280Y637540D03*
X-208280Y662940D03*
X-30480Y662940D03*
X-30480Y637540D03*
X-30480Y612140D03*
X-30480Y586740D03*
X-30480Y561340D03*
X-30480Y535940D03*
X-30480Y510540D03*
X-30480Y485140D03*
X-30480Y459740D03*
X-30480Y434340D03*
X-30480Y408940D03*
D18*
X-308610Y412750D02*
X-323850Y412750D01*
X-326390Y438150D02*
X-311150Y438150D01*
X-308610Y463550D02*
X-323850Y463550D01*
X-326390Y488950D02*
X-311150Y488950D01*
X-308610Y514350D02*
X-323850Y514350D01*
X-326390Y539750D02*
X-311150Y539750D01*
X-308610Y565150D02*
X-323850Y565150D01*
X-326390Y590550D02*
X-311150Y590550D01*
D19*
X-460950Y339350D03*
X-415350Y339350D03*
D20*
X-438150Y411150D03*
D21*
X-278750Y135650D02*
X-278750Y105650D01*
X-238750Y105650D02*
X-238750Y135650D01*
X-38750Y135650D02*
X-38750Y105650D01*
X-78750Y105650D02*
X-78750Y135650D01*
X-198750Y135650D02*
X-198750Y105650D01*
X-158750Y105650D02*
X-158750Y135650D01*
D22*
X-339090Y-58420D03*
D23*
X-389090Y-58420D03*
D24*
X-54640Y-8890D03*
X-26640Y-8890D03*
X-26640Y57150D03*
X-54640Y57150D03*
D25*
X-147500Y265700D03*
X-197500Y265700D03*
D18*
X-374650Y678180D02*
X-374650Y693420D01*
X-349250Y695960D02*
X-349250Y680720D01*
X-323850Y678180D02*
X-323850Y693420D01*
X-298450Y695960D02*
X-298450Y680720D01*
X-273050Y678180D02*
X-273050Y693420D01*
D26*
X-330500Y295100D03*
X-373500Y295100D03*
D16*
X-488950Y327550D03*
X-488950Y345550D03*
X-488950Y365650D03*
X-488950Y383650D03*
D27*
X-274320Y34290D03*
X-274320Y-67310D03*
D28*
X-378460Y35560D03*
X-314960Y35560D03*
D25*
X-364490Y104620D03*
X-364490Y164620D03*
D22*
X-470700Y246000D03*
D23*
X-470700Y296000D03*
D29*
X-145650Y422250D03*
D12*
X-171050Y422250D03*
D10*
X-411370Y548640D03*
X-429370Y548640D03*
D16*
X-82850Y643840D03*
X-82850Y625840D03*
D30*
X-466290Y-62700D02*
X-489150Y-62700D01*
X-489150Y155740D02*
X-466290Y155740D01*
D31*
X-120540Y-11000D03*
D32*
X-170540Y-11000D03*
D31*
X-74000Y236000D03*
D32*
X-74000Y286000D03*
D31*
X-272000Y243000D03*
D32*
X-272000Y293000D03*
D33*
X-438150Y698500D03*
D34*
X-488150Y698500D03*
X-538150Y698500D03*
D13*
X-465250Y635000D03*
X-486250Y625500D03*
X-486250Y644500D03*
D10*
X-518050Y730250D03*
X-536050Y730250D03*
D15*
X-478450Y730250D03*
X-499450Y730250D03*
D10*
X-485250Y660400D03*
X-467250Y660400D03*
D14*
X-476250Y601550D03*
X-466750Y580550D03*
X-485750Y580550D03*
D10*
X-469790Y565150D03*
X-487790Y565150D03*
X-469790Y539750D03*
X-487790Y539750D03*
D35*
X-78750Y238770D02*
X-78750Y120650D01*
D36*
X-77500Y115600D02*
X-75446Y113546D01*
X-77500Y80010D02*
X-54640Y57150D01*
X-77500Y80010D02*
X-77500Y115600D01*
D37*
X-75446Y113546D02*
X-75446Y120650D01*
D38*
X-200660Y690880D02*
X-215900Y690880D01*
D35*
X-373500Y295100D02*
X-447500Y295100D01*
X-419100Y292100D02*
X-398500Y292100D01*
X-419100Y292100D02*
X-444500Y292100D01*
X-466800Y292100D01*
X-470700Y296000D01*
D38*
X-398500Y292100D02*
X-393040Y286640D01*
X-393040Y267430D01*
X-444500Y292100D02*
X-447500Y295100D01*
D39*
X-415350Y298850D02*
X-415350Y339350D01*
X-415350Y298850D02*
X-411600Y295100D01*
X-373500Y295100D01*
X-374950Y685500D02*
X-374650Y685800D01*
X-374950Y635300D02*
X-374650Y635000D01*
D40*
X-374650Y635000D03*
X-444500Y654050D03*
D39*
X-374950Y635300D02*
X-374950Y685500D01*
D40*
X-419100Y292100D03*
D37*
X-429370Y548640D02*
X-429570Y548840D01*
X-429570Y564000D02*
X-432110Y566540D01*
X-429570Y564000D02*
X-429570Y548840D01*
D41*
X-410790Y582350D02*
X-389510Y582350D01*
X-416560Y576580D02*
X-426720Y576580D01*
X-432110Y571190D01*
X-432110Y566540D01*
X-416560Y576580D02*
X-410790Y582350D01*
D37*
X-415450Y609950D02*
X-415450Y625500D01*
X-415450Y609950D02*
X-418040Y607360D01*
X-418040Y592110D01*
X-422610Y587540D01*
X-438150Y726550D02*
X-434450Y730250D01*
X-438150Y726550D02*
X-438150Y698500D01*
X-415450Y675800D02*
X-415450Y644500D01*
X-415450Y675800D02*
X-438150Y698500D01*
D38*
X-82850Y625840D02*
X-82850Y611950D01*
X-81750Y610850D01*
X-82850Y625840D02*
X-82970Y625960D01*
X-100770Y625960D01*
X-121770Y635460D02*
X-121770Y695810D01*
X-121920Y695960D01*
D42*
X-121920Y695960D03*
X-241300Y695960D03*
D38*
X-267970Y695960D02*
X-273050Y690880D01*
X-267970Y695960D02*
X-241300Y695960D01*
X-273050Y690880D02*
X-273050Y685800D01*
D43*
X-238750Y120650D02*
X-238750Y83810D01*
X-233680Y78740D01*
X-233680Y-58420D01*
D35*
X-242570Y-67310D02*
X-274320Y-67310D01*
X-242570Y-67310D02*
X-233680Y-58420D01*
X-274320Y-67310D02*
X-330200Y-67310D01*
X-339090Y-58420D01*
D36*
X-170540Y-11000D02*
X-198750Y120650D01*
D39*
X-158750Y120650D02*
X-156210Y118110D01*
D36*
X-158750Y120650D02*
X-157480Y83820D01*
X-120540Y-11000D01*
D39*
X-118430Y-8890D02*
X-54640Y-8890D01*
X-118430Y-8890D02*
X-120540Y-11000D01*
X-26640Y-8890D02*
X-26640Y57150D01*
D35*
X-38750Y120650D02*
X-38100Y121300D01*
X-38100Y271461D02*
X-51595Y284955D01*
X-38100Y271461D02*
X-38100Y121300D01*
X-51595Y284955D02*
X-88425Y284955D01*
X-74000Y286000D02*
X-127200Y286000D01*
X-147500Y265700D01*
X-329230Y293830D02*
X-330500Y295100D01*
X-225800Y294000D02*
X-197500Y265700D01*
X-271000Y294000D02*
X-272000Y293000D01*
X-271000Y294000D02*
X-225800Y294000D01*
X-274100Y295100D02*
X-330500Y295100D01*
X-274100Y295100D02*
X-272000Y293000D01*
D37*
X-218440Y485140D02*
X-208280Y485140D01*
X-218440Y485140D02*
X-228600Y495300D01*
X-228600Y633222D02*
X-247650Y652272D01*
X-296519Y652272D02*
X-298297Y654050D01*
X-296519Y652272D02*
X-247650Y652272D01*
X-303156Y654050D02*
X-303978Y654872D01*
D40*
X-303978Y654872D03*
X-344170Y654050D03*
D37*
X-350520Y687070D02*
X-349250Y688340D01*
X-350520Y687070D02*
X-350520Y660400D01*
X-344170Y654050D01*
X-228600Y633222D02*
X-228600Y495300D01*
X-298297Y654050D02*
X-303156Y654050D01*
X-467150Y345550D02*
X-488950Y345550D01*
X-467150Y345550D02*
X-460950Y339350D01*
X-488950Y345550D02*
X-488950Y365650D01*
D39*
X-228600Y388620D02*
X-208280Y408940D01*
X-228600Y388620D02*
X-251460Y388620D01*
D42*
X-251460Y388620D03*
X-396240Y382270D03*
D39*
X-419100Y382270D01*
X-421640Y379730D01*
X-438150Y396240D01*
X-438150Y411150D01*
X-184360Y408940D02*
X-171050Y422250D01*
X-184360Y408940D02*
X-208280Y408940D01*
D37*
X-292100Y565150D02*
X-316230Y565150D01*
X-292100Y565150D02*
X-285750Y558800D01*
X-285750Y402590D02*
X-271780Y388620D01*
X-251460Y388620D01*
X-285750Y402590D02*
X-285750Y558800D01*
D35*
X-364490Y104620D02*
X-314960Y55090D01*
X-314960Y35560D01*
D39*
X-313690Y34290D02*
X-274320Y34290D01*
X-313690Y34290D02*
X-314960Y35560D01*
D35*
X-278750Y120650D02*
X-322720Y164620D01*
X-364490Y164620D01*
D37*
X-397850Y730250D02*
X-416450Y730250D01*
D44*
X-73660Y459740D02*
X-30480Y459740D01*
X-88900Y444500D02*
X-88900Y398780D01*
X-138540Y349140D01*
X-332200Y349140D02*
X-358140Y375080D01*
X-358140Y525780D01*
X-344170Y539750D01*
X-88900Y444500D02*
X-73660Y459740D01*
X-138540Y349140D02*
X-332200Y349140D01*
X-344170Y539750D02*
X-318770Y539750D01*
X-316230Y514350D02*
X-332740Y514350D01*
X-341630Y505460D01*
X-341630Y381430D01*
X-323040Y362840D01*
X-155320Y362840D01*
X-109220Y408940D01*
D42*
X-60960Y408940D03*
X-109220Y408940D03*
D37*
X-60960Y408940D02*
X-30480Y408940D01*
X-323850Y647700D02*
X-323850Y685800D01*
X-323850Y647700D02*
X-311150Y635000D01*
X-237490Y459740D02*
X-208280Y459740D01*
X-260350Y635000D02*
X-311150Y635000D01*
X-260350Y635000D02*
X-247650Y622300D01*
X-247650Y469900D01*
X-237490Y459740D01*
D38*
X-71120Y561340D02*
X-30480Y561340D01*
X-81750Y571970D02*
X-81750Y592850D01*
X-81750Y571970D02*
X-71120Y561340D01*
D35*
X-389090Y-58420D02*
X-473440Y-58420D01*
X-477720Y-62700D01*
X-444500Y35560D02*
X-378460Y35560D01*
X-477720Y68780D02*
X-477720Y155740D01*
X-477720Y68780D02*
X-444500Y35560D01*
D37*
X-536050Y700600D02*
X-536050Y730250D01*
X-536050Y700600D02*
X-538150Y698500D01*
X-498500Y625500D02*
X-486250Y625500D01*
X-514350Y685800D02*
X-527050Y698500D01*
X-538150Y698500D01*
X-514350Y641350D02*
X-498500Y625500D01*
X-514350Y641350D02*
X-514350Y685800D01*
X-518050Y730250D02*
X-499450Y730250D01*
D41*
X-485250Y660400D02*
X-485250Y645500D01*
X-486250Y644500D01*
D45*
X-476250Y641350D02*
X-476250Y601550D01*
X-480400Y645500D02*
X-485250Y645500D01*
X-480400Y645500D02*
X-476250Y641350D01*
D37*
X-485750Y580550D02*
X-487790Y578510D01*
X-487790Y565150D01*
X-487790Y539750D01*
M02*
