M48
;GenerationSoftware,Autodesk,EAGLE,9.6.2*%
;CreationDate,2022-01-30T06:41:39Z*%
FMAT,2
ICI,OFF
METRIC,TZ,000.000
T10C0.813
T9C0.900
T8C1.000
T7C1.016
T6C1.200
T5C1.270
T4C1.300
T3C1.524
T2C2.000
T1C3.200
%
G90
M71
T1
X-53340Y53340
X-2540Y71120
X-2540Y-7620
X-47246Y-759
X-53340Y60325
X-53340Y40005
T2
X-7875Y12065
X-15875Y12065
X-19875Y12065
X-3875Y12065
X-23875Y12065
X-27875Y12065
T3
X-47772Y15574
X-47772Y-6270
T4
X-38909Y-5842
X-53815Y69850
X-33909Y-5842
X-48815Y69850
X-43815Y69850
X-47070Y29600
X-47070Y24600
T5
X-10922Y40894
X-12192Y69596
X-24130Y69596
X-25146Y38862
X-39624Y38227
X-6096Y40894
T6
X-19750Y26570
X-14750Y26570
X-36449Y16462
X-36449Y10462
T7
X-31877Y59055
X-37465Y68580
X-34925Y68834
X-32385Y68580
X-29845Y68834
X-27305Y68580
X-27432Y-6731
X-37846Y3556
X-31496Y3556
X-27432Y3429
X-31623Y41275
X-31877Y43815
X-31623Y46355
X-31877Y48895
X-31623Y51435
X-31877Y53975
X-31623Y56515
T8
X-44450Y65405
X-41910Y29210
X-30398Y65487
X-34417Y65405
X-20828Y51054
X-3048Y58674
X-20828Y40894
X-20828Y43434
X-20828Y45974
X-20828Y48514
X-3048Y63754
X-3048Y40894
X-3048Y43434
X-3048Y45974
X-3048Y61214
X-3048Y48514
X-3048Y66294
X-3048Y51054
X-3048Y53594
X-3048Y56134
X-20828Y66294
X-20828Y63754
X-20828Y61214
X-20828Y58674
X-37465Y63500
X-20828Y56134
X-20828Y53594
T9
X-17054Y-1100
X-7400Y23600
X-7400Y28600
X-27200Y24300
X-27200Y29300
X-12054Y-1100
T10
X-39304Y24203
X-39304Y26743
X-14565Y42225
X-17105Y42225
M30