M48
;GenerationSoftware,Autodesk,EAGLE,9.6.2*%
;CreationDate,2022-01-03T02:10:14Z*%
FMAT,2
ICI,OFF
METRIC,TZ,000.000
T4C0.813
T3C1.016
T2C1.200
T1C3.200
%
G90
M71
T1
X-40640Y71120
X-12700Y71120
X-5080Y5080
X-40640Y5080
T2
X-41910Y34290
X-41910Y37790
X-41910Y15240
X-41910Y18740
T3
X-5080Y20320
X-5334Y22860
X-5080Y25400
X-5334Y27940
X-28067Y27940
X-27813Y25400
X-28067Y22860
X-27813Y20320
X-28067Y17780
X-27813Y15240
X-28067Y12700
X-27813Y10160
X-28067Y7620
X-27813Y5080
X-4953Y53340
X-5207Y55880
X-4953Y58420
X-5207Y60960
X-4953Y63500
X-5207Y66040
X-4953Y68580
X-5207Y71120
T4
X-34590Y37100
X-34590Y34560
M30