M48
;GenerationSoftware,Autodesk,EAGLE,9.6.2*%
;CreationDate,2022-01-17T16:27:41Z*%
FMAT,2
ICI,OFF
METRIC,TZ,000.000
T6C0.813
T5C1.016
T4C1.118
T3C1.200
T2C2.794
T1C3.200
%
G90
M71
T1
X-40640Y71120
X-5080Y71120
X-5080Y5080
X-40640Y5080
T2
X-26670Y66294
X-26670Y45974
T3
X-41910Y34290
X-41910Y37790
X-42590Y19160
X-42590Y15660
T4
X-32700Y3000
T5
X-27813Y25400
X-28067Y22860
X-27813Y20320
X-28067Y17780
X-27813Y15240
X-28067Y12700
X-27813Y10160
X-28067Y7620
X-27813Y5080
X-5080Y20320
X-5334Y22860
X-5080Y25400
X-5334Y27940
X-5207Y65024
X-4953Y62484
X-5207Y59944
X-4953Y57404
X-5207Y54864
X-4953Y52324
X-5207Y49784
X-4953Y47244
X-28067Y27940
X-40640Y45847
X-40640Y43053
T6
X-34590Y34560
X-34590Y37100
M30